<svg width="52" height="43" viewBox="0 0 52 43" fill="none" xmlns="http://www.w3.org/2000/svg">
<path d="M25.5898 8.16949C25.1459 8.13838 24.7019 7.97661 24.3642 7.6344L22.9761 6.25312C18.4301 1.72975 11.0515 1.72975 6.49923 6.25312C1.95325 10.7827 1.947 18.1184 6.49923 22.648L23.0073 39.0242C23.7264 39.7335 24.6519 40.0944 25.5898 40.1255V8.16949Z" fill="#7289DA"/>
<path d="M25.2148 7.55608C25.6884 7.52352 26.1619 7.35422 26.522 6.99608L28.0026 5.55049C32.8511 0.816504 40.7208 0.816504 45.576 5.55049C50.4245 10.291 50.4311 17.9682 45.576 22.7087L27.9692 39.8474C27.2023 40.5898 26.2152 40.9674 25.2148 41V7.55608Z" fill="#6E7EB6"/>
<path d="M44.7493 6.86902L29.3167 22.2808C27.2157 24.3714 23.8078 24.3714 21.7068 22.2808L6.21167 6.86902" stroke="#303440" stroke-width="4.6" stroke-miterlimit="10" stroke-linecap="round" stroke-linejoin="round"/>
<path d="M36.6949 2.8621C39.6777 2.8621 42.6604 3.9945 44.9365 6.25308C49.4825 10.7827 49.4887 18.1184 44.9365 22.648L38.1206 29.405L28.4159 39.0304C27.6655 39.7708 26.69 40.1441 25.7083 40.1441C24.7266 40.1441 23.7511 39.7708 23.0007 39.0304L6.49263 22.648C1.9404 18.1184 1.94665 10.7827 6.49263 6.25308C8.76875 3.98828 11.7515 2.8621 14.7279 2.8621C17.7106 2.8621 20.6933 3.9945 22.9632 6.25308L24.3514 7.63435C24.7266 8.00767 25.2143 8.19433 25.702 8.19433C26.1898 8.19433 26.6838 8.00767 27.0527 7.63435L28.4409 6.25308C30.7295 3.9945 33.7122 2.8621 36.6949 2.8621ZM36.6949 0C32.8118 0 29.1662 1.50572 26.4212 4.23094L25.7083 4.93402L25.0017 4.23094C22.2629 1.50572 18.6111 0 14.7342 0C10.851 0 7.20548 1.49949 4.46038 4.23094C-1.20489 9.86804 -1.20489 19.0392 4.46038 24.6701L20.9747 41.0525C22.2441 42.3094 23.9262 43 25.7146 43C27.5029 43 29.185 42.3094 30.4481 41.0525L40.1529 31.4271L46.9625 24.6701C52.6277 19.033 52.6277 9.86181 46.9687 4.22471C44.2236 1.49949 40.5718 0 36.6949 0Z" fill="#303440"/>
<path d="M43.7988 16.3638C43.6737 13.931 42.5419 11.5604 40.5159 9.99249C38.6463 8.549 36.3889 8.07613 34.3066 8.493" stroke="white" stroke-width="4.6" stroke-miterlimit="10" stroke-linecap="round" stroke-linejoin="round"/>
<path d="M30.8237 21.8578L38.3024 29.1748" stroke="#303440" stroke-width="4.6" stroke-miterlimit="10" stroke-linecap="round" stroke-linejoin="round"/>
<path d="M12.5586 29.797L20.6501 21.9138" stroke="#303440" stroke-width="4.6" stroke-miterlimit="10" stroke-linecap="round" stroke-linejoin="round"/>
</svg>
