<svg width="41" height="45" viewBox="0 0 41 45" fill="none" xmlns="http://www.w3.org/2000/svg">
<path d="M24.407 18.7988C23.1049 18.7988 22.0769 19.906 22.0769 21.2842C22.0769 22.6625 23.1277 23.7696 24.407 23.7696C25.7091 23.7696 26.7371 22.6625 26.7371 21.2842C26.7371 19.906 25.6862 18.7988 24.407 18.7988ZM16.0689 18.7988C14.7668 18.7988 13.7388 19.906 13.7388 21.2842C13.7388 22.6625 14.7896 23.7696 16.0689 23.7696C17.371 23.7696 18.399 22.6625 18.399 21.2842C18.4218 19.906 17.371 18.7988 16.0689 18.7988Z" fill="white"/>
<path d="M35.509 0H4.89788C2.3165 0 0.214844 2.0787 0.214844 4.63189V34.9087C0.214844 37.4618 2.3165 39.5406 4.89788 39.5406H30.8031L29.5923 35.4057L32.5164 38.0719L35.2805 40.5799L40.2148 44.8051V4.63189C40.192 2.0787 38.0903 0 35.509 0ZM26.6911 29.26C26.6911 29.26 25.8688 28.2884 25.1834 27.4524C28.176 26.6164 29.3182 24.7863 29.3182 24.7863C28.3816 25.3963 27.4907 25.8256 26.6911 26.1194C25.5489 26.5938 24.4524 26.8876 23.3787 27.0909C21.1857 27.4976 19.1754 27.3847 17.4621 27.0683C16.16 26.8198 15.0407 26.4809 14.104 26.0968C13.5786 25.8934 13.0075 25.6449 12.4364 25.3285C12.3679 25.2834 12.2994 25.2608 12.2308 25.2156C12.1851 25.193 12.1623 25.1704 12.1395 25.1704C11.7283 24.9444 11.4998 24.7863 11.4998 24.7863C11.4998 24.7863 12.5963 26.5713 15.4975 27.4298C14.8122 28.2884 13.967 29.2826 13.967 29.2826C8.91844 29.1244 6.99954 25.8708 6.99954 25.8708C6.99954 18.6631 10.2891 12.8111 10.2891 12.8111C13.5786 10.3935 16.6854 10.4613 16.6854 10.4613L16.9139 10.7324C12.8019 11.8848 10.9287 13.6697 10.9287 13.6697C10.9287 13.6697 11.4313 13.3986 12.2765 13.0371C14.7208 11.9751 16.6626 11.704 17.4621 11.6136C17.5992 11.591 17.7134 11.5684 17.8505 11.5684C19.244 11.3877 20.8202 11.3425 22.465 11.5232C24.6352 11.7718 26.9653 12.4044 29.3411 13.6697C29.3411 13.6697 27.5364 11.9751 23.6529 10.8228L23.9727 10.4613C23.9727 10.4613 27.1023 10.3935 30.369 12.8111C30.369 12.8111 33.6586 18.6631 33.6586 25.8708C33.6586 25.8482 31.7397 29.1018 26.6911 29.26Z" fill="white"/>
</svg>
