<svg width="41" height="41" viewBox="0 0 41 41" fill="none" xmlns="http://www.w3.org/2000/svg">
<rect x="0.537109" y="0.373291" width="40" height="40" rx="5" fill="white"/>
<path d="M33.5371 12.0317C32.5812 12.4442 31.5526 12.7228 30.4737 12.8476C31.575 12.2072 32.4209 11.1924 32.8197 9.9821C31.7892 10.5755 30.647 11.006 29.432 11.2394C28.4593 10.2317 27.073 9.604 25.5394 9.604C22.5934 9.604 20.2045 11.9232 20.2045 14.7815C20.2045 15.1867 20.2511 15.5829 20.3424 15.961C15.9094 15.7457 11.9795 13.6834 9.34833 10.5501C8.88994 11.3154 8.62533 12.2036 8.62533 13.1534C8.62533 14.9497 9.56635 16.5345 10.9974 17.4643C10.1235 17.4372 9.29988 17.2056 8.58248 16.8167C8.58248 16.8384 8.58248 16.8601 8.58248 16.8818C8.58248 19.391 10.4217 21.484 12.8608 21.9598C12.4136 22.0774 11.9422 22.1407 11.4558 22.1407C11.113 22.1407 10.7776 22.1082 10.4515 22.0485C11.1297 24.1054 13.0994 25.6032 15.4342 25.6449C13.6081 27.0342 11.3086 27.8627 8.80981 27.8627C8.37937 27.8627 7.95451 27.8374 7.53711 27.7904C9.89804 29.2593 12.7006 30.1168 15.7137 30.1168C25.5245 30.1168 30.8892 22.2257 30.8892 15.3839C30.8892 15.1596 30.8836 14.9371 30.8743 14.7146C31.9178 13.9819 32.8234 13.0701 33.5371 12.0317Z" fill="#10101A"/>
</svg>
