<svg width="41" height="40" viewBox="0 0 41 40" fill="none" xmlns="http://www.w3.org/2000/svg">
<rect x="0.875977" width="40" height="40" rx="5" fill="white"/>
<path fill-rule="evenodd" clip-rule="evenodd" d="M20.0559 27.6279H21.7729C21.7729 27.6279 22.2905 27.5742 22.5564 27.3061C22.8009 27.0597 22.792 26.5989 22.792 26.5989C22.792 26.5989 22.7581 24.4369 23.8272 24.1168C24.882 23.8034 26.2349 26.2067 27.6681 27.1318C28.7532 27.8307 29.576 27.6782 29.576 27.6782L33.4115 27.6279C33.4115 27.6279 35.4176 27.5122 34.4663 26.0307C34.3878 25.9101 33.9113 24.9347 31.6142 22.932C29.2083 20.8354 29.5314 21.1756 32.4281 17.5489C34.1915 15.3401 34.8983 13.9927 34.6769 13.4161C34.4663 12.8665 33.1688 13.0106 33.1688 13.0106L28.8496 13.0357C28.8496 13.0357 28.5301 12.9955 28.2927 13.1279C28.0607 13.2586 27.9126 13.5636 27.9126 13.5636C27.9126 13.5636 27.229 15.2714 26.317 16.7261C24.3948 19.7913 23.6255 19.9539 23.3114 19.7645C22.5796 19.3204 22.7635 17.9813 22.7635 17.0311C22.7635 14.0597 23.2436 12.8212 21.8282 12.4994C21.3588 12.3938 21.0126 12.3235 19.8132 12.3117C18.2747 12.295 16.97 12.3151 16.2311 12.6536C15.7403 12.8799 15.3602 13.3826 15.5922 13.4111C15.8777 13.4463 16.5238 13.5754 16.8665 14.0128C17.3091 14.5776 17.2931 15.8479 17.2931 15.8479C17.2931 15.8479 17.5465 19.3455 16.6987 19.7796C16.1169 20.0779 15.3173 19.4695 13.6039 16.6875C12.7258 15.263 12.0619 13.6876 12.0619 13.6876C12.0619 13.6876 11.9334 13.3927 11.7067 13.2352C11.43 13.0441 11.0427 12.9838 11.0427 12.9838L6.93952 13.0106C6.93952 13.0106 6.32376 13.0273 6.0971 13.2787C5.8972 13.5033 6.08282 13.9658 6.08282 13.9658C6.08282 13.9658 9.29544 21.0231 12.9328 24.5811C16.2686 27.8407 20.0559 27.6279 20.0559 27.6279Z" fill="#10101A"/>
</svg>
