<svg width="327" height="301" fill="none" xmlns="http://www.w3.org/2000/svg"><path d="M223.303 144.005h-61.342a4.217 4.217 0 01-4.216-4.22v-89.07a4.217 4.217 0 014.216-4.219h61.342a4.217 4.217 0 014.217 4.22v89.069a4.217 4.217 0 01-4.217 4.22z" fill="#ADA8B3"/><path d="M218.699 144.005h-61.342a4.217 4.217 0 01-4.216-4.219v-89.07c0-2.324 1.88-4.22 4.216-4.22h61.342a4.217 4.217 0 014.217 4.22v89.07a4.208 4.208 0 01-4.217 4.219z" fill="#fff"/><path d="M211.348 132.44V58.077h-46.646v74.363h46.646z" fill="#ADA8B3"/><path opacity=".25" d="M211.359 58.076v2.864h-43.812v71.499h-2.848V58.076h46.66z" fill="#000"/><path d="M186.736 111.535c5.619 0 10.175-7.285 10.175-16.27 0-8.986-4.556-16.27-10.175-16.27-5.62 0-10.176 7.284-10.176 16.27 0 8.985 4.556 16.27 10.176 16.27z" fill="#E0E0E0"/><path d="M71.739 18.487l16.23-16.242a4.22 4.22 0 015.987 0l17.088 17.1" stroke="#ADA8B3" stroke-width="1.045" stroke-miterlimit="10"/><path d="M145.26 226.005s-5.572-3.196-13.314-2.421c-7.742.775-13.935 7.139-14.088 7.748-.152.608 29.725-.014 29.725-.014l-.816-4.178-1.507-1.135z" fill="url(#paint0_linear)"/><path d="M294.53 215.684c-.166 12.175-1.991 25.124-1.991 25.124s-18.871 1.799-34.383 1.73c-.456 0-.926 0-1.368-.014-10.162-.111-18.54-1.093-18.65-4.04-.263-7.471-4.397-31.585-4.397-31.585l-.014.014c-.843.719-27.498 23.727-35.046 25.844-3.056.857-10.853.788-19.162.415h-.097c-12.567-.568-26.254-1.854-26.254-1.854l-1.852-5.119c44.116-4.635 66.402-32.526 74.766-46.472 2.461-4.095 5.337-7.637 8.157-10.584 6.829-7.097 13.438-10.819 13.438-10.819 4.438-.318 8.267-.276 11.558 0a.337.337 0 00.11.014c1.258.111 2.447.263 3.553.429.028 0 .056.014.083.014 5.503.844 9.166 2.352 11.448 3.652 2.295 1.301 3.193 2.394 3.193 2.394l6.927 9.989s.11.262.331.719c1.341 3.058 6.553 15.191 8.765 26.48.747 3.819.968 8.675.885 13.669z" fill="#1C1D2F"/><path opacity=".25" d="M294.53 215.684c-.166 12.175-1.991 25.124-1.991 25.124s-18.871 1.799-34.383 1.73c-.456 0-.926 0-1.369-.014 9.899-5.299 22.051-18.76 20.848-33.661-1.354-16.878 0-27.268 0-27.268l16.895 34.089z" fill="#000"/><path d="M306.571 246.356c-6.18 1.854-40.784-3.638-54.955-15.384l-2.322-2.311-4.521-12.562s1.576.318 4.189.858c.263.042.525.097.788.152l.014.014c10.203 2.089 33.277 6.945 42.775 9.795 0 0-12.415-23.934-14.24-38.572a85.13 85.13 0 01-.415-3.832 69.302 69.302 0 00-1.051-6.876c-1.852-9.09-5.032-16.228-5.143-16.477.014 0 .028 0 .042.013.028 0 .055.014.069.014.636.249 3.415 1.356 7.217 3.846 3.152 2.062 7.009 5.064 10.935 9.27 5.047 5.409 10.203 12.825 14.116 22.814 3.65 9.324 5.848 17.625 6.94 24.64 2.212 14.374-.263 23.339-4.438 24.598z" fill="#1C1D2F"/><path opacity=".25" d="M306.571 246.356c-6.18 1.854-40.784-3.638-54.955-15.384l-2.322-2.311-4.521-12.562s1.576.318 4.189.858c2.917 5.686 10.452 16.325 26.682 18.567 19.826 2.739 32.033-.651 35.338-13.78 2.239 14.388-.235 23.353-4.411 24.612z" fill="#000"/><path opacity=".25" d="M294.543 229.312c-5.06-.623-36.747-8.979-41.074-10.432-1.618-.54-2.821-1.19-3.706-1.771 10.203 2.089 33.278 6.945 42.775 9.795 0 0-12.415-23.934-14.239-38.572a83.7 83.7 0 01-.415-3.832c5.806 14.043 20.945 45.337 16.659 44.812z" fill="#fff"/><path opacity=".25" d="M289.94 174.276c-3.83.858-8.392 2.061-13.12 3.334-11.793 3.168-24.581 6.71-29.393 6.005-6.871-1.024-12.221-9.975-13.189-14.458 6.83-7.097 13.438-10.819 13.438-10.819 4.438-.318 8.268-.277 11.558 0a.342.342 0 00.111.014c1.175.138 2.35.29 3.553.429.027 0 .055.014.083.014 3.663.567 6.511 1.411 8.668 2.31.028 0 .042.014.055.028.028 0 .056.014.07.014 1.036.442 1.907.885 2.64 1.3 2.295 1.301 3.194 2.394 3.194 2.394l1.368.138a61.045 61.045 0 0110.964 9.297z" fill="#000"/><path d="M240.183 155.571s-4.493 15.565 2.889 24.862c7.383 9.297 35.489-13.794 38.503-13.642l5.89 4.967s2.461-33.619-34.231-25.498l-13.051 9.311z" fill="#1C1D2F"/><path opacity=".25" d="M242.562 156.042s1.507 17.307 5.336 19.756c3.83 2.435 30.056-16.699 34.135-15.883 4.078.817-5.254-17.556-28.093-11.925l-11.378 8.052z" fill="#000"/><path d="M260.672 164.356c-.927 4.428-11.351 9.796-11.835 6.281a31.445 31.445 0 00-1.963-7.318 34.216 34.216 0 00-2.585-5.147 37.635 37.635 0 00-1.217-1.881c4.825-.844 10.328-3.598 13.397-8.315.069.276.166.553.235.83.249.858.511 1.674.76 2.462 1.853 5.7 3.885 9.879 3.208 13.088z" fill="url(#paint1_linear)"/><path d="M229.607 144.268c.636.512 1.341.775 2.088.775h-4.176c-2.737 0-4.935-3.653-4.935-8.177 0-4.51 2.198-8.176 4.935-8.176h4.176c-.747 0-1.452.277-2.088.775-.857.636-1.59 1.701-2.088 3.016-.497 1.259-.774 2.767-.774 4.371 0 1.605.277 3.113.774 4.372.498 1.342 1.231 2.408 2.088 3.044z" fill="#0C0C0C"/><path d="M257.41 147.907a.794.794 0 01-.125-.194c-1.133-2.186-.954-15.827-2.06-15.385-1.175.457-.815 7.195-5.571 3.833-4.756-3.376-3.373-9.989-5.226-8.246-5.461 5.119-13.009 5.451-13.466 3.943-.456-1.508 5.931-4.178 5.005-4.635-.926-.47-4.77 2.2-11.738 2.2-.373 0-.76-.014-1.147-.055-6.608-.512-13.203-5.271-12.443-7.374.816-2.214 4.881.235 5.807-1.633.387-.775-1.217-3.099-3.028-5.589-2.488-3.417-5.378-7.181-4.161-7.997 1.77-1.19 4.217 1.494 5.488 1.619.222.014.401-.042.553-.221.927-1.176-2.903-8.37 0-10.225 1.024-.65 1.991-.29 3.097.554 1.991 1.549 4.424 4.69 8.392 6.184 4.562 1.716 14.931 1.84 19.977 1.785h.526a121.49 121.49 0 002.364-.042c2.392-2.186 12.484-4.372 16.383 7.236.262.733.47 1.55.677 2.421 3.249 14.278-8.018 33.204-9.304 31.821z" fill="#1C1D2F"/><path opacity=".25" d="M257.41 147.907a.794.794 0 01-.125-.194c-1.133-2.186-.954-15.827-2.06-15.385-1.175.457-.815 7.195-5.571 3.833-4.756-3.376-3.373-9.989-5.226-8.246-5.461 5.119-13.009 5.451-13.466 3.943-.456-1.508 5.931-4.178 5.005-4.635-.926-.47-4.77 2.2-11.738 2.2-.373 0-.76-.014-1.147-.055-6.608-.512-13.203-5.271-12.443-7.374.816-2.214 4.881.235 5.807-1.633.387-.775-1.217-3.099-3.028-5.589 2.558 1.66 5.959 3.182 10.341 3.929 12.706 2.172 22.038-5.105 27.125-3.722 3.581.983 12.249 3.196 15.153-1.328.262.733.47 1.55.677 2.421 3.249 14.292-8.018 33.218-9.304 31.835z" fill="#000"/><path d="M257.285 147.727a13.64 13.64 0 01-.83 1.466c-3.069 4.718-8.018 8.287-12.843 9.118-.719.124-1.604-.042-2.558-.388-2.364-.885-5.17-2.947-7.037-4.593-3.954-3.528-7.23-11.345-9.373-18.331-.622-1.979-1.162-3.874-1.576-5.617.373.041.76.055 1.147.055 6.968 0 10.811-2.67 11.738-2.2.926.457-5.461 3.141-5.005 4.635.456 1.508 8.005 1.176 13.466-3.943 1.355-1.287.981 1.923 2.557 5.05.567 1.162 1.397 2.282 2.669 3.196 4.769 3.375 4.41-3.376 5.571-3.833.664-.276.885 4.593 1.175 8.965.208 2.864.456 5.548.899 6.42z" fill="url(#paint2_linear)"/><path d="M254.119 123.917s.733-16.201-14.502-17.529c8.751-.706 17.115-2.048 19.977 16.408l-5.475 1.121zm14.336 8.536c0 5.534-2.709 10.016-6.055 10.016-.912 0-1.783-.332-2.558-.954-1.05-.775-1.949-2.075-2.557-3.708-.609-1.549-.954-3.403-.954-5.368 0-1.964.345-3.818.954-5.368.608-1.619 1.507-2.919 2.557-3.708.775-.622 1.646-.954 2.558-.954 3.332.027 6.055 4.51 6.055 10.044z" fill="#E35A5F"/><path d="M266.894 132.453c0 2.781-1.369 5.036-3.042 5.036-.456 0-.898-.166-1.286-.484-.525-.388-.981-1.052-1.285-1.854-.304-.775-.484-1.702-.484-2.698s.18-1.909.484-2.698c.304-.816.76-1.466 1.285-1.854.388-.318.83-.484 1.286-.484 1.673 0 3.042 2.255 3.042 5.036z" fill="#DD2731"/><path d="M259.843 141.515c.774.622 1.645.954 2.558.954h-5.116c-3.345 0-6.055-4.482-6.055-10.016s2.696-10.017 6.055-10.017h5.116c-.913 0-1.784.332-2.558.955-1.051.775-1.949 2.089-2.558 3.708-.608 1.549-.954 3.403-.954 5.368 0 1.964.346 3.818.954 5.368.609 1.604 1.507 2.905 2.558 3.68z" fill="#0C0C0C"/><path d="M249.294 228.661c-.387 2.518-5.032 2.283-6.111 1.342-.235-.193-.539-.871-.871-1.854-1.244-3.666-2.889-11.483-2.156-12.396.926-1.176 5.184 0 5.184 0s4.341 10.39 3.954 12.908z" fill="#121321"/><path d="M242.312 228.15c-2.599 1.743-6.733 3.818-9.304 5.049-1.369.651-2.295 1.066-2.295 1.066l-17.807-4.953s5.738-8.357 11.613-11.151c2.821-1.342 6.54-1.951 9.636-2.214 3.374-.29 6.001-.194 6.001-.194-.733.927.912 8.73 2.156 12.397z" fill="url(#paint3_linear)"/><path opacity=".25" d="M233.009 233.199c3.276-6.917 1.963-14.194 1.161-17.252 3.373-.29 6-.194 6-.194-.733.914.913 8.716 2.157 12.397-2.613 1.757-6.747 3.818-9.318 5.049zm.718-26.286l-.014.014c-.843.719-27.498 23.727-35.047 25.843-3.055.858-10.852.789-19.161.415.815-.013 1.686-.013 2.668-.027 31.355-.263 45.816-41.574 50.047-43.663-1.106 6.281 1.507 17.418 1.507 17.418z" fill="#000"/><path d="M254.561 178.191s-1.327 18.927 1.77 30.672m-11.682-30.672s-3.235 21.555.124 33.287" stroke="#fff" stroke-width="1.045" stroke-miterlimit="10" stroke-linecap="round" stroke-linejoin="round"/><path opacity=".25" d="M246.971 132.965c-10.604 5.34-17.848 4.247-22.327 2.006-.622-1.979-1.162-3.874-1.576-5.617.373.041.76.055 1.147.055 6.968 0 10.811-2.67 11.738-2.2.926.457-5.461 3.141-5.005 4.635.456 1.508 8.005 1.176 13.466-3.943 1.355-1.259.981 1.951 2.557 5.064zm10.493 18.303c-1.797 6.185-7.216 10.142-10.59 12.065a34.216 34.216 0 00-2.585-5.147c4.604-1.038 9.263-4.496 12.18-8.993.083-.11.166-.249.235-.373.235.844.498 1.66.76 2.448z" fill="#000"/><path d="M238.925 155.142a.73.73 0 01-.718-.65.736.736 0 01.636-.802c12.898-1.412 17.889-13.157 17.945-13.268a.716.716 0 01.94-.388.718.718 0 01.387.941c-.056.125-5.378 12.659-19.12 14.153-.014.014-.042.014-.07.014z" fill="#E35A5F"/><path d="M169.648 49.028l16.231-16.242a4.22 4.22 0 015.986 0l17.088 17.1" stroke="#ADA8B3" stroke-width="1.045" stroke-miterlimit="10"/><path d="M125.213 114.876H63.871a4.218 4.218 0 01-4.217-4.22v-89.07c0-2.324 1.88-4.22 4.217-4.22h61.342a4.217 4.217 0 014.217 4.22v89.07c0 2.338-1.88 4.22-4.217 4.22z" fill="#ADA8B3"/><path d="M120.624 114.876H59.282a4.218 4.218 0 01-4.217-4.22v-89.07c0-2.324 1.88-4.22 4.217-4.22h61.342a4.217 4.217 0 014.217 4.22v89.07c-.014 2.338-1.894 4.22-4.217 4.22z" fill="#C8C4D2"/><path d="M113.271 103.302V28.939H66.625v74.363h46.646z" fill="#F2F2F3"/><path d="M88.647 82.391c5.62 0 10.175-7.284 10.175-16.27 0-8.985-4.556-16.27-10.175-16.27-5.62 0-10.176 7.285-10.176 16.27 0 8.986 4.556 16.27 10.175 16.27z" fill="#E0E0E0"/><path opacity=".05" d="M113.269 28.947v2.864H69.457v71.499h-2.834V28.947h46.646z" fill="#000"/><path d="M326.999 244.257V267.2c0 3.651-2.385 6.607-5.332 6.607H5.863c-2.957 0-5.332-2.956-5.332-6.607v-22.943c0-3.365 2.001-6.117 4.607-6.553v-.014c.241-.041.483-.054.725-.054h315.804c2.947 0 5.332 2.97 5.332 6.621z" fill="#F1BDA7"/><path opacity=".25" d="M326.999 262.639v4.728c0 3.558-2.385 6.44-5.332 6.44H5.863c-2.957 0-5.332-2.882-5.332-6.44v-4.728c0-3.28 2.001-5.962 4.607-6.387v-.014a4.43 4.43 0 01.725-.053h315.804c2.947 0 5.332 2.895 5.332 6.454z" fill="#000"/><g opacity=".1" fill="#000"><path opacity=".1" d="M30.597 274.095h-2.494c-4.88-3.624-8.484-9.338-9.99-16.961-1.021-5.105-1.043-10.543-.087-15.675.253-1.328.55-2.74.967-4.096h1.12c-1.098 3.321-1.505 7.319-1.604 10.211-.197 5.451.682 11.026 2.748 15.841 2.208 5.202 5.516 8.536 9.34 10.68zm30.273-5.451c-.626 2.034-1.505 3.888-2.593 5.451h-1.692c1.164-1.259 2.142-2.905 2.9-5.008 1.33-3.721 1.594-7.872 1.462-11.898-.12-3.901.187-9.657-3.165-11.275-4.12-1.979-10.582-2.989-14.505-.07-4.274 3.182-4.989 10.639-2.077 15.454.45.733-.549 1.467-.989.719-2.45-4.039-2.593-9.753-.362-14.028 2.703-5.133 7.846-5.742 12.274-5.022 3.198.525 8.22.899 9.242 5.589 1.33 6.087 1.34 14.181-.495 20.088zm61.44-24.017c.341-2.656 1.066-5.091 2.099-7.264h1.319c-3.561 7.181-3.671 18 3.065 22.247 3.099 1.951 7.187 2.145 9.934-.83 2.956-3.182 3.33-8.508 3.253-13.046-.022-.927 1.121-.927 1.154 0 .165 8.66-2.967 17.944-11.033 16.629-7.011-1.12-10.857-9.311-9.791-17.736zm-5.594 29.468h-3.978c-2.626-1.189-5.131-2.711-7.439-4.745-7.483-6.558-13.461-15.398-21.164-21.707-8.55-6.987-18.582-11.386-28.857-9.602-.395.07-.66-.304-.714-.678h13.472c10.736 2.975 20.34 11.456 28.582 20.794 6.033 6.849 11.615 13.213 19.681 15.8.143.055.275.097.417.138zm47.703-25.954c-.846 9.242-3.088 18.857-9.286 24.599-.527.498-1.065.94-1.615 1.355h-2.505c3.527-2.13 6.582-5.34 8.593-9.836 3.319-7.444 4.857-18.235 3.527-26.633-.011-.083-.022-.179-.044-.263h1.099c.561 3.515.55 7.264.231 10.778zm-52.791 5.866c-4.703.291-8.659-2.67-12.131-6.406-2.945-3.154-5.681-6.64-8.319-10.238h1.627a185.484 185.484 0 005.439 6.863c3.714 4.441 7.967 8.66 13.373 8.328.748-.041.748 1.411.011 1.453zm168.326 4.953c-4.418 8.91-14.407 10.086-21.901 10.874a94.015 94.015 0 01-16.142.291c-2.781-.194-5.572-.443-8.33-.927-1.374-.249-2.912-.498-4.088-1.55-6.978-6.239 6.033-14.056 9.407-15.633 4.318-2.02 8.901-3.182 13.505-3.418 2.483-.124 6.835-.719 8.681 2.062 4.659 7.042-11.978 12.866-14.912 13.475-.725.139-1.033-1.245-.307-1.397 4.384-.913 8.703-2.809 12.34-6.06a9.92 9.92 0 001.494-1.508c.561-2.961.044-4.579-1.56-4.856-.835-.304-1.824-.263-2.703-.29a33.428 33.428 0 00-7.418.525c-4.296.789-8.505 2.394-12.417 4.787-1.89 1.162-3.89 2.394-5.319 4.441-1.802 2.587-1.868 5.908 1.055 7.388 1 .512 2.319.595 3.341.747 7.736 1.148 15.582 1.273 23.362.457 7.165-.734 17.615-1.882 21.351-11.096 4.308-10.681-7.274-14.679-13.164-15.952-7.714-1.66-15.692-1.66-23.472-.954-25.417 2.282-50.054 14.208-70.219 33.702h-1.835c14.176-14.029 30.571-24.336 48.043-30.119 8.462-2.822 17.154-4.566 25.912-5.188 9.23-.664 19.439-.733 28.307 3.085 5.901 2.546 10.934 9.186 6.989 17.114z"/><path opacity=".1" d="M221.527 252.762c-4.484 2.393-7.868 7.042-9.396 12.866-.659 2.505-1.088 5.728-.681 8.454h-1.132c-1.209-9.353 3.934-18.982 10.626-22.579.681-.36 1.264.899.583 1.259zm83.811-15.399c-1.517 9.298-4.253 18.36-8.462 25.955-2.989 5.382-7.175 8.578-11.802 10.777h-3.934c3.242-1.093 6.473-2.379 9.253-4.676 4-3.279 6.549-8.37 8.615-13.669 2.286-5.866 3.978-12.05 5.077-18.387h1.253zm12.549 0c-.923 11.414-7.176 22.206-12.637 30.756a108.854 108.854 0 01-4.099 5.976h-1.571a99.616 99.616 0 003.088-4.302c5.868-8.647 13.087-20.379 14.087-32.416h1.132v-.014zm-113.975.001a205.985 205.985 0 00-9.198 6.142 232.381 232.381 0 00-15.076 11.622c-4.044 3.403-7.967 7.554-13.044 7.83-.33.014-.538-.346-.571-.719-.715-9.256 5.89-16.491 7.461-24.889h1.077c-.956 4.994-3.582 9.587-5.407 14.181-.824 2.061-1.56 4.233-1.89 6.53-.066.512-.472 2.933-.165 3.279.671.719 3.099-.72 3.759-1.066 4.186-2.227 7.879-6.184 11.692-9.269a224.434 224.434 0 0118.834-13.669h2.528v.028zM92.496 274.095h-1.648c-2.252-2.919-4.55-5.797-6.934-8.55-2.55-2.905-5.483-5.769-8.89-6.779-.846-.249-1.967-.553-2.824-.332-.835-.069-1.45.512-1.835 1.716-1.44.844-1.824 2.116-1.176 3.86.176 1.674.352 3.375.45 5.077.078 1.729.034 3.417-.164 5.008H68.31c.275-2.739.176-5.534-.099-8.397-.252-2.505-1.164-5.977.835-7.734 4.33-3.819 11.033 1.632 14.275 5.036 3.22 3.389 6.23 7.208 9.175 11.095zm-76.053 0h-1.22c-1.966-5.755-5.648-10.611-7.89-16.228-2.538-6.378-3.23-13.531-2.197-20.434v-.014c.242-.042.483-.055.725-.055h.473c-1.352 8.577.274 16.934 4.154 24.363 2.131 4.054 4.527 7.955 5.955 12.368z"/></g><path opacity=".1" d="M173.139 244.128H7.853c-1.485 0-2.684-1.45-2.684-3.246s1.199-3.246 2.684-3.246h165.286c1.485 0 2.684 1.45 2.684 3.246s-1.199 3.246-2.684 3.246z" fill="#000"/><path d="M151.303 226.213s-4.342-.471-5.268 0c-.926.47 1.549 5.105 1.549 5.105l5.571.014-1.852-5.119z" fill="#121321"/><path d="M183.446 103.012v102.794a5.074 5.074 0 01-2.792 4.538 5.042 5.042 0 01-2.282.539H13.038a5.07 5.07 0 01-5.074-5.077V103.012a5.043 5.043 0 012.848-4.538 4.978 4.978 0 012.226-.526h165.334a5.067 5.067 0 015.074 5.064z" fill="#343551"/><path d="M176.381 103.012v102.794a5.079 5.079 0 01-5.074 5.077H5.973a5.07 5.07 0 01-5.074-5.077V103.012a5.067 5.067 0 015.074-5.064h165.334c2.793 0 5.074 2.269 5.074 5.064z" fill="#151623"/><path opacity=".25" d="M163.69 119.13v91.74H5.973a5.07 5.07 0 01-5.074-5.078v-91.74h157.703a5.083 5.083 0 015.088 5.078z" fill="#000"/><path opacity=".25" d="M83.754 161.617H71.27v49.266h12.484v-49.266z" fill="#000"/><path opacity=".3" d="M97.51 144.116H57.512a4.341 4.341 0 01-4.34-4.344 4.342 4.342 0 014.34-4.345H97.51a4.341 4.341 0 014.341 4.345c-.013 2.393-1.949 4.344-4.34 4.344z" fill="#fff"/><path d="M31.591 198.695h-7.645a1.913 1.913 0 01-1.908-1.909c0-1.052.857-1.91 1.908-1.91h7.645c1.051 0 1.908.858 1.908 1.91a1.912 1.912 0 01-1.908 1.909zm15.014 0H38.96a1.912 1.912 0 01-1.908-1.909c0-1.052.857-1.91 1.908-1.91h7.645c1.05 0 1.908.858 1.908 1.91a1.913 1.913 0 01-1.908 1.909zm58.66 0H97.62a1.913 1.913 0 01-1.908-1.909c0-1.052.857-1.91 1.908-1.91h7.645c1.051 0 1.908.858 1.908 1.91a1.912 1.912 0 01-1.908 1.909zm15.014 0h-7.645a1.912 1.912 0 01-1.908-1.909c0-1.052.857-1.91 1.908-1.91h7.645c1.051 0 1.908.858 1.908 1.91a1.912 1.912 0 01-1.908 1.909z" fill="#606060"/><path d="M83.753 161.617a7.156 7.156 0 01-.65 2.988c-1.147 2.505-3.65 4.234-6.58 4.234H60.526v56.917a7.224 7.224 0 01-5.475 7.014 7.298 7.298 0 01-1.742.222c-3.982 0-7.23-3.238-7.23-7.236v-64.139c0-3.984 3.234-7.236 7.23-7.236h23.212a7.23 7.23 0 017.23 7.236z" fill="#33374E"/><path opacity=".25" d="M73.233 154.381a7.18 7.18 0 01-6.553 4.234h-9a6.997 6.997 0 00-6.996 7v49.917a7.215 7.215 0 01-4.59 6.724v-60.639c0-3.984 3.235-7.236 7.23-7.236h19.909z" fill="#fff"/><path opacity=".25" d="M83.104 164.605c-1.148 2.505-3.65 4.234-6.581 4.234H60.527v56.917a7.224 7.224 0 01-5.474 7.014v-60.929c0-3.984 3.235-7.236 7.23-7.236h20.82z" fill="#000"/><path d="M101.851 227.375v7.913a1.866 1.866 0 01-1.867 1.854h-65.71a1.865 1.865 0 01-1.867-1.854v-7.913c0-1.024.843-1.854 1.866-1.854h65.711c1.023 0 1.867.83 1.867 1.854z" fill="#202133"/><path opacity=".25" d="M101.851 231.041v4.234a1.865 1.865 0 01-1.867 1.853h-65.71a1.865 1.865 0 01-1.867-1.853v-4.234c0-1.024.843-1.868 1.866-1.868h65.711c1.023.014 1.867.844 1.867 1.868z" fill="#000"/><path d="M212.921 229.312h-98.725v8.052h98.725v-8.052z" fill="#343551"/><path d="M191.715 232.992s-13.936-6.143-22.287 11.206c-8.364 17.349 10.521 41.726-11.143 52.365-21.677 10.64-52.328-7.553-58.203-46.61-5.89-39.056-5.295-53.154 1.382-53.154m-58.688-.013S28.5 200.468 28.5 220.968c-1.908 12.313 3.493 71 3.493 71" stroke="#E35A5F" stroke-width="1.045" stroke-miterlimit="10" stroke-linecap="round" stroke-linejoin="round"/><path d="M27.761 196.786S14.355 192.369 7 220.468c-7.355 28.099 11 73 11 73" stroke="#00B1FF" stroke-width="1.045" stroke-miterlimit="10" stroke-linecap="round" stroke-linejoin="round"/><path opacity=".25" d="M10.273 97.948v16.104H.913v-11.04a5.067 5.067 0 015.074-5.064h4.286z" fill="#000"/><path d="M250.872 232.77l-38.143-3.458v8.052h38.143v-4.594z" fill="#161728"/><defs><linearGradient id="paint0_linear" x1="106.472" y1="232.463" x2="164.062" y2="223.8" gradientUnits="userSpaceOnUse"><stop stop-color="#FFC5C1"/><stop offset="1" stop-color="#E27491"/></linearGradient><linearGradient id="paint1_linear" x1="242.601" y1="187.391" x2="258.877" y2="139.993" gradientUnits="userSpaceOnUse"><stop stop-color="#FFC5C1"/><stop offset="1" stop-color="#E27491"/></linearGradient><linearGradient id="paint2_linear" x1="232.2" y1="150.711" x2="254.515" y2="117.031" gradientUnits="userSpaceOnUse"><stop stop-color="#FFC5C1"/><stop offset="1" stop-color="#E27491"/></linearGradient><linearGradient id="paint3_linear" x1="206.437" y1="233.341" x2="264.034" y2="213.846" gradientUnits="userSpaceOnUse"><stop stop-color="#FFC5C1"/><stop offset="1" stop-color="#E27491"/></linearGradient></defs></svg>