<svg width="360" height="434" viewBox="0 0 360 434" fill="none" xmlns="http://www.w3.org/2000/svg">
<path d="M-263.783 -16.0389C-262.697 -17.3687 -261.545 -18.6542 -260.304 -19.8732L-239.566 -40.596C-226.14 -54.027 -226.14 -75.8136 -239.566 -89.2446L-258.487 -108.172C-275.924 -125.615 -276.411 -153.718 -259.595 -171.759C-242.801 -189.778 -214.796 -191.263 -196.164 -175.15C-180.677 -161.763 -177.331 -152.432 -161.224 -148.842C-153.868 -147.202 -146.18 -151.723 -140.464 -157.441L-138.559 -159.37C-131.624 -166.262 -131.624 -177.477 -138.559 -184.392L-184.133 -229.96C-201.082 -246.937 -201.082 -274.464 -184.133 -291.419C-175.625 -299.93 -164.525 -304.163 -153.403 -304.163C-142.281 -304.163 -131.181 -299.93 -122.673 -291.419L-61.3022 -230.026C-48.1639 -216.884 -26.8502 -216.884 -13.7341 -230.026L-13.3795 -230.381C-0.440676 -243.324 -0.440674 -264.313 -13.3795 -277.257C-30.7053 -294.588 -30.7053 -322.669 -13.3795 -340.001C3.94618 -357.333 32.0396 -357.333 49.3652 -340.001L158.371 -230.957C171.952 -217.371 193.909 -217.15 207.756 -230.47C221.98 -244.145 222.201 -266.862 208.265 -280.825L207.158 -281.933C196.036 -293.081 196.102 -311.144 207.291 -322.204C218.391 -333.175 236.27 -333.108 247.304 -322.071L503.135 -66.1503L649.185 79.9508C681.111 111.888 681.377 163.618 649.739 195.865C633.631 212.311 612.296 220.533 590.982 220.533C569.934 220.533 548.864 212.51 532.779 196.419L499.346 162.975C492.434 156.06 481.245 156.06 474.332 162.975L460.419 176.894C453.528 183.786 453.528 195.001 460.419 201.916L519.353 260.826C530.719 272.218 530.719 290.68 519.353 302.072C513.659 307.768 506.192 310.605 498.748 310.605C491.259 310.605 483.815 307.768 478.121 302.072L423.729 247.661C416.839 240.746 405.628 240.746 398.715 247.661L393.354 253.003C386.463 259.918 386.463 271.11 393.354 278.025L461.549 346.288C481.622 366.368 481.622 398.904 461.549 418.984C451.512 429.046 438.374 434.033 425.236 434.033C412.075 434.033 398.937 429.024 388.9 418.984L266.468 296.509C259.534 289.617 248.367 289.617 241.455 296.509L239.372 298.593C232.459 305.508 232.459 316.7 239.372 323.615L259.489 343.74C271.52 355.752 271.52 375.256 259.489 387.291C253.485 393.319 245.598 396.333 237.732 396.333C229.867 396.333 221.958 393.319 215.976 387.291L84.504 255.795C77.6136 248.902 66.4028 248.902 59.4902 255.795C56.034 259.253 54.328 263.796 54.328 268.295C54.328 272.817 56.0339 277.36 59.4902 280.795L94.0753 315.393C107.214 328.535 107.214 349.79 94.0753 362.911C87.5172 369.471 78.9207 372.729 70.3465 372.729C61.7501 372.729 53.1759 369.471 46.6178 362.911L-260.326 55.8813C-280.001 36.2002 -281.153 4.99412 -263.783 -16.0389Z" fill="#E7E6EB"/>
</svg>
