<svg width="320" height="47" viewBox="0 0 320 47" fill="none" xmlns="http://www.w3.org/2000/svg">
<path d="M0 2.625H21.5217C26.3875 2.625 30.671 3.52083 34.3724 5.3125C38.1153 7.0625 41.0056 9.58333 43.0434 12.875C45.1228 16.1667 46.1625 20.0417 46.1625 24.5C46.1625 28.9583 45.1228 32.8333 43.0434 36.125C41.0056 39.4167 38.1153 41.9583 34.3724 43.75C30.671 45.5 26.3875 46.375 21.5217 46.375H0V2.625ZM20.8979 34.875C24.0586 34.875 26.5746 33.9792 28.4461 32.1875C30.3591 30.3542 31.3157 27.7917 31.3157 24.5C31.3157 21.2083 30.3591 18.6667 28.4461 16.875C26.5746 15.0417 24.0586 14.125 20.8979 14.125H14.7221V34.875H20.8979Z" fill="#7289DA"/>
<path d="M69.1297 47C65.3452 47 61.935 46.25 58.8991 44.75C55.9048 43.2083 53.5551 41.1042 51.85 38.4375C50.1449 35.7292 49.2923 32.6667 49.2923 29.25C49.2923 25.8333 50.1449 22.7917 51.85 20.125C53.5551 17.4167 55.9048 15.3125 58.8991 13.8125C61.935 12.3125 65.3452 11.5625 69.1297 11.5625C72.9558 11.5625 76.366 12.3125 79.3603 13.8125C82.3963 15.3125 84.746 17.4167 86.4095 20.125C88.1146 22.7917 88.9671 25.8333 88.9671 29.25C88.9671 32.6667 88.1146 35.7292 86.4095 38.4375C84.746 41.1042 82.3963 43.2083 79.3603 44.75C76.366 46.25 72.9558 47 69.1297 47ZM69.1297 36C70.7517 36 72.0825 35.4167 73.1222 34.25C74.1619 33.0417 74.6817 31.375 74.6817 29.25C74.6817 27.125 74.1619 25.4792 73.1222 24.3125C72.0825 23.1458 70.7517 22.5625 69.1297 22.5625C67.5078 22.5625 66.177 23.1458 65.1373 24.3125C64.0976 25.4792 63.5778 27.125 63.5778 29.25C63.5778 31.375 64.0976 33.0417 65.1373 34.25C66.177 35.4167 67.5078 36 69.1297 36Z" fill="#7289DA"/>
<path d="M117.085 11.5625C121.285 11.5625 124.654 12.8333 127.191 15.375C129.769 17.9167 131.058 21.75 131.058 26.875V46.375H116.96V29.3125C116.96 25.3958 115.567 23.4375 112.78 23.4375C111.2 23.4375 109.911 24 108.913 25.125C107.956 26.2083 107.478 27.9375 107.478 30.3125V46.375H93.3797V12.1875H106.792V15.5625C108.123 14.2292 109.661 13.2292 111.408 12.5625C113.155 11.8958 115.047 11.5625 117.085 11.5625Z" fill="#7289DA"/>
<path d="M152.464 11.5625C158.453 11.5625 163.028 12.9167 166.188 15.625C169.349 18.2917 170.929 22.4167 170.929 28V46.375H157.829V41.875C156.207 45.2917 152.984 47 148.16 47C145.457 47 143.149 46.5417 141.236 45.625C139.364 44.6667 137.93 43.3958 136.931 41.8125C135.975 40.1875 135.497 38.375 135.497 36.375C135.497 33 136.786 30.4375 139.364 28.6875C141.943 26.9375 145.852 26.0625 151.092 26.0625H156.769C156.311 23.3958 154.17 22.0625 150.343 22.0625C148.805 22.0625 147.245 22.3125 145.665 22.8125C144.085 23.2708 142.733 23.9167 141.61 24.75L137.119 15.4375C139.073 14.2292 141.423 13.2917 144.168 12.625C146.954 11.9167 149.72 11.5625 152.464 11.5625ZM152.402 38.5C153.4 38.5 154.294 38.2292 155.085 37.6875C155.875 37.1458 156.457 36.3333 156.831 35.25V32.875H153.338C150.468 32.875 149.033 33.8333 149.033 35.75C149.033 36.5417 149.325 37.2083 149.907 37.75C150.531 38.25 151.362 38.5 152.402 38.5Z" fill="#7289DA"/>
<path d="M202.162 45.1875C200.041 46.3958 197.151 47 193.491 47C188.709 47 185.028 45.8542 182.45 43.5625C179.871 41.2292 178.582 37.75 178.582 33.125V24.375H173.903V14.0625H178.582V4.5H192.68V14.0625H199.667V24.375H192.68V33C192.68 34.0417 192.951 34.8542 193.491 35.4375C194.032 36.0208 194.739 36.3125 195.612 36.3125C196.818 36.3125 197.879 36 198.794 35.375L202.162 45.1875Z" fill="#7289DA"/>
<path d="M241.108 29.25C241.108 29.4583 241.046 30.5625 240.921 32.5625H217.216C217.715 33.8542 218.547 34.8542 219.711 35.5625C220.876 36.2292 222.331 36.5625 224.078 36.5625C225.575 36.5625 226.823 36.375 227.821 36C228.86 35.625 229.983 34.9792 231.189 34.0625L238.55 41.5C235.223 45.1667 230.254 47 223.641 47C219.524 47 215.906 46.25 212.787 44.75C209.668 43.2083 207.256 41.0833 205.55 38.375C203.845 35.6667 202.993 32.625 202.993 29.25C202.993 25.8333 203.825 22.7917 205.488 20.125C207.193 17.4167 209.501 15.3125 212.412 13.8125C215.365 12.3125 218.671 11.5625 222.331 11.5625C225.783 11.5625 228.923 12.25 231.751 13.625C234.62 15 236.887 17.0208 238.55 19.6875C240.255 22.3542 241.108 25.5417 241.108 29.25ZM222.456 21.1875C221 21.1875 219.794 21.5833 218.838 22.375C217.881 23.1667 217.257 24.2917 216.966 25.75H227.945C227.654 24.3333 227.031 23.2292 226.074 22.4375C225.117 21.6042 223.911 21.1875 222.456 21.1875Z" fill="#7289DA"/>
<path d="M245.557 0H259.655V46.375H245.557V0Z" fill="#7289DA"/>
<path d="M265.904 0H280.003V46.375H265.904V0Z" fill="#7289DA"/>
<path d="M301.535 11.5625C307.524 11.5625 312.098 12.9167 315.259 15.625C318.42 18.2917 320 22.4167 320 28V46.375H306.9V41.875C305.278 45.2917 302.055 47 297.231 47C294.527 47 292.219 46.5417 290.306 45.625C288.435 44.6667 287 43.3958 286.002 41.8125C285.045 40.1875 284.567 38.375 284.567 36.375C284.567 33 285.856 30.4375 288.435 28.6875C291.013 26.9375 294.923 26.0625 300.163 26.0625H305.839C305.382 23.3958 303.24 22.0625 299.414 22.0625C297.875 22.0625 296.316 22.3125 294.735 22.8125C293.155 23.2708 291.803 23.9167 290.681 24.75L286.189 15.4375C288.144 14.2292 290.493 13.2917 293.238 12.625C296.025 11.9167 298.79 11.5625 301.535 11.5625ZM301.473 38.5C302.471 38.5 303.365 38.2292 304.155 37.6875C304.945 37.1458 305.527 36.3333 305.902 35.25V32.875H302.408C299.539 32.875 298.104 33.8333 298.104 35.75C298.104 36.5417 298.395 37.2083 298.977 37.75C299.601 38.25 300.433 38.5 301.473 38.5Z" fill="#7289DA"/>
</svg>
