<svg width="66" height="20" viewBox="0 0 66 20" fill="none" xmlns="http://www.w3.org/2000/svg">
<g clip-path="url(#clip0)">
<path d="M4.76482 6.57487L4.76322 2.48108H0V14.7719L2.38161 17.1131L8.93003 17.1139V12.4299H4.76482V11.2589H8.93003V6.57487H4.76482Z" fill="#82899B"/>
<path d="M22.0254 6.57446V12.4295H20.8342V6.57446H16.0774V12.4295H14.8862V6.57446H10.1213V14.7715L12.5029 17.1127L26.7902 17.1135V6.57446H22.0254Z" fill="#82899B"/>
<path d="M27.9812 6.57446H32.746V17.1127H27.9828L27.9812 6.57446Z" fill="#82899B"/>
<path d="M27.9828 2.48071H32.746V5.41136H27.9812L27.9828 2.48071Z" fill="#82899B"/>
<path d="M46.441 6.57446L44.0586 8.91882V14.7715L46.4402 17.1127L53.5882 17.1135V12.4295H48.8234V11.2585H53.5882V6.57446H46.441Z" fill="#82899B"/>
<path d="M63.1097 6.57443H59.5441V2.47986H54.7793V17.1134H59.5361V11.2584H60.7273V17.1134L65.4921 17.1127V8.91879L63.1097 6.57443Z" fill="#82899B"/>
<path d="M38.7021 6.57443L38.6997 2.48064L33.9373 2.47986V14.7714L36.3181 17.1127H42.8673V12.4302L38.7021 12.4294V11.2584H42.8673V6.57443H38.7021Z" fill="#82899B"/>
</g>
<defs>
<clipPath id="clip0">
<rect width="65.4922" height="19.6477" fill="white"/>
</clipPath>
</defs>
</svg>
