<svg width="66" height="15" viewBox="0 0 66 15" fill="none" xmlns="http://www.w3.org/2000/svg">
<g clip-path="url(#clip0)">
<path d="M20.9591 2.26658C20.7184 1.41067 20.0117 0.738057 19.1125 0.508942C17.4826 0.0932617 10.9509 0.0932617 10.9509 0.0932617C10.9509 0.0932617 4.41926 0.0932617 2.79106 0.508942C1.89186 0.738057 1.18522 1.41067 0.944519 2.26658C0.507812 3.81638 0.507812 7.05181 0.507812 7.05181C0.507812 7.05181 0.507812 10.2872 0.944519 11.837C1.18522 12.6929 1.89186 13.3656 2.79106 13.5947C4.41926 14.0104 10.9509 14.0104 10.9509 14.0104C10.9509 14.0104 17.4826 14.0104 19.1108 13.5947C20.01 13.3656 20.7167 12.6929 20.9574 11.837C21.3941 10.2872 21.3941 7.05181 21.3941 7.05181C21.3941 7.05181 21.3941 3.81638 20.9591 2.26658ZM8.86197 10.0336V4.07004L14.2881 7.05181L8.86197 10.0336Z" fill="#82899B"/>
<path d="M30.8262 12.7535C30.4136 12.4884 30.1196 12.076 29.9442 11.5163C29.7705 10.9566 29.6829 10.2136 29.6829 9.28402V8.01898C29.6829 7.08124 29.7826 6.3268 29.982 5.75892C30.1815 5.19104 30.4927 4.77536 30.9156 4.51516C31.3386 4.25495 31.8939 4.12402 32.5816 4.12402C33.259 4.12402 33.8006 4.25658 34.2098 4.5217C34.6173 4.78682 34.9165 5.2025 35.1056 5.76547C35.2947 6.33007 35.3893 7.08124 35.3893 8.01898V9.28402C35.3893 10.2136 35.2964 10.9598 35.1125 11.5228C34.9285 12.0874 34.6293 12.4998 34.2167 12.76C33.8041 13.0202 33.2436 13.1512 32.5369 13.1512C31.8079 13.1528 31.2388 13.0186 30.8262 12.7535ZM33.1404 11.3886C33.2556 11.1038 33.3123 10.6407 33.3123 9.99591V7.2809C33.3123 6.65574 33.2556 6.19751 33.1404 5.90948C33.0252 5.61982 32.8241 5.4758 32.5352 5.4758C32.2567 5.4758 32.059 5.61982 31.9455 5.90948C31.8303 6.19915 31.7736 6.65574 31.7736 7.2809V9.99591C31.7736 10.6407 31.8286 11.1055 31.9386 11.3886C32.0486 11.6734 32.2464 11.8157 32.5352 11.8157C32.8241 11.8157 33.0252 11.6734 33.1404 11.3886Z" fill="#82899B"/>
<path d="M62.5512 9.30532V9.74555C62.5512 10.3052 62.5684 10.7242 62.6027 11.004C62.6371 11.2839 62.7093 11.4868 62.8194 11.6161C62.9294 11.7438 63.0979 11.8076 63.3266 11.8076C63.6343 11.8076 63.8475 11.693 63.961 11.4655C64.0762 11.2381 64.1381 10.8584 64.1484 10.3282L65.9262 10.428C65.9365 10.5033 65.9417 10.608 65.9417 10.7406C65.9417 11.5457 65.7096 12.148 65.2471 12.5457C64.7846 12.9433 64.1295 13.143 63.2836 13.143C62.2675 13.143 61.5557 12.8402 61.1482 12.2331C60.739 11.6259 60.5361 10.6882 60.5361 9.41824V7.89626C60.5361 6.58867 60.7476 5.63293 61.1706 5.03069C61.5935 4.42844 62.3173 4.12732 63.3438 4.12732C64.0504 4.12732 64.5937 4.25006 64.972 4.49718C65.3502 4.74429 65.6167 5.12724 65.7714 5.6493C65.9262 6.17135 66.0036 6.89143 66.0036 7.81116V9.30368H62.5512V9.30532ZM62.8125 5.63784C62.7076 5.76058 62.6389 5.96188 62.6027 6.24172C62.5684 6.52157 62.5512 6.94543 62.5512 7.51495V8.14011H64.059V7.51495C64.059 6.95525 64.0384 6.53139 63.9988 6.24172C63.9593 5.95206 63.8871 5.74913 63.7822 5.62966C63.6773 5.51183 63.5157 5.45128 63.2974 5.45128C63.079 5.45291 62.9157 5.5151 62.8125 5.63784Z" fill="#82899B"/>
<path d="M25.8058 9.14336L23.4607 1.08179H25.5067L26.3285 4.73617C26.5383 5.63627 26.6913 6.4038 26.791 7.03878H26.8512C26.92 6.58382 27.0747 5.82119 27.3137 4.74926L28.1647 1.08179H30.2107L27.8381 9.14336V13.0105H25.8058V9.14336Z" fill="#82899B"/>
<path d="M42.0448 4.29431V13.0105H40.4321L40.2533 11.9435H40.2086C39.7701 12.7487 39.1134 13.1512 38.2365 13.1512C37.6296 13.1512 37.1809 12.9614 36.892 12.5834C36.6032 12.2037 36.4587 11.6113 36.4587 10.8061V4.29431H38.5202V10.6915C38.5202 11.081 38.5649 11.3576 38.6543 11.5229C38.7437 11.6882 38.8933 11.7716 39.1031 11.7716C39.2819 11.7716 39.4538 11.7193 39.6188 11.6145C39.7839 11.5098 39.9043 11.3772 39.9851 11.2169V4.29431H42.0448Z" fill="#82899B"/>
<path d="M52.6168 4.29431V13.0105H51.0041L50.8253 11.9435H50.7806C50.3422 12.7487 49.6854 13.1512 48.8085 13.1512C48.2016 13.1512 47.7529 12.9614 47.464 12.5834C47.1752 12.2037 47.0308 11.6113 47.0308 10.8061V4.29431H49.0922V10.6915C49.0922 11.081 49.1369 11.3576 49.2263 11.5229C49.3157 11.6882 49.4653 11.7716 49.6751 11.7716C49.8539 11.7716 50.0258 11.7193 50.1909 11.6145C50.3559 11.5098 50.4763 11.3772 50.5571 11.2169V4.29431H52.6168Z" fill="#82899B"/>
<path d="M47.6446 2.65941H45.5986V13.0105H43.5819V2.65941H41.5359V1.08179H47.6446V2.65941Z" fill="#82899B"/>
<path d="M59.439 5.68697C59.3135 5.13709 59.1124 4.73941 58.8338 4.4923C58.5553 4.24518 58.1719 4.12244 57.6836 4.12244C57.3054 4.12244 56.9512 4.22391 56.6228 4.42847C56.2944 4.63304 56.04 4.8998 55.8611 5.23201H55.8457V0.639893H53.8599V13.0088H55.562L55.7717 12.184H55.8164C55.9763 12.4786 56.2153 12.7093 56.5334 12.8812C56.8515 13.0514 57.2057 13.1365 57.5942 13.1365C58.2905 13.1365 58.8046 12.8304 59.133 12.22C59.4614 11.608 59.6264 10.6539 59.6264 9.35445V7.97485C59.6264 7.00111 59.5628 6.23848 59.439 5.68697ZM57.5495 9.24316C57.5495 9.87814 57.522 10.3756 57.467 10.7357C57.412 11.0957 57.3208 11.3527 57.1902 11.5032C57.0612 11.6554 56.8859 11.7307 56.6675 11.7307C56.4973 11.7307 56.3408 11.6931 56.1964 11.6161C56.052 11.5409 55.9351 11.4263 55.8457 11.2757V6.32849C55.9144 6.09119 56.0348 5.89808 56.205 5.74588C56.3735 5.59369 56.5592 5.51841 56.7569 5.51841C56.9667 5.51841 57.1283 5.59696 57.2418 5.75243C57.357 5.90954 57.436 6.17138 57.4807 6.54124C57.5254 6.9111 57.5478 7.43643 57.5478 8.11886V9.24316H57.5495Z" fill="#82899B"/>
</g>
<defs>
<clipPath id="clip0">
<rect x="0.507812" y="0.0932617" width="65.4922" height="13.9171" fill="white"/>
</clipPath>
</defs>
</svg>
