<svg width="165" height="25" viewBox="0 0 165 25" fill="none" xmlns="http://www.w3.org/2000/svg">
<path d="M0.0390625 1.344H11.0791C13.5751 1.344 15.7724 1.80267 17.6711 2.72C19.5911 3.616 21.0737 4.90667 22.1191 6.592C23.1857 8.27733 23.7191 10.2613 23.7191 12.544C23.7191 14.8267 23.1857 16.8107 22.1191 18.496C21.0737 20.1813 19.5911 21.4827 17.6711 22.4C15.7724 23.296 13.5751 23.744 11.0791 23.744H0.0390625V1.344ZM10.7591 17.856C12.3804 17.856 13.6711 17.3973 14.6311 16.48C15.6124 15.5413 16.1031 14.2293 16.1031 12.544C16.1031 10.8587 15.6124 9.55733 14.6311 8.64C13.6711 7.70133 12.3804 7.232 10.7591 7.232H7.59106V17.856H10.7591Z" fill="#ECEEF3"/>
<path d="M35.5006 24.064C33.5592 24.064 31.8099 23.68 30.2526 22.912C28.7166 22.1227 27.5112 21.0453 26.6366 19.68C25.7619 18.2933 25.3246 16.7253 25.3246 14.976C25.3246 13.2267 25.7619 11.6693 26.6366 10.304C27.5112 8.91733 28.7166 7.84 30.2526 7.072C31.8099 6.304 33.5592 5.92 35.5006 5.92C37.4632 5.92 39.2126 6.304 40.7486 7.072C42.3059 7.84 43.5112 8.91733 44.3646 10.304C45.2392 11.6693 45.6766 13.2267 45.6766 14.976C45.6766 16.7253 45.2392 18.2933 44.3646 19.68C43.5112 21.0453 42.3059 22.1227 40.7486 22.912C39.2126 23.68 37.4632 24.064 35.5006 24.064ZM35.5006 18.432C36.3326 18.432 37.0152 18.1333 37.5486 17.536C38.0819 16.9173 38.3486 16.064 38.3486 14.976C38.3486 13.888 38.0819 13.0453 37.5486 12.448C37.0152 11.8507 36.3326 11.552 35.5006 11.552C34.6686 11.552 33.9859 11.8507 33.4526 12.448C32.9192 13.0453 32.6526 13.888 32.6526 14.976C32.6526 16.064 32.9192 16.9173 33.4526 17.536C33.9859 18.1333 34.6686 18.432 35.5006 18.432Z" fill="#ECEEF3"/>
<path d="M60.1001 5.92C62.2547 5.92 63.9827 6.57067 65.2841 7.872C66.6067 9.17333 67.2681 11.136 67.2681 13.76V23.744H60.0361V15.008C60.0361 13.0027 59.3214 12 57.8921 12C57.0814 12 56.4201 12.288 55.9081 12.864C55.4174 13.4187 55.1721 14.304 55.1721 15.52V23.744H47.9401V6.24H54.8201V7.968C55.5027 7.28533 56.2921 6.77333 57.1881 6.432C58.0841 6.09067 59.0547 5.92 60.1001 5.92Z" fill="#ECEEF3"/>
<path d="M78.2488 5.92C81.3208 5.92 83.6675 6.61333 85.2888 8C86.9101 9.36533 87.7208 11.4773 87.7208 14.336V23.744H81.0008V21.44C80.1688 23.1893 78.5155 24.064 76.0408 24.064C74.6542 24.064 73.4701 23.8293 72.4888 23.36C71.5288 22.8693 70.7928 22.2187 70.2808 21.408C69.7901 20.576 69.5448 19.648 69.5448 18.624C69.5448 16.896 70.2061 15.584 71.5288 14.688C72.8515 13.792 74.8568 13.344 77.5448 13.344H80.4568C80.2222 11.9787 79.1235 11.296 77.1608 11.296C76.3715 11.296 75.5715 11.424 74.7608 11.68C73.9501 11.9147 73.2568 12.2453 72.6808 12.672L70.3768 7.904C71.3795 7.28533 72.5848 6.80533 73.9928 6.464C75.4221 6.10133 76.8408 5.92 78.2488 5.92ZM78.2168 19.712C78.7288 19.712 79.1875 19.5733 79.5928 19.296C79.9981 19.0187 80.2968 18.6027 80.4888 18.048V16.832H78.6968C77.2248 16.832 76.4888 17.3227 76.4888 18.304C76.4888 18.7093 76.6381 19.0507 76.9368 19.328C77.2568 19.584 77.6835 19.712 78.2168 19.712Z" fill="#ECEEF3"/>
<path d="M103.742 23.136C102.654 23.7547 101.172 24.064 99.2943 24.064C96.841 24.064 94.953 23.4773 93.6303 22.304C92.3076 21.1093 91.6463 19.328 91.6463 16.96V12.48H89.2463V7.2H91.6463V2.304H98.8783V7.2H102.462V12.48H98.8783V16.896C98.8783 17.4293 99.017 17.8453 99.2943 18.144C99.5717 18.4427 99.9343 18.592 100.382 18.592C101.001 18.592 101.545 18.432 102.014 18.112L103.742 23.136Z" fill="#ECEEF3"/>
<path d="M123.72 14.976C123.72 15.0827 123.688 15.648 123.624 16.672H111.464C111.72 17.3333 112.147 17.8453 112.744 18.208C113.342 18.5493 114.088 18.72 114.984 18.72C115.752 18.72 116.392 18.624 116.904 18.432C117.438 18.24 118.014 17.9093 118.632 17.44L122.408 21.248C120.702 23.1253 118.152 24.064 114.76 24.064C112.648 24.064 110.792 23.68 109.192 22.912C107.592 22.1227 106.355 21.0347 105.48 19.648C104.606 18.2613 104.168 16.704 104.168 14.976C104.168 13.2267 104.595 11.6693 105.448 10.304C106.323 8.91733 107.507 7.84 109 7.072C110.515 6.304 112.211 5.92 114.088 5.92C115.859 5.92 117.47 6.272 118.92 6.976C120.392 7.68 121.555 8.71467 122.408 10.08C123.283 11.4453 123.72 13.0773 123.72 14.976ZM114.152 10.848C113.406 10.848 112.787 11.0507 112.296 11.456C111.806 11.8613 111.486 12.4373 111.336 13.184H116.968C116.819 12.4587 116.499 11.8933 116.008 11.488C115.518 11.0613 114.899 10.848 114.152 10.848Z" fill="#ECEEF3"/>
<path d="M126.003 0H133.235V23.744H126.003V0Z" fill="#ECEEF3"/>
<path d="M136.44 0H143.672V23.744H136.44V0Z" fill="#ECEEF3"/>
<path d="M154.718 5.92C157.79 5.92 160.136 6.61333 161.758 8C163.379 9.36533 164.19 11.4773 164.19 14.336V23.744H157.47V21.44C156.638 23.1893 154.984 24.064 152.51 24.064C151.123 24.064 149.939 23.8293 148.958 23.36C147.998 22.8693 147.262 22.2187 146.75 21.408C146.259 20.576 146.014 19.648 146.014 18.624C146.014 16.896 146.675 15.584 147.998 14.688C149.32 13.792 151.326 13.344 154.014 13.344H156.926C156.691 11.9787 155.592 11.296 153.63 11.296C152.84 11.296 152.04 11.424 151.23 11.68C150.419 11.9147 149.726 12.2453 149.15 12.672L146.846 7.904C147.848 7.28533 149.054 6.80533 150.462 6.464C151.891 6.10133 153.31 5.92 154.718 5.92ZM154.686 19.712C155.198 19.712 155.656 19.5733 156.062 19.296C156.467 19.0187 156.766 18.6027 156.958 18.048V16.832H155.166C153.694 16.832 152.958 17.3227 152.958 18.304C152.958 18.7093 153.107 19.0507 153.406 19.328C153.726 19.584 154.152 19.712 154.686 19.712Z" fill="#ECEEF3"/>
</svg>
