<svg width="747" height="488" fill="none" xmlns="http://www.w3.org/2000/svg"><path d="M594.496 234.552h-89.784a6.172 6.172 0 01-6.172-6.176V98.009a6.173 6.173 0 016.172-6.177h89.784a6.173 6.173 0 016.172 6.177v130.367a6.173 6.173 0 01-6.172 6.176z" fill="#ADA8B3"/><path d="M587.758 234.552h-89.784a6.172 6.172 0 01-6.172-6.176V98.009a6.173 6.173 0 016.172-6.177h89.784a6.172 6.172 0 016.171 6.177v130.367a6.16 6.16 0 01-6.171 6.176z" fill="#fff"/><path d="M576.999 217.625V108.783h-68.274v108.842h68.274z" fill="#ADA8B3"/><path opacity=".25" d="M577.012 108.781v4.192h-64.125v104.65h-4.169V108.781h68.294z" fill="#000"/><path d="M540.973 187.026c8.226 0 14.893-10.661 14.893-23.813s-6.667-23.814-14.893-23.814c-8.225 0-14.893 10.662-14.893 23.814s6.668 23.813 14.893 23.813z" fill="#E0E0E0"/><path d="M326.661 116.112H106.36v281.956h220.301V116.112z" fill="#fff"/><path d="M326.661 134.215v263.853H134.588a14.873 14.873 0 01-.081-1.66v-242.45c0-10.894 8.822-19.743 19.729-19.743h172.425z" fill="#E0E0E0"/><path opacity=".25" d="M93.753 162.099v235.969h-104.94c-7.507 0-13.598-6.095-13.598-13.607V148.532h104.94c7.507 0 13.598 6.054 13.598 13.567z" fill="#000"/><path d="M126.13 129.72v254.741c0 7.512-6.091 13.607-13.599 13.607H-11.187c-7.507 0-13.598-6.095-13.598-13.607V129.72c0-7.513 6.09-13.608 13.598-13.608h123.718c7.508 0 13.599 6.095 13.599 13.608z" fill="#C5CAD7"/><path d="M372.656 50.837l23.756-23.773c2.429-2.43 6.354-2.43 8.762 0l25.011 25.029" stroke="#ADA8B3" stroke-width="1.045" stroke-miterlimit="10"/><path d="M480.267 354.572s-8.155-4.678-19.486-3.544c-11.332 1.134-20.397 10.449-20.62 11.34-.223.891 43.506-.02 43.506-.02l-1.194-6.115-2.206-1.661z" fill="url(#paint0_linear)"/><path d="M698.748 339.466c-.243 17.819-2.914 36.773-2.914 36.773s-27.621 2.633-50.325 2.531c-.668 0-1.356 0-2.004-.02-14.873-.162-27.135-1.6-27.297-5.913-.385-10.935-6.435-46.23-6.435-46.23l-.02.02c-1.235 1.053-40.248 34.729-51.297 37.827-4.472 1.255-15.884 1.154-28.046.607h-.141c-18.394-.83-38.427-2.713-38.427-2.713l-2.712-7.492c64.571-6.784 97.19-47.607 109.433-68.019 3.602-5.994 7.811-11.178 11.939-15.491 9.996-10.388 19.668-15.835 19.668-15.835 6.496-.466 12.101-.405 16.917 0 .061.02.121.02.162.02 1.841.162 3.581.385 5.2.628.041 0 .081.02.122.02 8.053 1.235 13.416 3.442 16.755 5.346 3.359 1.903 4.674 3.503 4.674 3.503l10.138 14.62s.162.385.485 1.053c1.963 4.475 9.592 22.234 12.83 38.758 1.092 5.589 1.416 12.697 1.295 20.007z" fill="#1C1D2F"/><path opacity=".25" d="M698.748 339.466c-.243 17.82-2.914 36.773-2.914 36.773s-27.621 2.633-50.325 2.531c-.668 0-1.356 0-2.004-.02 14.489-7.755 32.276-27.458 30.515-49.267-1.983-24.705 0-39.912 0-39.912l24.728 49.895z" fill="#000"/><path d="M716.373 384.359c-9.046 2.714-59.695-5.325-80.436-22.517l-3.399-3.382-6.617-18.387s2.307.466 6.131 1.256c.385.061.769.142 1.154.223l.02.02c14.933 3.058 48.706 10.165 62.608 14.337 0 0-18.172-35.032-20.843-56.457a124.274 124.274 0 01-.607-5.609c-.344-3.462-.89-6.864-1.538-10.064-2.711-13.304-7.365-23.753-7.527-24.117.02 0 .04 0 .061.02.04 0 .081.02.101.02.931.365 4.998 1.985 10.563 5.63 4.613 3.017 10.259 7.411 16.006 13.567 7.386 7.918 14.933 18.771 20.66 33.392 5.342 13.648 8.559 25.798 10.158 36.064 3.238 21.04-.384 34.162-6.495 36.004z" fill="#1C1D2F"/><path opacity=".25" d="M716.373 384.359c-9.046 2.714-59.695-5.325-80.436-22.517l-3.399-3.382-6.617-18.387s2.307.466 6.131 1.256c4.27 8.322 15.298 23.894 39.054 27.175 29.018 4.009 46.885-.952 51.722-20.169 3.278 21.06-.344 34.182-6.455 36.024z" fill="#000"/><path opacity=".25" d="M698.768 359.412c-7.406-.911-53.786-13.142-60.119-15.268-2.368-.79-4.128-1.742-5.423-2.592 14.933 3.057 48.706 10.165 62.608 14.336 0 0-18.172-35.032-20.843-56.456a124.587 124.587 0 01-.607-5.609c8.499 20.553 30.657 66.358 24.384 65.589z" fill="#fff"/><path opacity=".25" d="M692.029 278.859c-5.605 1.255-12.282 3.017-19.203 4.88-17.261 4.637-35.978 9.821-43.02 8.788-10.057-1.498-17.888-14.6-19.305-21.161 9.997-10.388 19.669-15.835 19.669-15.835 6.496-.466 12.101-.405 16.917 0 .061.02.121.02.162.02 1.72.203 3.44.425 5.2.628.041 0 .081.02.122.02 5.362.83 9.53 2.066 12.687 3.382.041 0 .061.02.081.04.041 0 .081.021.101.021a38.437 38.437 0 013.865 1.903c3.359 1.904 4.675 3.503 4.675 3.503l2.003.203c4.654 3.078 10.3 7.452 16.046 13.608z" fill="#000"/><path d="M619.203 251.481s-6.577 22.781 4.229 36.389c10.806 13.607 51.944-20.189 56.355-19.967l8.62 7.27s3.602-49.207-50.102-37.32l-19.102 13.628z" fill="#1C1D2F"/><path opacity=".25" d="M622.683 252.169s2.206 25.333 7.811 28.917c5.605 3.564 43.991-24.441 49.961-23.247 5.969 1.195-7.69-25.696-41.118-17.455l-16.654 11.785z" fill="#000"/><path d="M649.191 264.339c-1.356 6.48-16.613 14.337-17.321 9.194a46.076 46.076 0 00-2.874-10.712 50.066 50.066 0 00-3.784-7.533 55.149 55.149 0 00-1.78-2.754c7.062-1.235 15.115-5.265 19.608-12.17.101.405.242.81.344 1.215.364 1.255.748 2.45 1.113 3.604 2.711 8.343 5.686 14.459 4.694 19.156z" fill="url(#paint1_linear)"/><path d="M603.723 234.937c.931.749 1.963 1.134 3.055 1.134h-6.111c-4.006 0-7.224-5.346-7.224-11.968 0-6.601 3.218-11.967 7.224-11.967h6.111c-1.092 0-2.124.405-3.055 1.134-1.255.931-2.327 2.49-3.056 4.414-.728 1.843-1.133 4.05-1.133 6.399s.405 4.556 1.133 6.399c.729 1.964 1.801 3.523 3.056 4.455z" fill="#0C0C0C"/><path d="M644.416 240.263a1.116 1.116 0 01-.182-.284c-1.66-3.199-1.396-23.166-3.015-22.518-1.72.669-1.194 10.53-8.155 5.61-6.961-4.941-4.938-14.621-7.649-12.069-7.993 7.492-19.041 7.978-19.709 5.771-.668-2.207 8.681-6.115 7.325-6.784-1.356-.688-6.981 3.22-17.18 3.22-.546 0-1.113-.02-1.679-.081-9.673-.749-19.325-7.715-18.212-10.793 1.194-3.24 7.143.344 8.499-2.39.566-1.134-1.781-4.535-4.432-8.18-3.642-5.002-7.871-10.51-6.091-11.705 2.591-1.741 6.172 2.187 8.034 2.37.324.02.587-.061.809-.324 1.356-1.722-4.249-12.252 0-14.965 1.498-.952 2.914-.425 4.533.81 2.914 2.268 6.475 6.865 12.283 9.052 6.677 2.511 21.854 2.693 29.24 2.612h.769c2.145-.02 3.46-.061 3.46-.061 3.501-3.199 18.272-6.399 23.979 10.591.384 1.073.688 2.268.991 3.543 4.756 20.898-11.736 48.6-13.618 46.575z" fill="#1C1D2F"/><path opacity=".25" d="M644.416 240.263a1.116 1.116 0 01-.182-.284c-1.66-3.199-1.397-23.165-3.015-22.517-1.72.668-1.194 10.529-8.155 5.609-6.961-4.941-4.938-14.621-7.649-12.069-7.993 7.492-19.042 7.978-19.709 5.771-.668-2.207 8.681-6.115 7.325-6.784-1.356-.688-6.981 3.22-17.18 3.22-.546 0-1.113-.02-1.679-.081-9.673-.749-19.325-7.715-18.212-10.793 1.194-3.24 7.143.344 8.499-2.389.566-1.134-1.781-4.536-4.432-8.181 3.744 2.43 8.722 4.657 15.136 5.751 18.596 3.179 32.255-7.473 39.702-5.448 5.241 1.438 17.928 4.678 22.178-1.944.384 1.074.688 2.268.991 3.544 4.755 20.918-11.736 48.62-13.618 46.595z" fill="#000"/><path d="M644.234 239.999c-.365.75-.769 1.458-1.214 2.147-4.493 6.905-11.737 12.129-18.799 13.344-1.052.183-2.347-.06-3.743-.567-3.461-1.296-7.569-4.313-10.3-6.723-5.788-5.163-10.583-16.604-13.72-26.83-.91-2.896-1.7-5.67-2.307-8.222.547.061 1.113.081 1.68.081 10.198 0 15.824-3.908 17.18-3.219 1.355.668-7.993 4.596-7.325 6.783.667 2.207 11.716 1.721 19.709-5.771 1.983-1.883 1.436 2.815 3.743 7.391.83 1.701 2.044 3.341 3.906 4.678 6.981 4.941 6.455-4.941 8.154-5.609.972-.405 1.295 6.723 1.72 13.121.304 4.192.668 8.121 1.316 9.396z" fill="url(#paint2_linear)"/><path d="M639.6 205.15s1.072-23.713-21.227-25.657c12.809-1.032 25.051-2.997 29.24 24.016l-8.013 1.641zm20.984 12.494c0 8.1-3.966 14.66-8.863 14.66-1.336 0-2.611-.485-3.744-1.397-1.538-1.134-2.853-3.037-3.743-5.427-.891-2.268-1.397-4.981-1.397-7.857 0-2.875.506-5.588 1.397-7.856.89-2.37 2.205-4.273 3.743-5.427 1.133-.912 2.408-1.398 3.744-1.398 4.876.041 8.863 6.602 8.863 14.702z" fill="#E35A5F"/><path d="M658.297 217.644c0 4.07-2.003 7.371-4.452 7.371-.667 0-1.315-.243-1.881-.709-.769-.567-1.437-1.539-1.882-2.714-.445-1.134-.708-2.49-.708-3.948 0-1.458.263-2.795.708-3.949.445-1.195 1.113-2.146 1.882-2.713.566-.466 1.214-.709 1.881-.709 2.449 0 4.452 3.301 4.452 7.371z" fill="#DD2731"/><path d="M647.977 230.907c1.133.912 2.408 1.398 3.744 1.398h-7.487c-4.897 0-8.863-6.561-8.863-14.661s3.946-14.661 8.863-14.661h7.487c-1.336 0-2.611.486-3.744 1.397-1.538 1.134-2.853 3.058-3.743 5.427-.891 2.268-1.397 4.982-1.397 7.857s.506 5.589 1.397 7.857c.89 2.349 2.205 4.252 3.743 5.386z" fill="#0C0C0C"/><path d="M632.538 358.46c-.567 3.686-7.366 3.341-8.944 1.964-.344-.283-.789-1.275-1.275-2.713-1.821-5.366-4.229-16.807-3.157-18.144 1.356-1.721 7.588 0 7.588 0s6.354 15.208 5.788 18.893z" fill="#121321"/><path d="M622.319 357.711c-3.805 2.551-9.855 5.589-13.619 7.391-2.003.952-3.359 1.559-3.359 1.559l-26.063-7.249s8.398-12.231 16.998-16.321c4.128-1.965 9.571-2.856 14.104-3.24 4.937-.426 8.782-.284 8.782-.284-1.072 1.357 1.336 12.778 3.157 18.144z" fill="url(#paint3_linear)"/><path opacity=".25" d="M608.701 365.102c4.795-10.125 2.873-20.776 1.699-25.251 4.938-.426 8.783-.284 8.783-.284-1.073 1.337 1.335 12.757 3.156 18.144-3.824 2.571-9.875 5.589-13.638 7.391zm1.052-38.474l-.02.02c-1.235 1.053-40.248 34.728-51.297 37.826-4.472 1.256-15.884 1.154-28.046.608 1.194-.021 2.469-.021 3.906-.041 45.893-.385 67.059-60.85 73.251-63.908-1.619 9.194 2.206 25.495 2.206 25.495z" fill="#000"/><path d="M640.247 284.589s-1.942 27.702 2.59 44.894m-17.099-44.894s-4.734 31.549.183 48.721" stroke="#fff" stroke-width="1.045" stroke-miterlimit="10" stroke-linecap="round" stroke-linejoin="round"/><path opacity=".25" d="M629.138 218.393c-15.52 7.816-26.124 6.217-32.68 2.936-.91-2.896-1.7-5.67-2.307-8.221.547.061 1.113.081 1.68.081 10.198 0 15.824-3.908 17.18-3.22 1.355.668-7.993 4.597-7.325 6.784.667 2.207 11.716 1.721 19.709-5.771 1.983-1.843 1.436 2.855 3.743 7.411zm15.359 26.79c-2.631 9.052-10.563 14.843-15.501 17.658a50.114 50.114 0 00-3.784-7.533c6.739-1.519 13.558-6.581 17.828-13.162.121-.162.242-.365.344-.547.344 1.235.728 2.43 1.113 3.584z" fill="#000"/><path d="M617.361 250.853a1.07 1.07 0 01-1.052-.951 1.08 1.08 0 01.931-1.175c18.879-2.065 26.184-19.257 26.265-19.419.223-.547.85-.79 1.376-.567.547.222.789.85.567 1.377-.081.182-7.872 18.528-27.986 20.715-.02.02-.06.02-.101.02z" fill="#E35A5F"/><path d="M515.962 95.538l23.756-23.773c2.428-2.43 6.354-2.43 8.762 0l25.011 25.029" stroke="#ADA8B3" stroke-width="1.045" stroke-miterlimit="10"/><path d="M450.926 191.917h-89.784a6.172 6.172 0 01-6.172-6.176V55.373a6.173 6.173 0 016.172-6.176h89.784a6.173 6.173 0 016.172 6.176v130.368a6.16 6.16 0 01-6.172 6.176z" fill="#ADA8B3"/><path d="M444.208 191.917h-89.784a6.172 6.172 0 01-6.172-6.176V55.373a6.173 6.173 0 016.172-6.176h89.784a6.172 6.172 0 016.171 6.176v130.368c-.02 3.422-2.772 6.176-6.171 6.176z" fill="#C8C4D2"/><path d="M433.446 174.977V66.135h-68.274v108.842h68.274z" fill="#F2F2F3"/><path d="M397.403 144.37c8.226 0 14.894-10.661 14.894-23.813s-6.668-23.814-14.894-23.814c-8.225 0-14.893 10.662-14.893 23.814s6.668 23.813 14.893 23.813z" fill="#E0E0E0"/><path opacity=".05" d="M433.442 66.146v4.192h-64.125v104.65h-4.149V66.146h68.274z" fill="#000"/><path d="M746.057 381.039v34.1c0 5.427-4.391 9.821-9.814 9.821H154.964a9.801 9.801 0 01-9.814-9.821v-34.1a9.797 9.797 0 018.479-9.74v-.02c.445-.061.89-.081 1.335-.081h581.279c5.423 0 9.814 4.414 9.814 9.841z" fill="#F1BDA7"/><path opacity=".25" d="M746.057 407.91v7.209c0 5.426-4.391 9.821-9.814 9.821H154.964a9.802 9.802 0 01-9.814-9.821v-7.209a9.797 9.797 0 018.479-9.74v-.021c.445-.06.89-.081 1.335-.081h581.279c5.423 0 9.814 4.415 9.814 9.842z" fill="#000"/><g opacity=".1" fill="#000"><path opacity=".1" d="M200.514 424.96h-4.593c-8.985-5.305-15.622-13.669-18.394-24.826-1.882-7.472-1.922-15.43-.162-22.943.466-1.944 1.012-4.01 1.781-5.994h2.064c-2.024 4.86-2.772 10.712-2.955 14.944-.364 7.979 1.255 16.139 5.059 23.186 4.068 7.614 10.158 12.494 17.2 15.633zm55.748-7.978c-1.153 2.976-2.772 5.69-4.775 7.978h-3.117c2.145-1.843 3.946-4.253 5.343-7.33 2.448-5.448 2.934-11.523 2.691-17.415-.223-5.711.344-14.134-5.828-16.504-7.588-2.895-19.486-4.374-26.71-.101-7.872 4.657-9.187 15.572-3.825 22.619.83 1.073-1.012 2.146-1.821 1.053-4.513-5.913-4.776-14.276-.668-20.533 4.978-7.513 14.448-8.404 22.603-7.351 5.888.77 15.136 1.316 17.018 8.181 2.448 8.91 2.469 20.756-.911 29.403zm113.136-35.154a29.872 29.872 0 013.865-10.631h2.428c-6.556 10.51-6.758 26.345 5.646 32.561 5.706 2.856 13.234 3.139 18.292-1.215 5.444-4.657 6.132-12.453 5.99-19.095-.04-1.357 2.064-1.357 2.125 0 .303 12.676-5.464 26.264-20.316 24.34-12.911-1.64-19.993-13.628-18.03-25.96zm-10.3 43.132h-7.325c-4.836-1.742-9.45-3.969-13.699-6.946-13.78-9.598-24.788-22.538-38.973-31.771-15.743-10.227-34.218-16.666-53.138-14.054-.729.101-1.214-.445-1.316-.992h24.809c19.77 4.354 37.455 16.767 52.632 30.435 11.109 10.024 21.389 19.339 36.241 23.125.263.081.506.142.769.203zm87.842-37.989c-1.559 13.527-5.687 27.601-17.099 36.004a34.726 34.726 0 01-2.975 1.985h-4.614c6.496-3.119 12.121-7.816 15.824-14.398 6.112-10.894 8.944-26.689 6.496-38.98-.02-.122-.04-.264-.081-.385h2.024c1.032 5.143 1.011 10.631.425 15.774zm-97.211 8.586c-8.661.426-15.945-3.908-22.34-9.375-5.423-4.617-10.461-9.72-15.318-14.985h2.995a292.812 292.812 0 0010.017 10.044c6.839 6.5 14.67 12.676 24.626 12.19 1.376-.061 1.376 2.066.02 2.126zm309.964 7.25c-8.134 13.041-26.528 14.762-40.329 15.916-9.895.83-19.83.952-29.725.425-5.12-.283-10.259-.648-15.339-1.356-2.529-.365-5.362-.729-7.527-2.268-12.849-9.133 11.109-20.574 17.321-22.883a81.008 81.008 0 0124.87-5.001c4.573-.183 12.586-1.053 15.985 3.017 8.58 10.307-22.056 18.832-27.459 19.723-1.335.203-1.902-1.822-.567-2.045 8.074-1.337 16.027-4.111 22.725-8.869a16.875 16.875 0 002.752-2.208c1.032-4.333.081-6.702-2.874-7.107-1.538-.446-3.359-.385-4.978-.426a77.16 77.16 0 00-13.658.77c-7.912 1.154-15.662 3.503-22.866 7.006-3.481 1.701-7.164 3.504-9.794 6.5-3.319 3.787-3.44 8.647 1.942 10.814 1.842.749 4.27.871 6.152 1.093 14.246 1.681 28.694 1.863 43.02.669 13.194-1.074 32.437-2.754 39.317-16.241 7.933-15.632-13.395-21.485-24.242-23.348-14.205-2.43-28.895-2.43-43.222-1.397-46.804 3.341-92.172 20.797-129.304 49.328h-3.379c26.104-20.533 56.295-35.619 88.469-44.083a238.867 238.867 0 0147.715-7.594c16.997-.972 35.796-1.073 52.126 4.516 10.866 3.726 20.134 13.446 12.869 25.049z"/><path opacity=".1" d="M552.102 393.735c-8.255 3.503-14.488 10.307-17.301 18.832-1.214 3.665-2.003 8.383-1.254 12.373h-2.085c-2.225-13.689 7.245-27.783 19.568-33.048 1.255-.526 2.327 1.316 1.072 1.843zm154.334-22.538c-2.792 13.608-7.831 26.871-15.581 37.988-5.504 7.878-13.213 12.555-21.732 15.775h-7.245c5.97-1.6 11.919-3.483 17.038-6.844 7.366-4.8 12.061-12.252 15.865-20.007 4.209-8.586 7.325-17.638 9.349-26.912h2.306zm23.109 0c-1.699 16.706-13.213 32.501-23.27 45.015a163.753 163.753 0 01-7.548 8.748h-2.894a151.785 151.785 0 005.687-6.298c10.805-12.656 24.1-29.828 25.941-47.445h2.084v-.02zm-209.88 0a398.543 398.543 0 00-16.937 8.991 430.812 430.812 0 00-27.762 17.01c-7.447 4.981-14.671 11.056-24.02 11.461-.607.02-.991-.506-1.052-1.053-1.315-13.547 10.846-24.138 13.74-36.429h1.983c-1.761 7.31-6.597 14.033-9.956 20.756-1.518 3.017-2.873 6.196-3.48 9.558-.122.749-.87 4.292-.304 4.799 1.234 1.053 5.706-1.053 6.921-1.56 7.709-3.26 14.508-9.051 21.53-13.567a424.17 424.17 0 0134.683-20.007h4.654v.041zM314.499 424.96h-3.035c-4.148-4.273-8.377-8.485-12.769-12.514-4.694-4.253-10.097-8.445-16.37-9.923-1.558-.364-3.622-.81-5.2-.486-1.538-.101-2.671.749-3.38 2.511-2.65 1.235-3.359 3.098-2.165 5.65.324 2.45.648 4.941.83 7.432.142 2.531.061 5.001-.304 7.33h-2.145c.506-4.01.324-8.1-.182-12.292-.465-3.665-2.145-8.748 1.538-11.319 7.973-5.589 20.316 2.389 26.286 7.371 5.929 4.961 11.473 10.55 16.896 16.24zm-140.048 0h-2.246c-3.622-8.423-10.401-15.531-14.529-23.752-4.674-9.336-5.949-19.805-4.047-29.909v-.021c.445-.06.89-.081 1.336-.081h.87c-2.489 12.555.506 24.786 7.649 35.66 3.925 5.933 8.337 11.644 10.967 18.103z"/></g><path opacity=".1" d="M462.642 381.18H158.586a4.933 4.933 0 01-4.937-4.941 4.933 4.933 0 014.937-4.941h304.056a4.932 4.932 0 014.937 4.941 4.932 4.932 0 01-4.937 4.941z" fill="#000"/><path d="M489.11 354.876s-6.354-.689-7.71 0c-1.355.688 2.267 7.472 2.267 7.472l8.155.02-2.712-7.492z" fill="#121321"/><path d="M395.865 370.853H228.297l-1.68-35.214-1.436-29.848-1.275-26.953-6.01-126.216h135.05l21.47 13.304 21.166 13.061v3.807l.04 28.977.243 159.082z" fill="#fff"/><path d="M238.88 360.282V163.213h111.051l35.068 21.687.263 175.382H238.88z" fill="#272940"/><path opacity=".25" d="M317.919 152.622l-92.738 153.169-1.275-26.953 76.409-126.216h17.604zm77.704 59.149l-96.32 159.082h-17.585l113.864-188.059.041 28.977zm-21.207-45.845L250.354 370.853h-22.057l-1.679-35.214 110.828-183.017h15.501l21.469 13.304z" fill="#fff"/><path d="M221.963 370.853h-59.815a8.147 8.147 0 01-8.155-8.161V160.783a8.147 8.147 0 018.155-8.161h59.815a8.147 8.147 0 018.155 8.161v201.909a8.147 8.147 0 01-8.155 8.161z" fill="#ADA8B3"/><path opacity=".45" d="M186.208 183.807c0 10.145-5.019 18.366-11.211 18.366s-11.21-8.221-11.21-18.366c0-10.146 5.018-18.367 11.21-18.367 6.192 0 11.211 8.221 11.211 18.367zm25.213-11.057h-16.998v9.194h16.998v-9.194zm0 12.919h-16.998v9.174h16.998v-9.174zm.02 144.543h-7.81a4.605 4.605 0 01-4.594-4.597 4.605 4.605 0 014.594-4.597h7.81a4.605 4.605 0 014.594 4.597c-.02 2.551-2.064 4.597-4.594 4.597zm-30.758 0h-7.81a4.605 4.605 0 01-4.594-4.597 4.605 4.605 0 014.594-4.597h7.81a4.605 4.605 0 014.594 4.597 4.592 4.592 0 01-4.594 4.597z" fill="#000"/><path opacity=".25" d="M214.719 225.177h-45.327a3.171 3.171 0 01-3.177-3.18 3.171 3.171 0 013.177-3.179h45.327a3.17 3.17 0 013.177 3.179c-.02 1.762-1.436 3.18-3.177 3.18zm0 23.023h-45.327a3.17 3.17 0 01-3.177-3.179 3.171 3.171 0 013.177-3.179h45.327a3.17 3.17 0 013.177 3.179c-.02 1.762-1.436 3.179-3.177 3.179zm0 23.004h-45.327a3.17 3.17 0 01-3.177-3.179 3.17 3.17 0 013.177-3.179h45.327a3.17 3.17 0 013.177 3.179c-.02 1.762-1.436 3.179-3.177 3.179zm0 23.024h-45.327a3.17 3.17 0 01-3.177-3.179 3.17 3.17 0 013.177-3.179h45.327a3.17 3.17 0 013.177 3.179c-.02 1.762-1.436 3.179-3.177 3.179z" fill="#000"/><path opacity=".45" d="M185.702 346.087a3.906 3.906 0 003.905-3.908 3.907 3.907 0 10-7.811 0 3.907 3.907 0 003.906 3.908zm14.812 0a3.906 3.906 0 003.905-3.908 3.907 3.907 0 10-7.811 0 3.907 3.907 0 003.906 3.908zm18.738-3.908a3.896 3.896 0 01-3.906 3.908 3.896 3.896 0 01-3.905-3.908 3.896 3.896 0 013.905-3.908 3.923 3.923 0 013.906 3.908zm-48.747 3.908a3.906 3.906 0 003.905-3.908 3.907 3.907 0 00-3.905-3.908 3.907 3.907 0 00-3.905 3.908 3.906 3.906 0 003.905 3.908z" fill="#000"/><path d="M126.289 82.15c.196.746-.283 1.492-1.011 1.687l-18.095 4.474c-.745.195-1.49-.284-1.685-1.012l-6.742-27.216a1 1 0 01.32-.994l2.519-2.148c.656-.568.337-1.633-.515-1.74l-2.98-.39a.985.985 0 01-.834-.746L89.55 22.962c-1.047-4.225 4.063-21.588 5.588-21.96.745-.16 13.98 11.77 15.204 16.794l4.328 17.469c.125.461 0 .976-.354 1.313l-3.176 3.232a1.383 1.383 0 00.798 2.343l3.655.515a1.38 1.38 0 011.171 1.047l9.526 38.435z" fill="#C8C4D2"/><path opacity=".25" d="M95.137 1.002l20.739 81.433" stroke="#000" stroke-width="1.045" stroke-miterlimit="10" stroke-linecap="round" stroke-linejoin="round"/><path d="M105.977 102.673a1.399 1.399 0 01-1.916.426L88.378 92.997a1.4 1.4 0 01-.426-1.917l15.151-23.576a.95.95 0 01.94-.444l3.3.355a.995.995 0 00.904-1.58l-1.756-2.432a1.024 1.024 0 01-.035-1.118l17.296-26.95c2.342-3.656 18.486-11.876 19.799-11.006.621.444 1.046 18.25-1.774 22.6l-9.722 15.143c-.266.408-.71.657-1.189.639l-4.523-.089c-1.136-.018-1.828 1.26-1.154 2.202l2.147 3.018c.337.461.355 1.082.035 1.562l-21.394 33.269z" fill="#fff"/><path opacity=".07" d="M143.568 24.294L98.632 95.27" stroke="#000" stroke-width="1.045" stroke-miterlimit="10" stroke-linecap="round" stroke-linejoin="round"/><path d="M136.809 79.239l-3.53 24.854-1.118 7.811c-.39 2.45-2.075 4.208-4.027 4.208H97.958c-1.97 0-3.654-1.758-4.045-4.208l-4.63-32.665c-.514-3.284 1.42-6.356 4.045-6.356h39.437c2.625-.017 4.594 3.072 4.044 6.356z" fill="#fff"/><path opacity=".07" d="M133.297 104.093l-1.118 7.811c-.39 2.45-2.075 4.208-4.027 4.208h-25.936l-.799-5.681c-.532-3.284 1.42-6.338 4.045-6.338h27.835z" fill="#000"/><path d="M136.472 85.044H89.638a7.059 7.059 0 01-7.06-7.066v-1.846a7.059 7.059 0 017.06-7.066h46.834a7.059 7.059 0 017.061 7.066v1.846c.018 3.906-3.158 7.066-7.061 7.066z" fill="#C8C4D2"/><path d="M536.157 174.552v150.455a7.427 7.427 0 01-4.087 6.642 7.368 7.368 0 01-3.339.79H286.737a7.421 7.421 0 01-7.426-7.432V174.552c0-2.916 1.7-5.447 4.168-6.642a7.29 7.29 0 013.258-.769h241.994c4.108 0 7.426 3.321 7.426 7.411z" fill="#343551"/><path d="M525.817 174.552v150.455a7.434 7.434 0 01-7.426 7.432H276.397a7.42 7.42 0 01-7.426-7.432V174.552c0-4.09 3.318-7.411 7.426-7.411h241.994c4.087 0 7.426 3.321 7.426 7.411z" fill="#151623"/><path opacity=".25" d="M507.241 198.143v134.276H276.397a7.42 7.42 0 01-7.426-7.432V190.712h230.824c4.128 0 7.446 3.341 7.446 7.431z" fill="#000"/><path opacity=".25" d="M390.241 260.33h-18.273v72.109h18.273V260.33z" fill="#000"/><path opacity=".3" d="M410.375 234.714h-58.541a6.354 6.354 0 01-6.354-6.358 6.355 6.355 0 016.354-6.359h58.541a6.354 6.354 0 016.354 6.359c-.02 3.503-2.853 6.358-6.354 6.358z" fill="#fff"/><path d="M313.893 314.599h-11.19a2.798 2.798 0 01-2.792-2.794 2.799 2.799 0 012.792-2.795h11.19a2.8 2.8 0 012.793 2.795 2.799 2.799 0 01-2.793 2.794zm21.976 0h-11.19a2.799 2.799 0 01-2.793-2.794 2.8 2.8 0 012.793-2.795h11.19a2.799 2.799 0 012.792 2.795 2.798 2.798 0 01-2.792 2.794zm85.858 0h-11.19a2.799 2.799 0 01-2.793-2.794 2.8 2.8 0 012.793-2.795h11.19a2.799 2.799 0 012.792 2.795 2.798 2.798 0 01-2.792 2.794zm21.975 0h-11.19a2.798 2.798 0 01-2.792-2.794 2.799 2.799 0 012.792-2.795h11.19a2.8 2.8 0 012.793 2.795 2.799 2.799 0 01-2.793 2.794z" fill="#606060"/><path d="M390.241 260.33c0 1.559-.344 3.058-.951 4.374-1.68 3.665-5.342 6.196-9.632 6.196h-23.413v83.308c0 4.961-3.399 9.112-8.013 10.266-.829.203-1.679.324-2.549.324-5.828 0-10.583-4.738-10.583-10.59V260.33c0-5.832 4.735-10.591 10.583-10.591h33.975c5.848 0 10.583 4.739 10.583 10.591z" fill="#33374E"/><path opacity=".25" d="M374.841 249.739c-1.659 3.666-5.321 6.197-9.591 6.197h-13.173c-5.666 0-10.239 4.597-10.239 10.246v73.061a10.56 10.56 0 01-6.718 9.841V260.33c0-5.832 4.735-10.591 10.583-10.591h29.138z" fill="#fff"/><path opacity=".25" d="M389.29 264.704c-1.68 3.665-5.342 6.196-9.632 6.196h-23.412v83.308c0 4.961-3.4 9.112-8.014 10.266v-89.179c0-5.832 4.735-10.591 10.583-10.591h30.475z" fill="#000"/><path d="M416.729 356.577v11.583c0 1.498-1.235 2.713-2.732 2.713h-96.178c-1.498 0-2.732-1.215-2.732-2.713v-11.583c0-1.499 1.234-2.714 2.732-2.714h96.178c1.497 0 2.732 1.215 2.732 2.714z" fill="#202133"/><path opacity=".25" d="M416.729 361.943v6.196c0 1.499-1.235 2.714-2.732 2.714h-96.178c-1.498 0-2.732-1.215-2.732-2.714v-6.196a2.748 2.748 0 012.732-2.734h96.178c1.497.021 2.732 1.236 2.732 2.734z" fill="#000"/><path d="M579.299 359.412h-144.5v11.785h144.5v-11.785z" fill="#343551"/><path d="M548.258 364.798s-20.397-8.991-32.619 16.402c-12.243 25.393 15.399 61.073-16.31 76.645-31.729 15.572-76.59-11.056-85.19-68.221-8.621-57.165-7.751-77.799 2.023-77.799m-85.899-.02s-12.97-6.581-15.783 11.441c-2.793 18.022 7.386 81.545-35.169 94.667-51.823 15.957-67.222-35.68-76.388-58.704-9.167-23.024-3.4-33.25 5.099-33.594" stroke="#E35A5F" stroke-width="1.045" stroke-miterlimit="10" stroke-linecap="round" stroke-linejoin="round"/><path d="M308.288 311.805s-28.552-12.859-39.317 28.268-18.01 106.878-57.448 100.074c-39.419-6.804-55.283-99.77-25.841-97.948" stroke="#00B1FF" stroke-width="1.045" stroke-miterlimit="10" stroke-linecap="round" stroke-linejoin="round"/><path opacity=".25" d="M282.69 167.141v23.571h-13.699v-16.16c0-4.09 3.319-7.411 7.427-7.411h6.272z" fill="#000"/><path d="M634.845 364.474l-55.829-5.062v11.785h55.829v-6.723z" fill="#161728"/><path d="M144.544 478.115c-12.202 12.211-31.992 12.211-44.194 0l-86.324-86.364c-12.201-12.211-12.201-32.015 0-44.226 12.202-12.21 31.992-12.21 44.194 0l86.304 86.365c12.222 12.211 12.222 32.015.02 44.225z" fill="#DADDE6"/><defs><linearGradient id="paint0_linear" x1="423.495" y1="364.024" x2="507.788" y2="351.344" gradientUnits="userSpaceOnUse"><stop stop-color="#FFC5C1"/><stop offset="1" stop-color="#E27491"/></linearGradient><linearGradient id="paint1_linear" x1="622.742" y1="298.054" x2="646.564" y2="228.68" gradientUnits="userSpaceOnUse"><stop stop-color="#FFC5C1"/><stop offset="1" stop-color="#E27491"/></linearGradient><linearGradient id="paint2_linear" x1="607.518" y1="244.368" x2="640.179" y2="195.071" gradientUnits="userSpaceOnUse"><stop stop-color="#FFC5C1"/><stop offset="1" stop-color="#E27491"/></linearGradient><linearGradient id="paint3_linear" x1="569.809" y1="365.31" x2="654.111" y2="336.776" gradientUnits="userSpaceOnUse"><stop stop-color="#FFC5C1"/><stop offset="1" stop-color="#E27491"/></linearGradient></defs></svg>