<svg width="359" height="432" fill="none" xmlns="http://www.w3.org/2000/svg"><path d="M352.459 210.311h-89.784a6.172 6.172 0 01-6.172-6.176V73.767a6.173 6.173 0 016.172-6.176h89.784a6.172 6.172 0 016.171 6.176v130.368a6.172 6.172 0 01-6.171 6.176z" fill="#AAB6E3"/><path d="M345.72 210.311h-89.784a6.172 6.172 0 01-6.171-6.176V73.767a6.172 6.172 0 016.171-6.176h89.784c3.4 0 6.172 2.754 6.172 6.176v130.368a6.16 6.16 0 01-6.172 6.176z" fill="#B9C2E6"/><path d="M334.961 193.384V84.542h-68.273v108.842h68.273z" fill="#AAB6E3"/><path opacity=".25" d="M334.975 84.54v4.192H270.85v104.65h-4.169V84.54h68.294z" fill="#879CD0"/><path d="M298.936 162.785c8.225 0 14.893-10.662 14.893-23.814s-6.668-23.814-14.893-23.814c-8.225 0-14.893 10.662-14.893 23.814s6.668 23.814 14.893 23.814z" fill="#7E92DC"/><path d="M130.619 26.596l23.756-23.774c2.429-2.43 6.354-2.43 8.762 0l25.011 25.03m85.778 43.445l23.756-23.773c2.428-2.43 6.354-2.43 8.762 0l25.011 25.028" stroke="#AAB6E3" stroke-width="1.045" stroke-miterlimit="10"/><path d="M208.889 167.675h-89.784a6.172 6.172 0 01-6.172-6.176V31.132a6.173 6.173 0 016.172-6.177h89.784a6.173 6.173 0 016.172 6.177v130.367a6.16 6.16 0 01-6.172 6.176z" fill="#AAB6E3"/><path d="M202.171 167.675h-89.784a6.172 6.172 0 01-6.172-6.176V31.132a6.173 6.173 0 016.172-6.177h89.784a6.172 6.172 0 016.171 6.177v130.367c-.02 3.422-2.772 6.176-6.171 6.176z" fill="#6B81D0"/><path d="M191.409 150.736V41.894h-68.274v108.842h68.274z" fill="#7289DA"/><path d="M155.366 120.129c8.226 0 14.893-10.662 14.893-23.814s-6.667-23.813-14.893-23.813c-8.225 0-14.893 10.661-14.893 23.813s6.668 23.814 14.893 23.814z" fill="#7E92DC"/><path opacity=".05" d="M191.405 41.904v4.192H127.28v104.65h-4.149V41.904h68.274z" fill="#879CD0"/><path d="M351.215 359.979s-4.803 27.486-43.385 49.445c-.989.582-2.038 1.141-3.075 1.712-13.218 7.109-30.155 13.505-51.835 18.07a124.458 124.458 0 01-15.006 2.2c-.906.083-1.8.154-2.706.214-33.838 2.365-72.646-6.931-108.975-22.541a63.41 63.41 0 01-1.573-.666c-41.299-17.952-79.237-43.94-102.908-70.083a30.73 30.73 0 01-1.215-1.344c-9.38-10.557-16.4-21.126-20.322-31.171l8.26-5.659 3.29-2.259 42.145-28.89h.012l1.835-1.272L71.43 257l47.187 3.329 4.172.285 75.077 5.302 9.797.69h.012l32.301 2.271 1.716.119 57.628 4.077.56.036 1.859.143 20 1.391v.012l1.895.118 4.494.321 10.489.738 3.647 24.335.262 1.796 1.8 11.936.322 2.187 6.567 43.893z" fill="#B58E7D"/><path d="M336.075 308.93l-70.85-.93-26.17 39.65 43.15-2.55 43.69-.57 10.18-35.6z" fill="#343551"/><path opacity=".25" d="M277.695 311.74h49.17l-6.52 24.87-56.97.51 14.32-25.38zm34.64 27.14h6.97l-.92 3.52-8.08.08 2.03-3.6z" fill="#fff"/><path opacity=".25" d="M312.985 331.12h6.97l-.92 3.53-8.08.07 2.03-3.6zm-12.55 0h6.98l-.93 3.53-8.08.07 2.03-3.6zm-10.13 0h6.98l-.93 3.53-8.08.07 2.03-3.6zm8.53-5.09h6.98l-.93 3.52-8.08.08 2.03-3.6zm-11.37-.19h6.98l-.93 3.53-8.08.07 2.03-3.6zm6.89-4.58h6.97l-.92 3.53-8.09.07 2.04-3.6zm-8.7-.43h6.98l-.93 3.53-8.08.07 2.03-3.6zm14.14-4.24h6.97l-.92 3.52-8.09.08 2.04-3.6zm-2.93-4.15h6.98l-.93 3.53-8.08.07 2.03-3.6zm-7.27 4.15h6.98l-.93 3.52-8.08.08 2.03-3.6zm15.35 4.24h6.97l-.92 3.53-8.08.07 2.03-3.6zm-4.51 18.05h6.98l-.93 3.52-8.08.08 2.03-3.6zm-11.89 0h6.97l-.92 3.52-8.08.08 2.03-3.6z" fill="#fff"/><path d="M198.215 346.2l127.68-1.67 2.64 12.39h-130.32V346.2z" fill="#1C1D2F"/><path d="M325.895 344.53l10.18-35.6.53 5.68-8.07 42.31-2.64-12.39z" fill="#343551"/><path d="M312.435 352.63s3.88 18.86-20.37 23.61c-24.24 4.76-45.92 3.35-54.9 34.02" stroke="#E35A5F" stroke-width="1.05" stroke-miterlimit="10" stroke-linecap="round" stroke-linejoin="round"/><path d="M302.21 141.393a17.095 17.095 0 00-3.526 1.576c-13.45 7.867-19.641 33.935-13.466 56.055a.231.231 0 01.016.095 46.94 46.94 0 001.611 4.873c.064.207.096.303.096.303s0 .015.016.047c.016.096.064.191.111.287.208.541.671 1.672 1.436 3.408.447.939.942 1.895 1.436 2.818-.015.096-.015.191-.047.303-1.612 10.415.047 61.15.047 61.15l-39.378 4.411-88.443 9.889s-.797-29.046.447-59.35c.351-8.504-1.707-17.485-4.834-25.989-7.978-21.801-23.072-40.528-23.072-40.528l.063-.064c13.515-15.685 37.018-26.355 43.831-29.237 1.212-.525 1.899-.78 1.899-.78l.989-.287 33.156-9.618s6.573-.35 13.658-1.115c2.218-.239 6.015-.111 11.568.749 4.547.7 10.275 1.958 17.248 3.965 10.419 2.946 23.614 7.612 39.905 14.714.574.239 1.133.494 1.707.732 1.165.526 2.346 1.052 3.526 1.593z" fill="url(#paint0_linear)"/><path opacity=".25" d="M296.913 139.052c-4.547 2.293-16.69 10.542-18.508 32.565-2.25 27.231-8.999 97.761-24.764 103.191-1.659.573-2.648 1.178-3.095 1.847l39.379-4.411s-1.66-50.735-.048-61.15c.016-.111.016-.207.048-.302a57.8 57.8 0 01-1.436-2.819c-.782-1.72-1.229-2.85-1.436-3.408a1.06 1.06 0 01-.112-.286c-.016-.016-.016-.048-.016-.048s-.016-.096-.096-.303a45.716 45.716 0 01-1.611-4.873c0-.016 0-.047-.016-.095a37.638 37.638 0 01-.782-3.281c-.016-.047-.016-.111-.016-.159-4.053-20.59 5.473-45.369 17.471-54.016.096-.063.192-.143.256-.159l-5.218-2.293z" fill="#10101A"/><path d="M157.779 201.269a1400.434 1400.434 0 01-12.525 17.931l-32.039-19.555 21.396-38.952s.048 0 .112-.016l-.064.064s15.094 18.727 23.12 40.528z" fill="#303449"/><path opacity=".25" d="M257.039 124.322c-9.445 14.507-22.274 47.311-38.644 47.311-19.674 0-22.083-16.211-29.471-27.947-4.1-6.497-7.85-10.255-10.419-12.31 1.213-.525 1.899-.78 1.899-.78l.989-.286 33.156-9.619s6.574-.35 13.658-1.115c2.218-.238 6.016-.111 11.568.749 4.548.732 10.276 1.99 17.264 3.997z" fill="#10101A"/><path d="M239.792 120.357c-3.686 9.093-7.723 45.321-24.923 45.464-18.03.159-23.758-30.83-33.459-35.496l33.156-9.618s6.573-.35 13.658-1.115c2.218-.239 5.999-.111 11.568.765z" fill="#303449"/><path d="M170.671 101.9c-1.516.797-4.148 1.863-5.584.43-.527-.525-1.42-2.532-2.537-5.287-2.218-5.669-5.202-14.523-6.941-20.096-.83-2.74-1.372-4.682-1.372-5.048 0-.621.303-1.02.686-1.306 1.372.573 2.744.923 4.116 1.162 1.436 4.825 5.776 18.839 11.632 30.145z" fill="#DD2731"/><path d="M162.566 97.043s-4.069.94-4.787.526c-.702-.43-5.488-12.772-5.887-15.83-.431-3.04 3.733-4.792 3.733-4.792 1.723 5.557 4.707 14.427 6.941 20.096z" fill="#E35A5F"/><path d="M243.27 35.097c1.595 12.135-10.994 47.44-15.86 63.364-1.101 3.614-1.819 6.242-1.867 7.357a29.596 29.596 0 01-.399-2.946 9.736 9.736 0 01-.048-.94c-.032-.796-.048-1.545-.08-2.23-.015-.127-.015-.238-.031-.35a65.08 65.08 0 00.941-3.216c.399-2.134.941-4.332 1.452-6.466v-.047c.526-2.437 1.005-4.842 1.181-7.166.032-.032.032-.08.032-.128.079-.685.079-1.37.079-2.054-.143-8.122 1.676-29.046 1.676-29.046s-.383.175-1.053.493c-.288.112-.639.287-1.038.446a4.23 4.23 0 01-.478.175 5.97 5.97 0 01-1.021.446c-.08.048-.176.08-.256.128.686 2.038.846 4.777-2.537 5.876-5.712 1.895-1.755 19.523-5.967 15.877-2.92-2.532-4.037-12.549-4.404-17.438-.287.048-.542.128-.798.16-7.451 1.385-31.496 9.395-37.4 23.44-3.015-4.236 2.777-12.883 3.064-13.313-.096.064-.766.478-1.851 1.035l-.016.016c-2.505 1.258-7.276 3.265-12.781 3.456h-.079a13.32 13.32 0 01-1.596 0c1.245 5.717 4.053 18.663 4.356 20.766v.031c.303 2.294-8.504-13.806-11.073-22.087-.144-.08-.319-.095-.447-.175-1.771-.685-3.526-1.656-5.249-2.978-3-2.293-5.856-5.653-8.361-10.462-8.17-15.574-6.606-29.875-6.606-29.875s7.164 4.157 16.498 3.122a26.483 26.483 0 009.925-3.121c-5.633-1.418-4.244-8.154-4.244-8.154s2.967 3.52 11.807.844c8.871-2.66 37.671-24.985 56.802-1.847-1.245-7.564-8.281-13.042-8.281-13.042s6.318-.988 8.855 3.917c2.537 4.905 1.692 10.813 1.692 10.813s5.76-9.969 17.87-.287c-10.419-.573-14.2 1.959-14.2 1.959s9.828-1.194 11.791 13.647z" fill="#1C1D2F"/><path d="M228.638 80.29c0 .686 0 1.37-.064 2.055 0 .048 0 .096-.016.112a347.18 347.18 0 01-1.18 7.15v.047c-.495 2.15-1.037 4.348-1.436 6.466a88.732 88.732 0 01-.942 3.216c-.59 1.848-1.26 3.536-1.946 5.128-1.899 4.395-4.117 7.883-6.367 10.654l-.303.35c-5.153 6.21-10.435 8.567-12.445 8.806-2.649.287-6.702.478-13.068-2.532-2.84-1.322-6.111-3.28-9.94-6.115-3.686-2.739-7.148-7.882-10.228-13.743-1.516-2.898-2.936-6.003-4.212-9.077v-.016c-.016-.111-.048-.286-.064-.493 0-.016 0-.048-.016-.064-.542-3.073-2.888-13.838-4.101-19.444-.063-.254-.111-.525-.159-.748 8.903.302 16.323-4.507 16.323-4.507s-1.325 1.911-2.442 4.411c-1.308 2.899-2.297 6.561-.638 8.902 1.42-3.408 3.909-6.45 6.989-9.093 9.589-8.44 24.763-13.28 30.411-14.332.256-.047.527-.111.798-.159.383 4.889 1.484 14.905 4.404 17.437 4.212 3.631.255-13.981 5.967-15.876 3.383-1.115 3.223-3.854 2.537-5.877.096-.047.192-.063.255-.11.383-.144.703-.288 1.022-.447.159-.048.335-.111.478-.19.399-.16.75-.335 1.037-.447.687-.302 1.069-.493 1.069-.493s-1.866 20.908-1.723 29.03z" fill="url(#paint1_linear)"/><path d="M225.607 137.046c-1.021 5.334-2.729 11.879-4.994 16.418-1.708 3.376-3.686 5.669-5.968 5.557-7.802-.43-17.088-15.988-18.987-21.052-.83-2.166-1.963-5.971-3-9.618-.686-2.453-1.356-4.841-1.819-6.593 2.681 1.258 4.947 1.959 6.861 2.309 2.649.526 4.659.382 6.207.207 3.271-.35 14.982-6.306 21.062-24.938.047.781.063 1.625.111 2.58 0 .303.016.621.048.94.399 9.077 1.085 23.218 1.484 25.208.207.956-.16 4.57-1.005 8.982z" fill="url(#paint2_linear)"/><g opacity=".25"><path opacity=".25" d="M162.103 72.042c8.903.302 16.323-4.507 16.323-4.507s-1.325 1.911-2.442 4.411c-5.297.24-10.179.574-13.721.844-.064-.254-.112-.51-.16-.748z" fill="#10101A"/><path opacity=".25" d="M228.638 80.29c0 .686 0 1.37-.064 2.055 0 .048 0 .096-.016.112a347.068 347.068 0 01-1.18 7.15v.047c-.495 2.15-1.037 4.348-1.436 6.466a88.732 88.732 0 01-.942 3.216c-.59 1.848-1.26 3.536-1.946 5.128.016-13.981-4.356-24.396-11.76-29.46-4.371-2.978-16.929-3.52-28.927-3.265 9.589-8.44 24.763-13.28 30.411-14.332.256-.047.527-.111.798-.159.383 4.889 1.484 14.905 4.404 17.437 4.212 3.631.255-13.981 5.967-15.876 3.383-1.115 3.223-3.854 2.537-5.876.096-.048.192-.064.255-.112a10.29 10.29 0 001.022-.446 2.49 2.49 0 00.478-.19c.399-.16.75-.335 1.037-.447.687-.302 1.069-.493 1.069-.493s-1.85 20.924-1.707 29.046z" fill="#B98286"/></g><path opacity=".25" d="M216.352 115.484c-5.153 6.21-10.435 8.567-12.445 8.806-2.649.287-6.702.478-13.068-2.532-2.84-1.322-6.111-3.28-9.94-6.115-3.686-2.739-7.148-7.883-10.228-13.743-1.516-2.898-2.936-6.003-4.212-9.077v-.016c-.016-.111-.048-.286-.064-.493 3.462 7.023 8.632 15.001 15.956 19.985 15.237 10.383 25.513 13.058 34.001 3.185z" fill="#fff"/><path opacity=".25" d="M225.607 137.046c-7.691-4.396-19.482-9.491-27.907-12.963 2.649.526 4.659.382 6.207.207 3.271-.35 14.982-6.306 21.061-24.938.048.781.064 1.625.112 2.58 0 .303.016.621.048.94.399 9.077 1.085 23.218 1.484 25.208.207.94-.16 4.554-1.005 8.966z" fill="#10101A"/><path opacity=".25" d="M220.613 153.464c-1.708 3.376-3.686 5.669-5.968 5.557-7.802-.43-17.088-15.988-18.987-21.052-.83-2.166-1.963-5.972-3-9.618 3.861 9.22 15.557 33.728 27.955 25.113z" fill="#fff"/><path opacity=".25" d="M243.27 35.097c1.595 12.135-10.994 47.44-15.86 63.364-.926.477-1.739.891-2.409 1.242-.016-.128-.016-.24-.032-.35a65.08 65.08 0 00.941-3.217c.399-2.134.941-4.332 1.452-6.466v-.047c.527-2.437 1.005-4.842 1.181-7.166.032-.032.032-.08.032-.128.079-.685.079-1.37.079-2.054-.143-8.122 1.676-29.046 1.676-29.046s-.383.175-1.053.493c-.287.112-.638.287-1.037.446a4.248 4.248 0 01-.479.175 5.97 5.97 0 01-1.021.446c-.08.048-.176.08-.256.128.687 2.038.846 4.777-2.536 5.876-5.713 1.895-1.756 19.523-5.968 15.877-2.92-2.532-4.037-12.549-4.404-17.438-.287.048-.542.128-.797.16-7.452 1.385-31.497 9.395-37.401 23.44 0 0 2.154-16.227 19.323-24.523 17.168-8.313 12.477-24.142 12.477-24.142l7.547 4.682s-.526-17.15-14.312-21.036c17.679-1.29 29.39 12.723 29.39 12.723s-6.27-16.736 15.86-9.029c-10.419-.573-14.2 1.959-14.2 1.959s9.844-1.21 11.807 13.631z" fill="#0C0C0C"/><path d="M225.271 50.464S215.108 6.417 173.655 17.82c3.813-6.704 14.631-10.494 28.417-7.261 13.786 3.232 27.811 21.61 30.427 37.948l-7.228 1.958z" fill="#E35A5F"/><path d="M239.313 89.384c-1.022.143-2.091-.207-3.096-1.035-3.319-2.596-6.43-9.714-7.738-18.361-1.277-8.663-.335-16.387 2.106-19.81.734-1.067 1.627-1.72 2.648-1.863 4.308-.637 9.159 8.057 10.834 19.395 1.676 11.323-.446 21.037-4.754 21.674z" fill="#FEBFBB"/><path d="M239.313 89.384l-5.744.844c-4.308.637-9.159-8.058-10.818-19.396-1.676-11.354.446-21.068 4.755-21.705l5.728-.828c-1.022.143-1.915.796-2.649 1.863-2.441 3.424-3.383 11.147-2.106 19.81 1.308 8.647 4.42 15.749 7.738 18.36 1.006.845 2.075 1.195 3.096 1.052z" fill="#DD2731"/><path d="M246.173 81.708l-4.85.733c-2.856.398-6.064-5.335-7.164-12.82-1.117-7.516.303-13.933 3.143-14.363l4.882-.701c-.877.143-1.627.844-2.202 1.99-.893 1.768-1.372 4.603-1.324 7.915a31.4 31.4 0 00.383 4.443c.239 1.576.542 3.073.941 4.443.894 3.169 2.17 5.717 3.558 7.134.83.892 1.756 1.37 2.633 1.226z" fill="#E35A5F"/><path d="M246.173 81.708c-.878.143-1.803-.334-2.649-1.258-1.372-1.417-2.648-3.965-3.558-7.134-.399-1.37-.702-2.85-.941-4.443a33.73 33.73 0 01-.383-4.443c-.048-3.312.431-6.147 1.324-7.914.575-1.131 1.325-1.848 2.202-1.991 2.84-.43 6.063 5.319 7.148 12.82 1.117 7.531-.271 13.965-3.143 14.363z" fill="#E35A5F"/><path d="M342.243 214.566s-.336.143-.942.43a167.451 167.451 0 00-5.185 2.532c-8.457 4.267-23.312 12.819-29.199 22.326a19.853 19.853 0 00-.942 1.672 315.778 315.778 0 01-3.462-6.099c-6.159-10.956-10.18-19.11-12.621-24.333.016-.111.016-.207.048-.302a58.24 58.24 0 01-1.436-2.819c-.782-1.72-1.229-2.85-1.436-3.408a1.06 1.06 0 01-.112-.286c-.016-.016-.016-.048-.016-.048s-.016-.096-.096-.303c-.239-.685-.829-2.484-1.611-4.873 0-.016 0-.047-.016-.095-6.701-23.982 1.165-52.599 16.993-57.631 0 0 7.164 1.131 16.657 18.393 7.212 13.138 17.009 38.028 21.269 49.175a683.896 683.896 0 002.107 5.669z" fill="#303449"/><path d="M344.253 231.955c-.287 4.587-1.213 9.284-2.537 13.966-5.617 19.651-18.11 38.617-17.296 44.334 3.047 10.621-1.468 32.406-2.537 37.677a14.212 14.212 0 01-.75 2.58c-1.165 2.723-2.728 2.787-2.728 2.787s-.399.844-1.261 2.038v.048a21.964 21.964 0 01-2.696 3.216c-.495.494-1.038.988-1.628 1.434-.287.78-.782 1.465-1.356 2.102-.431.477-.926.923-1.42 1.305-1.564 1.258-3.143 1.959-3.143 1.959l-.016.048c-.399.525-4.516 5.78-6.813 2.484-2.442-3.471-4.42-37.55-4.42-37.55s-6.351 11.147-7.595 11.243c-1.261.095-1.675-8.838-.734-12.517.303-1.178 1.181-2.643 2.298-4.236v-.016c2.345-3.312 5.648-7.15 6.797-10.032 1.372-3.456 7.387-37.136 9.653-49.987.351-2.054.622-3.583.75-4.363v-.016l.096-.573c1.707-2.771 4.196-5.431 7.036-7.963 6.957-6.146 16.195-11.338 22.178-14.363a151.724 151.724 0 015.186-2.532c2.505 5.143 3.287 10.924 2.936 16.927z" fill="#F4A6AE"/><path d="M342.242 214.566s-.335.143-.941.43a168.36 168.36 0 00-5.186 2.532c-8.456 4.268-23.311 12.819-29.199 22.326-.351.573-.67 1.115-.941 1.672a310.572 310.572 0 01-3.462-6.099c3.925-6.45 15.461-21.896 37.607-26.498 1.309 3.487 2.122 5.637 2.122 5.637z" fill="url(#paint3_linear)"/><path opacity=".65" d="M344.253 231.955c-.287 4.587-1.212 9.284-2.537 13.966-.335-8.52-4.611-12.692-13.403-12.405-9.27.287-17.296 4.315-21.508 6.895l.096-.573c1.707-2.771 4.196-5.43 7.036-7.962 6.957-6.147 16.195-11.339 22.179-14.364a152.922 152.922 0 015.185-2.532c2.521 5.191 3.303 10.972 2.952 16.975z" fill="#B4757F"/><path d="M155.922 415.04c-.782.301-1.577.528-2.371.666-11.992 2.313-65.243-15.965-67.11-32.911 0 0 2.598-4.865 7.327-10.308 3.96-4.564 9.445-9.542 16.128-12.383 14.627-6.21 56.656 6.751 60.653 21.031 3.745 13.338-3.858 29.857-14.627 33.905z" fill="#1C1D2F"/><path opacity=".25" d="M155.922 415.04c-.782.301-1.577.528-2.371.666-11.992 2.313-65.243-15.965-67.11-32.911 0 0 2.598-4.865 7.327-10.308 9.47-4.488 26.846-10.145 44.777-2.54 20.29 8.599 19.092 33.628 17.377 45.093z" fill="#1C1D2F"/><path d="M267.544 200.024c-11.563 12.132-140.6 17.298-220.105-23.822-10.1-5.217-19.394-11.188-27.54-17.964a114.047 114.047 0 01-9.684-9.038s6.343-3.005 8.348-1.999c.82.402 6.28 5.67 17.716 12.797 4.515 2.804 9.937 5.896 16.393 9.102 16.633 8.246 40.024 17.184 71.549 23.621 59.783 12.219 119.818 5.594 138.141 6.411 2.622.138 4.375.415 5.182.892z" fill="#1C1D2F"/><path d="M273.71 326.426c-.365 4.79-.958 8.511-1.815 10.761-4.212 11.038-57.728 27.858-118.281 21.559h-.025a253.013 253.013 0 01-5.309-.615c-.895-.114-1.778-.214-2.673-.352a50.5 50.5 0 01-1.879-.264c-.555-.076-1.097-.164-1.652-.239a138.91 138.91 0 01-2.194-.352c-.694-.113-1.387-.214-2.081-.34-.643-.113-1.311-.213-1.954-.352-.933-.163-1.879-.339-2.825-.515-1.046-.201-2.093-.402-3.14-.641a192.522 192.522 0 01-7.528-1.685c-1.223-.301-2.446-.603-3.657-.905a7.53 7.53 0 01-.113-.038 195.443 195.443 0 01-3.632-.98c-.038-.013-.101-.025-.138-.038-1.413-.39-2.8-.804-4.212-1.232a194.433 194.433 0 01-6.835-2.2h-.012c-25.41-8.686-50.074-22.678-70.969-44.036C14.553 272.924 10.215 149.2 10.215 149.2a114.047 114.047 0 009.684 9.038c8.146 6.789 17.44 12.748 27.54 17.965 79.505 41.119 208.542 35.953 220.105 23.822 0 0 8.84 91.605 6.166 126.401z" fill="url(#paint4_linear)"/><path opacity=".25" d="M153.589 358.734c-14.123-1.458-28.637-4.199-43-8.536l-1.538-52.622s-1.665-4.325 2.837-6.638c4.489-2.325 10.832.491 12.156 9.303 1.337 8.8 14.741 53.025 29.545 58.493z" fill="#1C1D2F"/><path d="M135.443 381.261c-.416 2.401-1.248 4.4-2.433 6.022-4.036 5.556-12.005 6.763-19.382 5.053-9.205-2.149-12.433-73.729-10.806-86.224.037-.428.113-.78.164-1.069 2.005-8.636 8.234-11.741 8.234-11.741s8.89-1.107 8.89 9.755c-1.11 2.891-3.783 3.985-4.439 6.864-.668 2.878 21.55 60.705 19.772 71.34z" fill="url(#paint5_linear)"/><path opacity=".3" d="M79.228 215.914s39.053 19.008 88.522 15.588" stroke="#B3B3B6" stroke-width="11" stroke-miterlimit="10" stroke-linecap="round" stroke-linejoin="round"/><path opacity=".25" d="M133.01 387.283c-4.036 5.556-12.005 6.763-19.382 5.053-9.205-2.149-12.433-73.729-10.806-86.224 1.172.59 2.673 2.665 4.224 8.322 3.329 12.219 11.172 71.541 25.346 72.773.201.013.416.038.618.076z" fill="#1C1D2F"/><path d="M92.159 330.461l-10.36-4.231a2.8 2.8 0 01-1.528-3.643 2.798 2.798 0 013.642-1.531l10.36 4.232a2.798 2.798 0 011.528 3.642 2.798 2.798 0 01-3.642 1.531zm-22-10l-10.36-4.231a2.8 2.8 0 01-1.528-3.643 2.798 2.798 0 013.642-1.531l10.36 4.232a2.798 2.798 0 011.528 3.642 2.798 2.798 0 01-3.642 1.531z" fill="#606060"/><path d="M88.13 326.301s-7.25 1.684-3.24 23.281c3.998 21.597 14.338 44.2-3.67 53.163M65.624 316s-8.41 2.553-8.41 14.665c0 12.112 29 54.335-4.5 74.835" stroke="#E3595D" stroke-width="1.483" stroke-miterlimit="10" stroke-linecap="round" stroke-linejoin="round"/><path d="M185.197 339.589h-11.19a2.799 2.799 0 01-2.792-2.795 2.798 2.798 0 012.792-2.794h11.19a2.799 2.799 0 012.793 2.794 2.8 2.8 0 01-2.793 2.795zm29.307-2.726l-11.101 1.408a2.8 2.8 0 01-3.122-2.421 2.8 2.8 0 012.419-3.124l11.101-1.408a2.8 2.8 0 013.122 2.421 2.8 2.8 0 01-2.419 3.124z" fill="#606060"/><path d="M193.215 411.5c-28.5-36-23.356-74.685-13.582-74.685" stroke="#E35A5F" stroke-width="1.045" stroke-miterlimit="10" stroke-linecap="round" stroke-linejoin="round"/><defs><linearGradient id="paint0_linear" x1="222.145" y1="281.976" x2="216.745" y2="90.531" gradientUnits="userSpaceOnUse"><stop stop-color="#1C1D2F"/></linearGradient><linearGradient id="paint1_linear" x1="208.195" y1="40.489" x2="182.767" y2="119.238" gradientUnits="userSpaceOnUse"><stop stop-color="#B67780"/><stop offset="1" stop-color="#FFACA6"/></linearGradient><linearGradient id="paint2_linear" x1="231.625" y1="90.642" x2="194.62" y2="158.056" gradientUnits="userSpaceOnUse"><stop stop-color="#F19DAA"/><stop offset="1" stop-color="#FFACA6"/></linearGradient><linearGradient id="paint3_linear" x1="369.951" y1="174.582" x2="282.118" y2="266.243" gradientUnits="userSpaceOnUse"><stop stop-color="#1C1D2F"/><stop offset="1" stop-color="#555563"/></linearGradient><linearGradient id="paint4_linear" x1="271.097" y1="74.724" x2="72.533" y2="333.855" gradientUnits="userSpaceOnUse"><stop offset="1" stop-color="#343551"/></linearGradient><linearGradient id="paint5_linear" x1="126.22" y1="260.072" x2="113.41" y2="412.057" gradientUnits="userSpaceOnUse"><stop/><stop offset="1" stop-color="#404359"/></linearGradient></defs></svg>