<svg width="441" height="414" fill="none" xmlns="http://www.w3.org/2000/svg"><path d="M1.646 237.278h132.062v-8.538H1.646v8.538z" fill="#C5CAD7"/><path d="M4.264 376.137h118.942v-138.85H4.264v138.85z" fill="#B58E7D"/><path d="M126.147 237.277h-2.945v138.849h2.945V237.277z" fill="#82899B" fill-opacity=".31"/><path d="M123.202 237.277H4.249v5.944l118.953-2.972v-2.972z" fill="#E6E6E6"/><path d="M233.321 376.137h118.942v-138.85H233.321v138.85z" fill="#B58E7D"/><path d="M355.208 237.277h-2.945v138.849h2.945V237.277z" fill="#82899B" fill-opacity=".31"/><path d="M352.262 237.277H233.32v5.944l118.942-2.972v-2.972z" fill="#E6E6E6"/><path d="M364.757 228.749H133.711v8.539h231.046v-8.539z" fill="#ECEEF3"/><path d="M353.798 231.176v11.873c0 1.889-2.584 3.419-5.775 3.419H5.99c-3.203 0-5.775-1.53-5.775-3.419v-11.873c0-1.742 2.167-3.166 4.989-3.392v-.007c.262-.021.524-.028.786-.028h342.033c3.191 0 5.775 1.537 5.775 3.427z" fill="#F1BDA7"/><g opacity=".1" fill="#000"><path opacity=".1" d="M32.388 246.468H29.68c-5.294-1.83-9.205-4.714-10.839-8.562-1.108-2.577-1.132-5.322-.095-7.913.274-.67.596-1.383 1.05-2.067h1.216c-1.193 1.676-1.634 3.695-1.741 5.154-.215 2.752.739 5.566 2.98 7.997 2.397 2.626 5.986 4.309 10.136 5.391zm32.85-2.751c-.68 1.026-1.633 1.962-2.814 2.751h-1.836c1.264-.635 2.325-1.466 3.148-2.528 1.443-1.879 1.729-3.974 1.586-6.006-.132-1.97.202-4.875-3.434-5.692-4.472-.999-11.483-1.508-15.74-.035-4.638 1.606-5.413 5.371-2.253 7.801.488.37-.597.74-1.074.363-2.658-2.039-2.813-4.923-.393-7.081 2.933-2.591 8.514-2.899 13.319-2.535 3.47.265 8.919.453 10.028 2.821 1.442 3.073 1.454 7.158-.537 10.141zm66.666-12.124c.37-1.341 1.157-2.571 2.278-3.667h1.43c-3.863 3.625-3.982 9.086 3.327 11.23 3.363.985 7.798 1.083 10.779-.419 3.208-1.606 3.613-4.295 3.53-6.586-.024-.468 1.216-.468 1.252 0 .179 4.372-3.22 9.058-11.972 8.395-7.607-.566-11.78-4.7-10.624-8.953zm-6.07 14.875h-4.316c-2.85-.6-5.568-1.369-8.072-2.395-8.121-3.311-14.607-7.773-22.966-10.958-9.276-3.527-20.163-5.748-31.311-4.847-.43.035-.716-.153-.775-.342h14.618c11.65 1.502 22.071 5.783 31.014 10.497 6.546 3.457 12.603 6.669 21.355 7.975.155.028.298.049.453.07zm51.761-13.102c-.918 4.666-3.351 9.52-10.076 12.418-.572.251-1.156.475-1.753.684h-2.718c3.827-1.075 7.142-2.696 9.324-4.965 3.601-3.758 5.271-9.205 3.828-13.444-.012-.042-.024-.091-.048-.133h1.192c.609 1.774.597 3.667.251 5.44zm-57.281 2.962c-5.103.146-9.396-1.348-13.164-3.234-3.195-1.592-6.164-3.352-9.026-5.168h1.765c1.919 1.18 3.887 2.34 5.902 3.464 4.03 2.242 8.645 4.372 14.511 4.204.811-.021.811.713.012.734zm182.649 2.5c-4.794 4.497-15.632 5.091-23.764 5.489a219.13 219.13 0 01-17.517.147c-3.016-.098-6.045-.224-9.038-.468-1.49-.126-3.16-.252-4.435-.782-7.572-3.15 6.546-7.096 10.206-7.892 4.686-1.02 9.659-1.606 14.655-1.725 2.694-.063 7.416-.363 9.419 1.04 5.056 3.555-12.996 6.495-16.18 6.803-.787.07-1.121-.629-.334-.706 4.758-.461 9.444-1.417 13.39-3.059a10.72 10.72 0 001.622-.761c.608-1.494.048-2.311-1.693-2.451-.906-.154-1.979-.133-2.933-.147a77.087 77.087 0 00-8.049.266c-4.662.398-9.229 1.208-13.474 2.416-2.051.587-4.221 1.208-5.771 2.242-1.955 1.306-2.027 2.982 1.145 3.729 1.085.259 2.516.301 3.625.377 8.394.58 16.908.643 25.35.231 7.774-.37 19.113-.95 23.167-5.601 4.675-5.392-7.893-7.41-14.284-8.053-8.371-.838-17.027-.838-25.469-.482-27.58 1.153-54.313 7.173-76.193 17.013h-1.991c15.381-7.081 33.171-12.284 52.13-15.204a234.589 234.589 0 0128.116-2.619c10.016-.335 21.094-.37 30.716 1.558 6.403 1.285 11.864 4.637 7.584 8.639z"/><path opacity=".1" d="M239.563 235.699c-4.865 1.208-8.537 3.555-10.195 6.495-.715 1.264-1.18 2.891-.739 4.267h-1.228c-1.312-4.721 4.269-9.582 11.53-11.397.74-.182 1.371.453.632.635zm90.943-7.773c-1.646 4.693-4.615 9.268-9.182 13.102-3.243 2.717-7.786 4.33-12.806 5.44h-4.268c3.517-.551 7.023-1.201 10.039-2.36 4.341-1.655 7.107-4.226 9.349-6.9 2.48-2.962 4.316-6.083 5.508-9.282h1.36zm13.616 0c-1.001 5.762-7.786 11.209-13.712 15.525a80.594 80.594 0 01-4.448 3.017h-1.705a76.635 76.635 0 003.351-2.172c6.367-4.365 14.201-10.287 15.286-16.363h1.228v-.007zm-123.674 0a323.212 323.212 0 00-26.339 8.967c-4.388 1.718-8.645 3.813-14.154 3.953-.357.007-.584-.174-.62-.363-.775-4.672 6.391-8.325 8.096-12.564h1.169c-1.037 2.521-3.887 4.84-5.866 7.158-.895 1.041-1.694 2.138-2.051 3.297-.072.258-.513 1.48-.179 1.655.727.363 3.362-.363 4.078-.538 4.543-1.124 8.549-3.122 12.687-4.679a326.205 326.205 0 0120.437-6.9h2.742v.014zM99.554 246.468h-1.788c-2.445-1.473-4.937-2.926-7.524-4.316-2.767-1.467-5.95-2.912-9.647-3.422-.918-.126-2.134-.279-3.064-.168-.906-.035-1.574.259-1.991.866-1.562.426-1.98 1.069-1.276 1.949.19.845.381 1.704.489 2.563.083.873.035 1.725-.18 2.528H73.31c.298-1.383.19-2.793-.107-4.239-.275-1.264-1.264-3.017.906-3.904 4.698-1.928 11.971.824 15.489 2.542 3.493 1.711 6.76 3.639 9.956 5.601zm-82.524.001h-1.323c-2.135-2.905-6.13-5.357-8.562-8.192-2.754-3.22-3.505-6.83-2.384-10.315v-.007c.262-.021.524-.028.787-.028h.512c-1.466 4.33.298 8.548 4.508 12.298 2.313 2.047 4.912 4.016 6.462 6.244z"/></g><path d="M103.925 208.333h117.269c5.02 0 8.601-4.096 7.965-9.106l-9.058-70.844c-.636-5.009-5.277-9.106-10.286-9.106H92.535c-5.02 0-8.601 4.097-7.965 9.106l9.058 70.844c.647 5.01 5.277 9.106 10.297 9.106z" fill="#E0E0E0"/><path d="M143.517 171.219h26.16l-8.858 57.53h-26.16l8.858-57.53z" fill="#E0E0E0"/><path d="M105.509 208.333h117.269c5.02 0 8.601-4.096 7.966-9.106l-9.059-70.844c-.636-5.009-5.277-9.106-10.285-9.106H94.108c-5.02 0-8.6 4.097-7.965 9.106l9.058 70.844c.659 5.01 5.288 9.106 10.308 9.106z" fill="#E6E6E6"/><path d="M151.415 119.277h17.102l30.778 69.698h-17.112l-30.768-69.698zm-11.669 0h6.85l30.767 69.698h-6.838l-30.779-69.698z" fill="#ECEEF3"/><path d="M229.415 188.975l1.317 10.252c.636 5.01-2.945 9.106-7.965 9.106H105.509c-5.02 0-9.65-4.096-10.286-9.106l-1.316-10.252h135.508z" fill="#82899B" fill-opacity=".31"/><path d="M54.112 209.422c.106.405-.154.81-.55.916l-9.826 2.43c-.405.106-.81-.155-.915-.55l-3.661-14.78a.54.54 0 01.173-.539l1.368-1.167a.539.539 0 00-.28-.945l-1.618-.212a.535.535 0 01-.453-.405l-4.19-16.891c-.569-2.295 2.206-11.724 3.034-11.926.405-.087 7.592 6.392 8.257 9.12l2.35 9.487a.728.728 0 01-.192.714l-1.725 1.754a.751.751 0 00.434 1.273l1.985.28a.75.75 0 01.636.568l5.173 20.873z" fill="#C8C4D2"/><path opacity=".25" d="M37.194 165.353l11.262 44.223" stroke="#000" stroke-width="1.045" stroke-miterlimit="10" stroke-linecap="round" stroke-linejoin="round"/><path d="M43.08 220.567a.76.76 0 01-1.04.232l-8.517-5.486a.76.76 0 01-.23-1.041l8.227-12.804a.519.519 0 01.51-.241l1.792.193a.54.54 0 00.492-.858l-.954-1.321a.556.556 0 01-.02-.607l9.394-14.635c1.272-1.986 10.039-6.45 10.752-5.978.337.241.568 9.911-.964 12.274l-5.28 8.223a.74.74 0 01-.645.347l-2.456-.048a.755.755 0 00-.627 1.196l1.166 1.639a.74.74 0 01.02.848l-11.62 18.067z" fill="#E6E6E6"/><path opacity=".07" d="M63.496 178.002l-24.404 38.545" stroke="#000" stroke-width="1.045" stroke-miterlimit="10" stroke-linecap="round" stroke-linejoin="round"/><path d="M59.825 207.841l-1.917 13.498-.607 4.242c-.212 1.33-1.128 2.285-2.187 2.285H38.726c-1.07 0-1.985-.955-2.197-2.285l-2.514-17.74c-.28-1.783.77-3.451 2.197-3.451h21.416c1.426-.01 2.496 1.668 2.197 3.451z" fill="#E6E6E6"/><path opacity=".07" d="M57.917 221.339l-.607 4.242c-.212 1.33-1.127 2.284-2.187 2.284H41.038l-.434-3.085c-.289-1.783.771-3.441 2.197-3.441h15.116z" fill="#000"/><path d="M59.642 210.994H34.208a3.833 3.833 0 01-3.834-3.837v-1.003a3.833 3.833 0 013.834-3.837h25.434a3.833 3.833 0 013.835 3.837v1.003a3.827 3.827 0 01-3.835 3.837z" fill="#C8C4D2"/><path d="M394.059 0h36.432c7.254 0 13.145 8.474 8.93 16.948h-144.39C300.072 7 291.104 0 286.102 0h107.957z" fill="#5B6EAE"/><path d="M279.36 0h148.192c-20.286 0-38.395 16.411-40.434 36.654l-26.252 259.798c-2.051 20.243-20.148 36.654-40.434 36.654h-74.727c-20.286 0-35.081-16.411-33.03-36.654l26.251-259.786C240.965 16.411 259.075 0 279.36 0z" fill="#D5DCF4"/><path opacity=".7" d="M279.36 0h148.192c-20.286 0-38.395 16.411-40.434 36.654l-26.252 259.798c-2.051 20.243-20.148 36.654-40.434 36.654h-74.727c-20.286 0-35.081-16.411-33.03-36.654l26.251-259.786C240.965 16.411 259.075 0 279.36 0z" fill="#D5DCF4"/><path d="M287.402 296.452c.663-6.615-4.165-11.981-10.793-11.981H128.417c6.629 0 11.469 5.366 10.793 11.981-2.051 20.243 12.745 36.654 33.03 36.654h148.192c-20.286.012-35.069-16.399-33.03-36.654z" fill="#5B6EAE"/><path d="M136.222 284.471H99.79c-6.629 0-12.107 5.366-12.22 11.981h176.82c.113-6.615 5.578-11.981 12.219-11.981H136.222z" fill="#C7D0F0"/><path opacity=".6" d="M136.222 284.471H99.79c-6.629 0-12.107 5.366-12.22 11.981h176.82c.113-6.615 5.578-11.981 12.219-11.981H136.222z" fill="#C7D0F0"/><path opacity=".5" d="M262.888 127.371H251.72l1.125-11.144h11.169l-1.126 11.144zm18.448 0h-11.169l1.126-11.144h11.169l-1.126 11.144zm18.46 0h-11.181l1.125-11.144h11.181l-1.125 11.144zm18.447 0h-11.181l1.139-11.144h11.168l-1.126 11.144zm18.447 0h-11.169l1.126-11.144h11.169l-1.126 11.144zm18.461 0H343.97l1.125-11.144h11.181l-1.125 11.144zm-94.127 18.408h-11.168l1.126-11.144h11.168l-1.126 11.144zm18.461 0h-11.181l1.126-11.144h11.181l-1.126 11.144zm18.447 0h-11.181l1.126-11.144h11.181l-1.126 11.144zm18.448 0h-11.169l1.126-11.144h11.168l-1.125 11.144zm18.459 0h-11.181l1.126-11.144h11.181l-1.126 11.144zm18.448 0h-11.181l1.126-11.144h11.18l-1.125 11.144zM259.174 164.2h-11.181l1.125-11.157h11.181l-1.125 11.157zm18.447 0H266.44l1.126-11.157h11.181l-1.126 11.157zm18.448 0h-11.168l1.125-11.157h11.169l-1.126 11.157zm18.447 0h-11.168l1.125-11.157h11.181l-1.138 11.157zm18.459 0h-11.181l1.126-11.157h11.181l-1.126 11.157zm18.448 0h-11.168l1.125-11.157h11.169l-1.126 11.157zm-94.112 18.408H246.13l1.125-11.157h11.181l-1.125 11.157zm18.447 0h-11.169l1.126-11.157h11.168l-1.125 11.157zm18.448 0h-11.169l1.126-11.157h11.181l-1.138 11.157zm18.459 0h-11.181l1.125-11.157h11.181l-1.125 11.157zm18.448 0h-11.169l1.126-11.157h11.168l-1.125 11.157zm18.448 0h-11.169l1.126-11.157h11.168l-1.125 11.157zm-94.114 18.408h-11.168l1.125-11.144h11.169l-1.126 11.144zm18.448 0h-11.168l1.125-11.144h11.169l-1.126 11.144zm18.459 0h-11.181l1.126-11.144h11.181l-1.126 11.144zm18.447 0h-11.168l1.125-11.144h11.169l-1.126 11.144zm18.448 0h-11.168l1.125-11.144h11.169l-1.126 11.144zm18.46 0h-11.181l1.126-11.144h11.181l-1.126 11.144zm-94.125 18.421h-11.169l1.126-11.157h11.168l-1.125 11.157zm18.459 0h-11.181l1.125-11.157h11.181l-1.125 11.157zm18.448 0H279.31l1.138-11.157h11.169l-1.126 11.157zm18.447 0H297.77l1.126-11.157h11.168l-1.126 11.157zm18.46 0h-11.181l1.125-11.157h11.181l-1.125 11.157zm18.448 0h-11.181l1.138-11.157h11.169l-1.126 11.157z" fill="#fff"/><path d="M259.374 208.28c-.263 2.571-2.552 4.655-5.128 4.655s-4.452-2.084-4.19-4.655c.263-2.571 2.552-4.655 5.128-4.655s4.452 2.084 4.19 4.655zm24.037-55.237c-.262 2.571-2.551 4.655-5.127 4.655-2.577 0-4.453-2.084-4.19-4.655.263-2.571 2.564-4.655 5.128-4.655 2.563 0 4.439 2.084 4.189 4.655zm35.044 18.408c-.263 2.571-2.552 4.655-5.128 4.655s-4.452-2.084-4.19-4.655c.263-2.571 2.552-4.655 5.128-4.655 2.564.012 4.44 2.097 4.19 4.655zm40.622-36.816c-.263 2.571-2.564 4.655-5.128 4.655-2.576 0-4.452-2.084-4.19-4.655.263-2.571 2.564-4.655 5.128-4.655s4.453 2.084 4.19 4.655z" fill="#322083"/><path d="M254.708 209.64a1.37 1.37 0 01-1.25-1.909l24.025-55.237c.15-.35.438-.612.8-.749.363-.125.751-.1 1.089.075l34.193 17.971 39.909-36.18a1.366 1.366 0 011.926.088 1.359 1.359 0 01-.088 1.922l-40.622 36.828a1.369 1.369 0 01-1.55.2l-33.743-17.722-23.45 53.889c-.201.525-.701.824-1.239.824z" fill="#322083"/><path opacity=".5" d="M249.594 258.924h-11.168l.563-5.579h11.168l-.563 5.579z" fill="#322083"/><path opacity=".6" d="M268.054 258.924h-11.181l1.938-19.207h11.181l-1.938 19.207z" fill="#322083"/><path opacity=".7" d="M286.502 258.924h-11.169l1.126-11.157h11.168l-1.125 11.157z" fill="#322083"/><path opacity=".8" d="M304.949 258.924h-11.168l1.476-14.664h11.181l-1.489 14.664z" fill="#322083"/><path opacity=".9" d="M323.409 258.924h-11.181l.9-8.911h11.181l-.9 8.911z" fill="#322083"/><path d="M341.856 258.924h-11.181l.575-5.579h11.169l-.563 5.579z" fill="#322083"/><path opacity=".5" d="M355.025 96.758h-97.001c-1.776 0-3.065-1.435-2.889-3.207l4.427-43.806c.175-1.772 1.763-3.207 3.539-3.207h97.002c1.776 0 3.064 1.435 2.889 3.208l-4.427 43.804c-.188 1.773-1.764 3.208-3.54 3.208z" fill="#fff"/><path d="M288.502 71.66l8.03-17.235c6.979 2.634 11.131 9.535 10.355 17.235-.9 8.861-8.104 16.524-17.009 18.059l-1.376-18.059z" fill="#322083"/><path d="M288.502 71.66l1.363 18.059a18.732 18.732 0 01-3.214.275c-10.08 0-17.534-8.275-16.521-18.334 1.013-10.059 10.143-18.333 20.223-18.333 2.139 0 4.227.374 6.178 1.11l-8.029 17.223zm43.674-4.455h6.966l-2.301 22.764h-6.966l2.301-22.764zm10.617 12.105h6.967l-1.076 10.658h-6.966l1.075-10.658z" fill="#fff"/><path d="M342.794 79.31h6.967l.663-6.502h-6.967l-.663 6.502zm-10.619-12.105h6.966l1.401-13.878h-6.966l-1.401 13.878z" fill="#322083"/><path d="M319.919 71.348h6.966l-1.876 18.62h-6.966l1.876-18.62z" fill="#fff"/><path d="M319.919 71.348h6.966l.863-8.536h-6.966l-.863 8.536z" fill="#322083"/><path d="M83.088 128.06c-.48.813-1.06 1.837-1.596 2.772-.535.958-1.06 1.937-1.573 2.928-1.004 1.981-2.019 3.952-2.945 5.978-1.863 4.018-3.503 8.126-4.83 12.289l-.458 1.57-.234.779-.056.201v-.034c-.01-.033 0-.022-.022-.033-.067.033-.056.712.179 1.48.457 1.57 1.45 3.474 2.532 5.299 2.22 3.674 4.975 7.403 7.72 10.965l-3.57 3.741c-3.927-2.95-7.463-6.145-10.71-10.008-1.606-1.959-3.157-4.019-4.384-6.802-.591-1.402-1.182-3.039-1.104-5.332.022-.3.033-.579.089-.89l.078-.457.045-.234.19-.912.39-1.826c1.149-4.82 2.733-9.473 4.63-13.971a96.477 96.477 0 013.112-6.612 99.732 99.732 0 011.74-3.228 53.2 53.2 0 011.952-3.24l8.825 5.577z" fill="#FAB6B8"/><path d="M79.272 170.25l8.39.346-3.381 7.191s-5.968-.334-8.21-3.952l3.201-3.585z" fill="#FAB6B8"/><path d="M89.736 173.824l-2.075 6.434-3.38-2.482 3.38-7.18 2.075 3.228z" fill="#FAB6B8"/><path d="M96.698 404.023c-.948 0-1.974-.189-2.7-.368a.27.27 0 01-.189-.189.234.234 0 01.1-.245c.346-.234 3.425-2.226 4.619-1.692.19.089.424.267.49.679.09.546-.044.969-.379 1.28-.435.401-1.16.535-1.94.535zm-2.019-.702c1.785.357 3.124.29 3.626-.178.212-.2.29-.478.234-.857-.034-.2-.123-.267-.2-.3-.637-.301-2.41.567-3.66 1.335z" fill="#322083"/><path d="M94.054 403.666a.227.227 0 01-.123-.033.238.238 0 01-.123-.211c0-.123-.033-3.062 1.071-4.041.29-.256.636-.368 1.015-.323.603.078.781.456.826.668.245 1.146-1.584 3.35-2.544 3.896a.188.188 0 01-.122.044zm1.684-4.13c-.2 0-.368.067-.535.212-.659.59-.86 2.237-.904 3.206.96-.768 2.097-2.427 1.941-3.128-.022-.111-.09-.256-.401-.29h-.1zm76.451-.055c-.089.011-.167-.034-.223-.1a.235.235 0 01.011-.279c.312-.4 3.057-3.84 4.54-3.94h.101a.773.773 0 01.658.389c.245.401.29.813.112 1.225-.592 1.347-3.481 2.271-5.154 2.705h-.045zm4.34-3.83c-.815.056-2.533 1.793-3.704 3.184 2.253-.657 3.77-1.469 4.105-2.226.112-.267.089-.523-.078-.802-.067-.111-.145-.156-.268-.156-.022-.011-.033-.011-.055 0z" fill="#322083"/><path d="M172.189 399.481h-.056a.236.236 0 01-.19-.145c-.044-.111-1.015-2.616-.29-4.108.223-.456.58-.779 1.06-.946.647-.234.982-.022 1.138.2.681.935-.591 3.897-1.484 4.91-.055.055-.111.089-.178.089zm.97-4.82a.886.886 0 00-.29.066 1.28 1.28 0 00-.769.69c-.48.98-.078 2.572.167 3.318.825-1.191 1.584-3.418 1.171-3.974-.033-.034-.089-.112-.279-.1z" fill="#322083"/><path d="M96.34 87.061c1.15 6.067 3.749 19.292-.513 23.244 0 0 1.618 6.156 12.885 6.378 12.394.245 5.957-6.011 5.957-6.011-6.749-1.736-6.548-6.735-5.343-11.41l-12.986-12.2z" fill="#FAB6B8"/><path d="M92.782 113.366l-2.164-10.664s5.21 1.558 9.549 1.558c4.34 0 13.744-.334 18.419-1.959 1.282 1.825 8.076 6.69 8.076 6.69l-3.023 5.132-30.857-.757z" fill="#322083"/><path opacity=".8" d="M92.782 113.366l-2.164-10.664s5.21 1.558 9.549 1.558c4.34 0 13.744-.334 18.419-1.959 1.282 1.825 8.076 6.69 8.076 6.69l-3.023 5.132-30.857-.757z" fill="#fff"/><path d="M120.526 75.44a.547.547 0 01-.212-.078.484.484 0 01-.145-.668c1.439-2.227 3.67-2.238 3.771-2.238.267 0 .479.223.491.49a.476.476 0 01-.48.478c-.078 0-1.818.023-2.968 1.804a.47.47 0 01-.457.211z" fill="#263238"/><path d="M123.639 81.128s1.461 3.54 3.023 5.243c-1.071 1.013-2.923.557-2.923.557l-.1-5.8z" fill="#E3595D"/><path d="M122.88 79.714c.011.824.457 1.492 1.004 1.48.535 0 .959-.667.948-1.491-.011-.824-.457-1.492-1.004-1.48-.547 0-.971.667-.948 1.491z" fill="#263238"/><path d="M123.583 78.267l1.963-.579c.012 0-.981 1.547-1.963.579z" fill="#263238"/><path d="M162.438 405.915l9.895-3.406-6.983-21.953-9.884 3.396 6.972 21.963zm-80.265-2.482h10.219l-1.138-23.6H81.046l1.127 23.6z" fill="#FAB6B8"/><path d="M93.184 402.253H81.716a.797.797 0 00-.803.701l-1.183 9.061c-.122.936.703 1.826 1.663 1.815 3.993-.067 5.923-.301 10.966-.301 3.101 0 7.641.323 11.925.323 4.195 0 4.451-4.23 2.666-4.608-8.02-1.715-9.326-4.086-12.048-6.346a2.623 2.623 0 00-1.718-.645zm77.855-3.752l-10.609 4.976c-.39.178-.569.579-.446.969l2.733 8.505c.279.879 1.417 1.313 2.309.879 3.671-1.792 5.355-2.839 10.018-5.032 2.867-1.347 8.947-3.851 12.919-5.71 3.882-1.815 2.331-5.667.513-5.232-8.155 1.97-12.093 1.257-15.574.445a3.038 3.038 0 00-1.863.2z" fill="#263238"/><path opacity=".2" d="M165.351 380.556l3.748 11.767-10.04 2.961-3.603-11.321 9.895-3.407zm-84.305-.712h10.208l.58 12.156H81.626l-.58-12.156z" fill="#000"/><path d="M78.19 112.275c-4.25.846-8.868 15.964-8.868 15.964l11.925 12.946s10.04-14.093 8.043-19.392c-2.086-5.499-6.08-10.52-11.1-9.518z" fill="#5B6EAE"/><path opacity=".2" d="M78.19 112.275c-4.25.846-8.868 15.964-8.868 15.964l11.925 12.946s10.04-14.093 8.043-19.392c-2.086-5.499-6.08-10.52-11.1-9.518z" fill="#5B6EAE"/><path opacity=".4" d="M84.862 122.093c2.153-1.914 3.603-1.302 4.585.268.948 4.542-4.886 13.892-7.24 17.432-1.049-4.297-2.231-13.347 2.655-17.7z" fill="#000"/><path d="M132.742 115.782c.77 4.452.937 18.033-6.046 59.177l-41.5-.812c.792-16.81.87-27.185-7.006-61.883 0 0 8.702-1.714 17.638-1.97 6.983-.201 12.706-.312 18.842.367 6.024.668 12.661 1.97 15.64 2.594a3.14 3.14 0 012.432 2.527z" fill="#5B6EAE"/><path opacity=".2" d="M132.742 115.782c.77 4.452.937 18.033-6.046 59.177l-41.5-.812c.792-16.81.87-27.185-7.006-61.883 0 0 8.702-1.714 17.638-1.97 6.983-.201 12.706-.312 18.842.367 6.024.668 12.661 1.97 15.64 2.594a3.14 3.14 0 012.432 2.527z" fill="#5B6EAE"/><path d="M95.158 76.976c.792 10.097.915 14.382 6.114 19.559 7.809 7.77 20.035 4.764 22.278-5.321 2.019-9.084.379-24.068-9.583-28.053-9.817-3.94-19.6 3.718-18.809 13.815z" fill="#FAB6B8"/><path d="M97.835 58.407c-10.966.813-13.51 13.682-9.248 21.897-6.805 10.342-5.98 14.06-3.804 16.475 3.737 4.164 22.969 9.173 34.482.524 5.143-3.863-4.384-17.6-4.384-17.6s5.544-22.976-17.046-21.296z" fill="#263238"/><path d="M85.832 97.191c-3.112 0-4.205-1.525-4.573-2.894-1.172-4.409 4.462-13.08 10.028-15.485a.61.61 0 11.48 1.124c-4.93 2.116-10.341 10.264-9.337 14.05.413 1.558 1.93 2.203 4.507 1.925.334-.033.636.2.67.534a.603.603 0 01-.536.668 9.85 9.85 0 01-1.239.078z" fill="#263238"/><path d="M102.398 84.278l-12.082.4a3.53 3.53 0 01-3.648-3.55c0-2.015 1.64-3.73 3.637-3.796l12.082-.401a3.53 3.53 0 013.648 3.551c0 2.026-1.64 3.73-3.637 3.796z" fill="#7289DA"/><path d="M99.197 62.103c4.116-6.39 14.882-8.315 21.709-4.308 7.976 4.687 7.809 14.093-5.656 19.359-14.681 5.755-16.053-15.05-16.053-15.05z" fill="#263238"/><path d="M117.525 77.042c1.964 1.67 2.901 3.852 3.258 5.4.602 2.66-1.116 2.304-3.09 1.213-1.774-.98-4.574-2.917-4.429-5.132.134-2.193 2.51-2.983 4.261-1.48z" fill="#FAB6B8"/><path d="M115.729 174.748s-6.336 69.753-12.706 109.005c-5.154 31.703-9.516 105.887-9.516 105.887H79.585s-4.54-72.402-1.841-103.806c6.838-79.471-7.363-86.239 7.44-111.687l30.545.601z" fill="#263238"/><path opacity=".4" d="M101.573 198.07c3.626 5.321 8.478 11.454 10.04 17.933-1.249 11.767-2.722 24.78-4.306 37.292-3.826-10.53-10.386-31.559-5.734-55.225z" fill="#000"/><path d="M126.696 174.959s13.577 76.355 19.277 106.934c5.924 31.816 22.736 102.604 22.736 102.604l-13.878 7.125s-28.726-85.494-32.151-101.535c-9.047-33.463-35.007-115.84-35.007-115.84l39.023.712z" fill="#263238"/><path d="M171.586 387.48l-16.89 6.702-3.268-5.867 18.061-7.191 2.097 6.356zm-76.171 2.439H77.688l-1.026-6.201 18.764-.635-.011 6.836zm-10.833-218.21l-1.896 3.662c-.145.29.19.579.67.59l43.529.858c.379.011.681-.167.714-.401l.39-3.696c.023-.256-.301-.479-.702-.49l-42.024-.824c-.312 0-.58.123-.68.301z" fill="#322083"/><path d="M90.205 176.507l-1.126-.022c-.224 0-.39-.123-.38-.268l.558-4.797c.011-.145.212-.257.435-.245l1.127.022c.223 0 .39.122.38.267l-.559 4.798c-.022.134-.212.245-.435.245zm27.276.534l-1.127-.022c-.223 0-.391-.123-.379-.267l.557-4.798c.012-.145.212-.256.436-.245l1.126.022c.223 0 .391.123.38.267l-.558 4.798c-.011.134-.212.245-.435.245z" fill="#263238"/><path d="M138.008 121.014c1.26 2.126 2.599 4.408 3.971 6.568 1.372 2.193 2.733 4.374 4.172 6.501a188.633 188.633 0 004.429 6.211c1.54 1.982 3.101 3.93 4.741 5.678.971 1.091 2.689 2.026 4.797 2.66 2.12.612 4.496 1.024 6.961 1.202 4.909.39 10.186.223 15.239-.244l1.149 5.031c-5.377 1.692-10.743 2.772-16.499 3.062-2.867.111-5.823.033-8.891-.568-1.54-.312-3.113-.757-4.708-1.436a16.45 16.45 0 01-4.607-2.961c-4.295-3.963-7.832-8.271-11.056-12.758-3.235-4.486-6.146-9.017-8.835-13.937l9.137-5.009z" fill="#FAB6B8"/><path d="M132.061 113.567c9.907 1.569 14.012 15.673 14.012 15.673l-11.903 11.433s-13.443-12.334-13.443-20.205c0-5.833 5.935-7.759 11.334-6.901z" fill="#5B6EAE"/><path opacity=".2" d="M132.061 113.567c9.907 1.569 14.012 15.673 14.012 15.673l-11.903 11.433s-13.443-12.334-13.443-20.205c0-5.833 5.935-7.759 11.334-6.901z" fill="#5B6EAE"/><path d="M194.076 143.189a74.593 74.593 0 01-.636 5.254 156.135 156.135 0 01-.893 5.177 193.72 193.72 0 01-1.071 5.131c-.502 1.67-.346 3.518-2.264 4.798-.536.357-1.372.234-1.886-.256-.1-.1-.189-.211-.245-.334-1.104-2.115-.145-3.662.167-5.376.435-1.693.882-3.373 1.361-5.054.48-1.67.993-3.34 1.54-4.999.546-1.658 1.126-3.306 1.796-4.931.189-.445.803-.635 1.372-.412.491.189.792.601.759 1.002z" fill="#263238"/><path d="M194.22 145.07l-3.313-.557c-.502-.089-.758-.701-.558-1.369.19-.668.759-1.146 1.261-1.068l3.313.556c.502.089.759.701.558 1.369-.19.679-.759 1.158-1.261 1.069z" fill="#263238"/><path d="M199.799 118.643c-5.087-1.47-10.978 2.827-13.153 9.584-2.164 6.769.201 13.448 5.288 14.917 5.087 1.47 10.977-2.816 13.152-9.584 2.176-6.758-.189-13.437-5.287-14.917zm-7.229 22.564c-4.284-1.235-6.281-6.857-4.452-12.557 1.83-5.699 6.783-9.306 11.067-8.07 4.284 1.235 6.281 6.857 4.451 12.557-1.829 5.699-6.783 9.317-11.066 8.07z" fill="#322083"/><path opacity=".1" d="M193.752 141.897c-4.016-1.157-5.89-6.434-4.172-11.777 1.718-5.344 6.358-8.728 10.374-7.57 4.016 1.158 5.891 6.434 4.184 11.778-1.718 5.343-6.37 8.727-10.386 7.569z" fill="#322083"/><path d="M179.128 155l10.933 2.037 1.149-9.151s-8.992.513-12.082 3.385V155z" fill="#FAB6B8"/><path d="M192.804 157.015l1.919-6.078a.927.927 0 00-.402-1.08l-3.124-1.959-1.149 9.15 1.506.568c.525.189 1.094-.089 1.25-.601z" fill="#FAB6B8"/></svg>