<svg width="81" height="24" viewBox="0 0 81 24" fill="none" xmlns="http://www.w3.org/2000/svg">
<g clip-path="url(#clip0)">
<path d="M6.03516 8.03085L6.0332 3.03021H0.214844V18.0437L3.12402 20.9035L11.123 20.9045V15.1829H6.03516V13.7525H11.123V8.03085H6.03516Z" fill="#82899B"/>
<path d="M27.1191 8.03064V15.1826H25.6641V8.03064H19.8535V15.1826H18.3984V8.03064H12.5781V18.0434L15.4873 20.9033L32.9395 20.9042V8.03064H27.1191Z" fill="#82899B"/>
<path d="M34.3945 8.03064H40.2148V20.9033H34.3965L34.3945 8.03064Z" fill="#82899B"/>
<path d="M34.3965 3.03003H40.2148V6.60987H34.3945L34.3965 3.03003Z" fill="#82899B"/>
<path d="M56.9434 8.03064L54.0332 10.8943V18.0434L56.9424 20.9033L65.6738 20.9042V15.1826H59.8535V13.7522H65.6738V8.03064H56.9434Z" fill="#82899B"/>
<path d="M77.3047 8.03065H72.9492V3.02905H67.1289V20.9043H72.9395V13.7523H74.3945V20.9043L80.2148 20.9033V10.8943L77.3047 8.03065Z" fill="#82899B"/>
<path d="M47.4902 8.03065L47.4873 3.03001L41.6699 3.02905V18.0435L44.5781 20.9033H52.5781V15.1836L47.4902 15.1827V13.7523H52.5781V8.03065H47.4902Z" fill="#82899B"/>
</g>
<defs>
<clipPath id="clip0">
<rect x="0.214844" y="-6.10352e-05" width="80" height="24" fill="white"/>
</clipPath>
</defs>
</svg>
