<svg width="81" height="17" viewBox="0 0 81 17" fill="none" xmlns="http://www.w3.org/2000/svg">
<g clip-path="url(#clip0)">
<path d="M25.1965 2.65469C24.9024 1.60918 24.0393 0.787568 22.9409 0.5077C20.9499 -6.10352e-05 12.9713 -6.10352e-05 12.9713 -6.10352e-05C12.9713 -6.10352e-05 4.99275 -6.10352e-05 3.00388 0.5077C1.90549 0.787568 1.04231 1.60918 0.748289 2.65469C0.214844 4.5478 0.214844 8.49994 0.214844 8.49994C0.214844 8.49994 0.214844 12.4521 0.748289 14.3452C1.04231 15.3907 1.90549 16.2123 3.00388 16.4922C4.99275 16.9999 12.9713 16.9999 12.9713 16.9999C12.9713 16.9999 20.9499 16.9999 22.9388 16.4922C24.0372 16.2123 24.9003 15.3907 25.1944 14.3452C25.7278 12.4521 25.7278 8.49994 25.7278 8.49994C25.7278 8.49994 25.7278 4.5478 25.1965 2.65469ZM10.4196 12.1422V4.85765L17.0478 8.49994L10.4196 12.1422Z" fill="#82899B"/>
<path d="M37.2496 15.4646C36.7456 15.1408 36.3865 14.637 36.1723 13.9533C35.9601 13.2697 35.853 12.3621 35.853 11.2266V9.68135C35.853 8.53588 35.9748 7.61432 36.2185 6.92064C36.4621 6.22697 36.8422 5.71921 37.3589 5.40136C37.8755 5.08351 38.5539 4.92358 39.3939 4.92358C40.2214 4.92358 40.883 5.08551 41.3828 5.40936C41.8805 5.7332 42.246 6.24096 42.477 6.92864C42.708 7.61832 42.8235 8.53588 42.8235 9.68135V11.2266C42.8235 12.3621 42.7101 13.2737 42.4854 13.9613C42.2607 14.651 41.8952 15.1548 41.3912 15.4726C40.8872 15.7905 40.2025 15.9504 39.3393 15.9504C38.4488 15.9524 37.7537 15.7885 37.2496 15.4646ZM40.0765 13.7974C40.2172 13.4496 40.2865 12.8838 40.2865 12.0962V8.77977C40.2865 8.01613 40.2172 7.45639 40.0765 7.10456C39.9358 6.75072 39.6901 6.57481 39.3372 6.57481C38.997 6.57481 38.7555 6.75072 38.6169 7.10456C38.4762 7.45839 38.4068 8.01613 38.4068 8.77977V12.0962C38.4068 12.8838 38.474 13.4516 38.6085 13.7974C38.7429 14.1452 38.9844 14.3192 39.3372 14.3192C39.6901 14.3192 39.9358 14.1452 40.0765 13.7974Z" fill="#82899B"/>
<path d="M76.0019 11.2526V11.7904C76.0019 12.4741 76.0229 12.9858 76.0649 13.3277C76.1069 13.6695 76.1952 13.9174 76.3296 14.0753C76.464 14.2312 76.6698 14.3092 76.9491 14.3092C77.325 14.3092 77.5855 14.1693 77.7241 13.8914C77.8648 13.6135 77.9404 13.1497 77.953 12.502L80.1246 12.624C80.1372 12.7159 80.1435 12.8439 80.1435 13.0058C80.1435 13.9893 79.86 14.725 79.295 15.2108C78.7301 15.6965 77.9299 15.9404 76.8966 15.9404C75.6554 15.9404 74.7859 15.5706 74.2882 14.829C73.7883 14.0873 73.5405 12.9418 73.5405 11.3906V9.53145C73.5405 7.9342 73.7988 6.76675 74.3155 6.03109C74.8321 5.29544 75.7163 4.92761 76.9701 4.92761C77.8333 4.92761 78.4969 5.07754 78.959 5.3794C79.421 5.68126 79.7466 6.14904 79.9356 6.78674C80.1246 7.42444 80.2191 8.30402 80.2191 9.4275V11.2506H76.0019V11.2526ZM76.3212 6.77274C76.1931 6.92267 76.109 7.16856 76.0649 7.5104C76.0229 7.85224 76.0019 8.36999 76.0019 9.06567V9.82931H77.8438V9.06567C77.8438 8.38199 77.8186 7.86423 77.7703 7.5104C77.722 7.15656 77.6338 6.90868 77.5057 6.76275C77.3775 6.61882 77.1801 6.54485 76.9134 6.54485C76.6467 6.54685 76.4472 6.62282 76.3212 6.77274Z" fill="#82899B"/>
<path d="M31.1171 11.0547L28.2524 1.20734H30.7517L31.7555 5.67124C32.0118 6.77072 32.1987 7.70828 32.3205 8.48391H32.394C32.478 7.92817 32.667 6.99661 32.9589 5.68723L33.9985 1.20734H36.4977L33.5995 11.0547V15.7785H31.1171V11.0547Z" fill="#82899B"/>
<path d="M50.9534 5.13147V15.7785H48.9834L48.765 14.4751H48.7104C48.1748 15.4586 47.3726 15.9504 46.3015 15.9504C45.5601 15.9504 45.012 15.7185 44.6591 15.2567C44.3063 14.7929 44.1299 14.0693 44.1299 13.0857V5.13147H46.648V12.9458C46.648 13.4216 46.7026 13.7594 46.8118 13.9613C46.921 14.1632 47.1037 14.2652 47.36 14.2652C47.5784 14.2652 47.7884 14.2012 47.99 14.0733C48.1916 13.9453 48.3386 13.7834 48.4374 13.5875V5.13147H50.9534Z" fill="#82899B"/>
<path d="M63.8674 5.13147V15.7785H61.8975L61.679 14.4751H61.6244C61.0889 15.4586 60.2866 15.9504 59.2155 15.9504C58.4742 15.9504 57.926 15.7185 57.5732 15.2567C57.2204 14.7929 57.0439 14.0693 57.0439 13.0857V5.13147H59.5621V12.9458C59.5621 13.4216 59.6167 13.7594 59.7259 13.9613C59.8351 14.1632 60.0178 14.2652 60.274 14.2652C60.4924 14.2652 60.7025 14.2012 60.9041 14.0733C61.1057 13.9453 61.2527 13.7834 61.3514 13.5875V5.13147H63.8674Z" fill="#82899B"/>
<path d="M57.7935 3.13443H55.2943V15.7785H52.8308V3.13443H50.3315V1.20734H57.7935V3.13443Z" fill="#82899B"/>
<path d="M72.2008 6.8327C72.0475 6.16102 71.8018 5.67525 71.4616 5.37339C71.1213 5.07153 70.653 4.9216 70.0565 4.9216C69.5945 4.9216 69.1619 5.04554 68.7607 5.29542C68.3596 5.54531 68.0488 5.87115 67.8304 6.27696H67.8114V0.667603H65.3857V15.7765H67.4649L67.7211 14.769H67.7757C67.9711 15.1288 68.263 15.4107 68.6515 15.6206C69.04 15.8285 69.4727 15.9324 69.9473 15.9324C70.7979 15.9324 71.4259 15.5586 71.827 14.8129C72.2281 14.0653 72.4297 12.8998 72.4297 11.3126V9.62739C72.4297 8.43795 72.352 7.50638 72.2008 6.8327ZM69.8927 11.1767C69.8927 11.9523 69.8591 12.56 69.7919 12.9998C69.7247 13.4396 69.6134 13.7534 69.4538 13.9374C69.2963 14.1233 69.0821 14.2152 68.8153 14.2152C68.6074 14.2152 68.4163 14.1693 68.2399 14.0753C68.0635 13.9833 67.9207 13.8434 67.8114 13.6595V7.61633C67.8955 7.32647 68.0425 7.09058 68.2504 6.90467C68.4562 6.71876 68.683 6.6268 68.9245 6.6268C69.1808 6.6268 69.3782 6.72275 69.5168 6.91266C69.6575 7.10457 69.7541 7.42442 69.8087 7.87621C69.8633 8.328 69.8906 8.9697 69.8906 9.8033V11.1767H69.8927Z" fill="#82899B"/>
</g>
<defs>
<clipPath id="clip0">
<rect x="0.214844" y="-6.10352e-05" width="80" height="17" fill="white"/>
</clipPath>
</defs>
</svg>
