<svg width="15" height="17" viewBox="0 0 15 17" fill="none" xmlns="http://www.w3.org/2000/svg">
<path d="M9.07186 7.10974C8.58357 7.10974 8.19808 7.52847 8.19808 8.04974C8.19808 8.57101 8.59214 8.98973 9.07186 8.98973C9.56016 8.98973 9.94565 8.57101 9.94565 8.04974C9.94565 7.52847 9.55159 7.10974 9.07186 7.10974ZM5.94508 7.10974C5.45678 7.10974 5.07129 7.52847 5.07129 8.04974C5.07129 8.57101 5.46535 8.98973 5.94508 8.98973C6.43337 8.98973 6.81886 8.57101 6.81886 8.04974C6.82743 7.52847 6.43337 7.10974 5.94508 7.10974Z" fill="#7289DA"/>
<path d="M13.2353 0H1.75614C0.788121 0 0 0.786176 0 1.75181V13.2026C0 14.1683 0.788121 14.9544 1.75614 14.9544H11.4706L11.0166 13.3906L12.1131 14.399L13.1496 15.3475L15 16.9455V1.75181C14.9914 0.786176 14.2033 0 13.2353 0ZM9.92861 11.0663C9.92861 11.0663 9.62022 10.6988 9.36322 10.3827C10.4854 10.0665 10.9138 9.3743 10.9138 9.3743C10.5625 9.60502 10.2284 9.76739 9.92861 9.87848C9.50029 10.0579 9.08909 10.169 8.68646 10.2459C7.86408 10.3997 7.11022 10.357 6.46773 10.2374C5.97944 10.1434 5.55968 10.0152 5.20845 9.86993C5.01142 9.79302 4.79726 9.69902 4.5831 9.57939C4.5574 9.5623 4.5317 9.55375 4.506 9.53666C4.48886 9.52812 4.4803 9.51957 4.47173 9.51957C4.31753 9.43412 4.23187 9.3743 4.23187 9.3743C4.23187 9.3743 4.64306 10.0494 5.73101 10.3741C5.47401 10.6988 5.15705 11.0748 5.15705 11.0748C3.26385 11.015 2.54426 9.78448 2.54426 9.78448C2.54426 7.0585 3.77784 4.84524 3.77784 4.84524C5.01142 3.93088 6.17647 3.95652 6.17647 3.95652L6.26214 4.05906C4.72016 4.49488 4.0177 5.16996 4.0177 5.16996C4.0177 5.16996 4.20617 5.06742 4.52313 4.93069C5.43975 4.52906 6.1679 4.42651 6.46773 4.39233C6.51913 4.38379 6.56196 4.37524 6.61336 4.37524C7.13592 4.30688 7.72701 4.28979 8.3438 4.35815C9.15762 4.45215 10.0314 4.69142 10.9223 5.16996C10.9223 5.16996 10.2456 4.52906 8.78926 4.09324L8.90919 3.95652C8.90919 3.95652 10.0828 3.93088 11.3078 4.84524C11.3078 4.84524 12.5414 7.0585 12.5414 9.78448C12.5414 9.77593 11.8218 11.0065 9.92861 11.0663Z" fill="#7289DA"/>
</svg>
