<svg width="1400" height="3800" viewBox="0 0 1400 3800" fill="none" xmlns="http://www.w3.org/2000/svg">
<path d="M642.379 -98.2886C569.657 -222.121 435.839 -258.766 378.02 -261.609L1291.18 -759.293L1397.68 -541.991C1531.54 -295.03 1796.74 209.473 1786.74 251.791C1774.25 304.688 1540.67 574.528 1213.33 486.066C885.99 397.605 733.281 56.5017 642.379 -98.2886Z" fill="#C5CAD7" fill-opacity="0.46"/>
<path d="M1074.78 201.561C1059.53 216.813 1034.79 216.813 1019.54 201.561L911.653 93.6815C896.402 78.4292 896.402 53.6916 911.653 38.4392C926.903 23.1869 951.638 23.1869 966.888 38.4392L1074.75 146.319C1090.03 161.571 1090.03 186.308 1074.78 201.561Z" fill="#ECEEF3"/>
<path d="M1185.8 313.584C1170.58 328.805 1145.89 328.805 1130.67 313.584L1108.63 291.547C1093.41 276.325 1093.41 251.638 1108.63 236.416C1123.85 221.195 1148.54 221.195 1163.76 236.416L1185.8 258.453C1201.02 273.675 1201.02 298.362 1185.8 313.584Z" fill="#ECEEF3"/>
<path d="M1235.8 148.584C1220.58 163.805 1195.89 163.805 1180.67 148.584L1158.63 126.547C1143.41 111.325 1143.41 86.6376 1158.63 71.4161C1173.85 56.1946 1198.54 56.1946 1213.76 71.4161L1235.8 93.4532C1251.02 108.675 1251.02 133.362 1235.8 148.584Z" fill="#ECEEF3"/>
<path fill-rule="evenodd" clip-rule="evenodd" d="M339.776 925.477C340.499 922.253 341.327 918.686 342.23 914.8C360.178 837.55 407.436 634.136 231.541 491.066C46.798 340.798 -235.618 345.471 -268.12 358.647C-294.122 369.188 -340.205 636.394 -359.996 768.679C-398.546 896.761 -470.89 1158.08 -451.872 1178.71C-428.1 1204.5 -174.681 1329.23 56.5198 1272.17C276.647 1217.83 320.707 1013.7 337.44 936.18C338.281 932.28 339.054 928.701 339.776 925.477Z" fill="#E7E6EB"/>
<path d="M1022.14 1118.68C1020.88 1120.21 1019.56 1121.69 1018.13 1123.09L994.228 1146.98C978.755 1162.45 978.755 1187.56 994.228 1203.04L1016.03 1224.85C1036.13 1244.95 1036.69 1277.34 1017.31 1298.13C997.956 1318.9 965.682 1320.61 944.209 1302.04C926.362 1286.61 922.506 1275.86 903.944 1271.72C895.467 1269.83 886.607 1275.04 880.02 1281.63L877.824 1283.85C869.832 1291.8 869.832 1304.72 877.824 1312.69L930.345 1365.2C949.878 1384.77 949.878 1416.49 930.345 1436.03C920.54 1445.84 907.748 1450.72 894.931 1450.72C882.114 1450.72 869.322 1445.84 859.517 1436.03L788.791 1365.28C773.65 1350.14 749.088 1350.14 733.972 1365.28L733.564 1365.69C718.653 1380.61 718.653 1404.79 733.564 1419.71C753.53 1439.68 753.53 1472.05 733.564 1492.02C713.597 1511.99 681.221 1511.99 661.255 1492.02L535.633 1366.35C519.982 1350.7 494.679 1350.44 478.721 1365.79C462.329 1381.55 462.073 1407.73 478.134 1423.82L479.41 1425.1C492.228 1437.95 492.151 1458.76 479.257 1471.51C466.465 1484.15 445.86 1484.08 433.145 1471.36L138.317 1176.43L-29.9948 1008.05C-66.7875 971.249 -67.0939 911.635 -30.6331 874.472C-12.0707 855.52 12.5174 846.044 37.0799 846.044C61.3361 846.044 85.6178 855.29 104.155 873.833L142.684 912.375C150.65 920.344 163.544 920.344 171.51 912.375L187.545 896.335C195.485 888.392 195.485 875.468 187.545 867.499L119.627 799.609C106.529 786.48 106.529 765.204 119.627 752.076C126.189 745.511 134.794 742.242 143.373 742.242C152.003 742.242 160.582 745.511 167.144 752.076L229.827 814.78C237.768 822.749 250.687 822.749 258.654 814.78L264.832 808.625C272.773 800.656 272.773 787.757 264.832 779.788L186.243 701.12C163.11 677.979 163.11 640.484 186.243 617.343C197.809 605.747 212.95 600 228.091 600C243.257 600 258.398 605.772 269.965 617.343L411.059 758.486C419.051 766.43 431.919 766.43 439.885 758.486L442.285 756.086C450.252 748.117 450.252 735.218 442.285 727.249L419.102 704.057C405.237 690.213 405.237 667.737 419.102 653.868C426.021 646.92 435.111 643.446 444.175 643.446C453.239 643.446 462.354 646.92 469.248 653.868L620.76 805.407C628.701 813.35 641.62 813.35 649.586 805.407C653.569 801.422 655.535 796.186 655.535 791.001C655.535 785.791 653.569 780.555 649.586 776.596L609.73 736.725C594.589 721.579 594.589 697.084 609.73 681.963C617.287 674.403 627.194 670.648 637.075 670.648C646.982 670.648 656.863 674.403 664.421 681.963L1018.15 1035.79C1040.83 1058.47 1042.15 1094.44 1022.14 1118.68Z" fill="#E7E6EB"/>
<path d="M1216.23 1167.06C1204.02 1179.27 1184.23 1179.27 1172.03 1167.06L1154.37 1149.38C1142.16 1137.17 1142.16 1117.37 1154.37 1105.16C1166.57 1092.95 1186.36 1092.95 1198.56 1105.16L1216.23 1122.84C1228.43 1135.05 1228.43 1154.85 1216.23 1167.06Z" fill="#DADDE6"/>
<path d="M256.575 1597.86C237.396 1617.04 206.289 1617.04 187.11 1597.86L159.343 1570.09C140.164 1550.91 140.164 1519.81 159.343 1500.63C178.522 1481.45 209.629 1481.45 228.808 1500.63L256.575 1528.39C275.754 1547.57 275.754 1578.68 256.575 1597.86Z" fill="#E7E6EB"/>
<path d="M762.003 789.289C749.801 801.5 730.011 801.5 717.809 789.289L700.144 771.611C687.942 759.401 687.942 739.597 700.144 727.386C712.345 715.176 732.136 715.176 744.337 727.386L762.003 745.064C774.205 757.275 774.205 777.079 762.003 789.289Z" fill="#DADDE6"/>
<rect x="0.214844" y="2140" width="1400" height="1566" fill="#303440"/>
<g style="mix-blend-mode:multiply">
<path d="M491.847 2976.37C493.766 2974.8 495.622 2973.14 497.381 2971.35L527.292 2941.42C546.678 2922.04 578.125 2922.04 597.511 2941.42L624.831 2968.73C650.008 2993.89 690.572 2994.59 716.612 2970.33C742.62 2946.09 744.764 2905.67 721.507 2878.78C702.184 2856.43 688.716 2851.6 683.534 2828.36C681.167 2817.74 687.693 2806.65 695.946 2798.4L698.73 2795.65C708.679 2785.64 724.866 2785.64 734.847 2795.65L800.619 2861.42C825.124 2885.88 864.856 2885.88 889.329 2861.42C901.613 2849.14 907.724 2833.12 907.724 2817.07C907.724 2801.02 901.613 2785 889.329 2772.72L800.715 2684.15C781.745 2665.19 781.745 2634.43 800.715 2615.51L801.227 2614.99C819.91 2596.32 850.205 2596.32 868.887 2614.99C893.904 2640 934.436 2640 959.452 2614.99C984.469 2589.99 984.469 2549.45 959.452 2524.44L802.059 2367.13C782.449 2347.53 782.129 2315.84 801.355 2295.86C821.093 2275.33 853.884 2275.01 874.038 2295.12L875.637 2296.72C891.728 2312.77 917.801 2312.68 933.764 2296.53C949.599 2280.51 949.503 2254.71 933.572 2238.78L564.177 1869.58L353.296 1658.8C307.197 1612.73 232.531 1612.34 185.985 1658C162.248 1681.25 150.38 1712.04 150.38 1742.8C150.38 1773.17 161.96 1803.58 185.185 1826.79L233.459 1875.04C243.44 1885.02 243.44 1901.17 233.459 1911.14L213.369 1931.22C203.42 1941.17 187.233 1941.17 177.252 1931.22L92.2209 1846.17C75.7778 1829.77 49.1296 1829.77 32.6865 1846.17C24.4649 1854.39 20.3701 1865.16 20.3701 1875.91C20.3701 1886.71 24.4649 1897.46 32.6865 1905.68L111.223 1984.17C121.204 1994.12 121.204 2010.3 111.223 2020.27L103.514 2028.01C93.5325 2037.95 77.3773 2037.95 67.3962 2028.01L-31.1346 1929.59C-60.118 1900.62 -107.08 1900.62 -136.064 1929.59C-150.587 1944.08 -157.785 1963.04 -157.785 1982C-157.785 2000.99 -150.555 2019.95 -136.064 2034.44L40.7161 2211.13C50.6652 2221.13 50.6651 2237.25 40.7161 2247.23L37.709 2250.23C27.7279 2260.21 11.5727 2260.21 1.59168 2250.23L-27.4557 2221.2C-44.7946 2203.84 -72.9463 2203.84 -90.3171 2221.2C-99.0186 2229.86 -103.369 2241.25 -103.369 2252.6C-103.369 2263.95 -99.0186 2275.36 -90.3171 2284L99.4827 2473.73C109.432 2483.68 109.432 2499.85 99.4827 2509.83C94.4922 2514.82 87.9341 2517.28 81.44 2517.28C74.914 2517.28 68.3559 2514.82 63.3974 2509.83L13.4602 2459.92C-5.51023 2440.96 -36.1891 2440.96 -55.1275 2459.92C-64.5967 2469.38 -69.2994 2481.79 -69.2994 2494.16C-69.2994 2506.57 -64.5967 2518.94 -55.1275 2528.41L388.037 2971.38C416.445 2999.77 461.488 3001.44 491.847 2976.37Z" fill="#E7E6EB"/>
</g>
<path d="M1670.2 4624.99C1672.46 4623.14 1674.66 4621.17 1676.74 4619.06L1712.1 4583.67C1735.02 4560.76 1772.19 4560.76 1795.11 4583.67L1827.41 4615.96C1857.17 4645.71 1905.12 4646.54 1935.91 4617.85C1966.66 4589.19 1969.19 4541.4 1941.69 4509.61C1918.85 4483.18 1902.93 4477.47 1896.8 4449.99C1894.01 4437.44 1901.72 4424.32 1911.48 4414.57L1914.77 4411.32C1926.53 4399.48 1945.67 4399.48 1957.47 4411.32L2035.22 4489.08C2064.19 4518 2111.16 4518 2140.09 4489.08C2154.61 4474.56 2161.84 4455.62 2161.84 4436.64C2161.84 4417.67 2154.61 4398.73 2140.09 4384.21L2035.33 4279.49C2012.91 4257.07 2012.91 4220.7 2035.33 4198.32L2035.94 4197.72C2058.02 4175.64 2093.84 4175.64 2115.92 4197.72C2145.5 4227.28 2193.41 4227.28 2222.99 4197.72C2252.56 4168.15 2252.56 4120.21 2222.99 4090.65L2036.92 3904.65C2013.74 3881.47 2013.36 3844.01 2036.09 3820.38C2059.42 3796.11 2098.19 3795.73 2122.01 3819.51L2123.9 3821.4C2142.93 3840.38 2173.75 3840.27 2192.62 3821.17C2211.34 3802.23 2211.23 3771.73 2192.39 3752.9L1755.7 3316.36L1506.4 3067.15C1451.91 3012.67 1363.64 3012.22 1308.61 3066.2C1280.55 3093.69 1266.52 3130.09 1266.52 3166.46C1266.52 3202.38 1280.21 3238.33 1307.67 3265.78L1364.74 3322.83C1376.53 3334.62 1376.53 3353.71 1364.74 3365.51L1340.99 3389.25C1329.22 3401.01 1310.09 3401.01 1298.29 3389.25L1197.77 3288.69C1178.33 3269.29 1146.83 3269.29 1127.39 3288.69C1117.67 3298.4 1112.83 3311.14 1112.83 3323.85C1112.83 3336.62 1117.67 3349.33 1127.39 3359.04L1220.23 3451.85C1232.03 3463.61 1232.03 3482.74 1220.23 3494.54L1211.12 3503.69C1199.32 3515.44 1180.22 3515.44 1168.42 3503.69L1051.94 3387.32C1017.67 3353.07 962.157 3353.07 927.894 3387.32C910.724 3404.45 902.215 3426.87 902.215 3449.28C902.215 3471.74 910.762 3494.16 927.894 3511.28L1136.88 3720.2C1148.64 3732.03 1148.64 3751.08 1136.88 3762.88L1133.32 3766.43C1121.52 3778.23 1102.43 3778.23 1090.63 3766.43L1056.29 3732.11C1035.79 3711.58 1002.51 3711.58 981.974 3732.11C971.687 3742.35 966.544 3755.81 966.544 3769.23C966.544 3782.65 971.687 3796.15 981.974 3806.35L1206.35 4030.69C1218.11 4042.45 1218.11 4061.58 1206.35 4073.37C1200.45 4079.27 1192.7 4082.18 1185.02 4082.18C1177.31 4082.18 1169.55 4079.27 1163.69 4073.37L1104.66 4014.36C1082.23 3991.94 1045.96 3991.94 1023.57 4014.36C1012.38 4025.55 1006.82 4040.22 1006.82 4054.85C1006.82 4069.52 1012.38 4084.15 1023.57 4095.34L1547.47 4619.09C1581.06 4652.66 1634.31 4654.63 1670.2 4624.99Z" fill="#E7E6EB" fill-opacity="0.03"/>
</svg>
