<svg width="1400" height="3800" fill="none" xmlns="http://www.w3.org/2000/svg"><path d="M642.379-98.289c-72.722-123.832-206.54-160.477-264.359-163.32l913.16-497.684 106.5 217.302c133.86 246.961 399.06 751.464 389.06 793.782-12.49 52.897-246.07 322.737-573.41 234.275C885.99 397.605 733.281 56.502 642.379-98.289z" fill="#C5CAD7" fill-opacity=".46"/><path d="M1074.78 201.561c-15.25 15.252-39.99 15.252-55.24 0L911.653 93.681c-15.251-15.252-15.251-39.99 0-55.242 15.25-15.252 39.985-15.252 55.235 0l107.862 107.88c15.28 15.252 15.28 39.989.03 55.242zm111.02 112.023c-15.22 15.221-39.91 15.221-55.13 0l-22.04-22.037c-15.22-15.222-15.22-39.909 0-55.131 15.22-15.221 39.91-15.221 55.13 0l22.04 22.037c15.22 15.222 15.22 39.909 0 55.131zm50-165c-15.22 15.221-39.91 15.221-55.13 0l-22.04-22.037c-15.22-15.222-15.22-39.91 0-55.13 15.22-15.222 39.91-15.222 55.13 0l22.04 22.036c15.22 15.222 15.22 39.909 0 55.131z" fill="#ECEEF3"/><path fill-rule="evenodd" clip-rule="evenodd" d="M339.776 925.477c.723-3.224 1.551-6.791 2.454-10.677 17.948-77.25 65.206-280.664-110.689-423.734C46.798 340.798-235.618 345.471-268.12 358.647c-26.002 10.541-72.085 277.747-91.876 410.032-38.55 128.082-110.894 389.401-91.876 410.031 23.772 25.79 277.191 150.52 508.392 93.46 220.127-54.34 264.187-258.47 280.92-335.99.841-3.9 1.614-7.479 2.336-10.703z" fill="#E7E6EB"/><path d="M1022.14 1118.68c-1.26 1.53-2.58 3.01-4.01 4.41l-23.902 23.89c-15.473 15.47-15.473 40.58 0 56.06l21.802 21.81c20.1 20.1 20.66 52.49 1.28 73.28-19.354 20.77-51.628 22.48-73.101 3.91-17.847-15.43-21.703-26.18-40.265-30.32-8.477-1.89-17.337 3.32-23.924 9.91l-2.196 2.22c-7.992 7.95-7.992 20.87 0 28.84l52.521 52.51c19.533 19.57 19.533 51.29 0 70.83-9.805 9.81-22.597 14.69-35.414 14.69s-25.609-4.88-35.414-14.69l-70.726-70.75c-15.141-15.14-39.703-15.14-54.819 0l-.408.41c-14.911 14.92-14.911 39.1 0 54.02 19.966 19.97 19.966 52.34 0 72.31-19.967 19.97-52.343 19.97-72.309 0l-125.622-125.67c-15.651-15.65-40.954-15.91-56.912-.56-16.392 15.76-16.648 41.94-.587 58.03l1.276 1.28c12.818 12.85 12.741 33.66-.153 46.41-12.792 12.64-33.397 12.57-46.112-.15l-294.828-294.93-168.312-168.38c-36.792-36.801-37.099-96.415-.638-133.578 18.562-18.952 43.15-28.428 67.713-28.428 24.256 0 48.538 9.246 67.075 27.789l38.529 38.542c7.966 7.969 20.86 7.969 28.826 0l16.035-16.04c7.94-7.943 7.94-20.867 0-28.836l-67.918-67.89c-13.098-13.129-13.098-34.405 0-47.533 6.562-6.565 15.167-9.834 23.746-9.834 8.63 0 17.209 3.269 23.771 9.834l62.683 62.704c7.941 7.969 20.86 7.969 28.827 0l6.178-6.155c7.941-7.969 7.941-20.868 0-28.837l-78.589-78.668c-23.133-23.141-23.133-60.636 0-83.777C197.809 605.747 212.95 600 228.091 600c15.166 0 30.307 5.772 41.874 17.343l141.094 141.143c7.992 7.944 20.86 7.944 28.826 0l2.4-2.4c7.967-7.969 7.967-20.868 0-28.837l-23.183-23.192c-13.865-13.844-13.865-36.32 0-50.189a35.295 35.295 0 0125.073-10.422c9.064 0 18.179 3.474 25.073 10.422L620.76 805.407c7.941 7.943 20.86 7.943 28.826 0 3.983-3.985 5.949-9.221 5.949-14.406 0-5.21-1.966-10.446-5.949-14.405l-39.856-39.871c-15.141-15.146-15.141-39.641 0-54.762 7.557-7.56 17.464-11.315 27.345-11.315 9.907 0 19.788 3.755 27.346 11.315l353.729 353.827c22.68 22.68 24 58.65 3.99 82.89z" fill="#E7E6EB"/><path d="M1216.23 1167.06c-12.21 12.21-32 12.21-44.2 0l-17.66-17.68c-12.21-12.21-12.21-32.01 0-44.22 12.2-12.21 31.99-12.21 44.19 0l17.67 17.68c12.2 12.21 12.2 32.01 0 44.22z" fill="#DADDE6"/><path d="M256.575 1597.86c-19.179 19.18-50.286 19.18-69.465 0l-27.767-27.77c-19.179-19.18-19.179-50.28 0-69.46 19.179-19.18 50.286-19.18 69.465 0l27.767 27.76c19.179 19.18 19.179 50.29 0 69.47z" fill="#E7E6EB"/><path d="M762.003 789.289c-12.202 12.211-31.992 12.211-44.194 0l-17.665-17.678c-12.202-12.21-12.202-32.014 0-44.225 12.201-12.21 31.992-12.21 44.193 0l17.666 17.678c12.202 12.211 12.202 32.015 0 44.225z" fill="#DADDE6"/><path fill="#303440" d="M.215 2140h1400v1566H.215z"/><path d="M491.847 2976.37a68.857 68.857 0 005.534-5.02l29.911-29.93c19.386-19.38 50.833-19.38 70.219 0l27.32 27.31c25.177 25.16 65.741 25.86 91.781 1.6 26.008-24.24 28.152-64.66 4.895-91.55-19.323-22.35-32.791-27.18-37.973-50.42-2.367-10.62 4.159-21.71 12.412-29.96l2.784-2.75c9.949-10.01 26.136-10.01 36.117 0l65.772 65.77c24.505 24.46 64.237 24.46 88.71 0 12.284-12.28 18.395-28.3 18.395-44.35s-6.111-32.07-18.395-44.35l-88.614-88.57c-18.97-18.96-18.97-49.72 0-68.64l.512-.52c18.683-18.67 48.978-18.67 67.66 0 25.017 25.01 65.549 25.01 90.565 0 25.017-25 25.017-65.54 0-90.55l-157.393-157.31c-19.61-19.6-19.93-51.29-.704-71.27 19.738-20.53 52.529-20.85 72.683-.74l1.599 1.6c16.091 16.05 42.164 15.96 58.127-.19 15.835-16.02 15.739-41.82-.192-57.75l-369.395-369.2-210.881-210.78c-46.099-46.07-120.765-46.46-167.311-.8-23.737 23.25-35.605 54.04-35.605 84.8 0 30.37 11.58 60.78 34.805 83.99l48.274 48.25c9.981 9.98 9.981 26.13 0 36.1l-20.09 20.08c-9.949 9.95-26.136 9.95-36.117 0l-85.031-85.05c-16.443-16.4-43.091-16.4-59.535 0-8.221 8.22-12.316 18.99-12.316 29.74 0 10.8 4.095 21.55 12.317 29.77l78.536 78.49c9.981 9.95 9.981 26.13 0 36.1l-7.709 7.74c-9.981 9.94-26.137 9.94-36.118 0l-98.53-98.42c-28.984-28.97-75.946-28.97-104.93 0-14.523 14.49-21.721 33.45-21.721 52.41 0 18.99 7.23 37.95 21.721 52.44l176.78 176.69c9.95 10 9.95 26.12 0 36.1l-3.007 3c-9.981 9.98-26.136 9.98-36.117 0l-29.048-29.03c-17.339-17.36-45.49-17.36-62.861 0-8.702 8.66-13.052 20.05-13.052 31.4 0 11.35 4.35 22.76 13.052 31.4l189.8 189.73c9.949 9.95 9.949 26.12 0 36.1-4.99 4.99-11.549 7.45-18.043 7.45-6.526 0-13.084-2.46-18.043-7.45l-49.937-49.91c-18.97-18.96-49.65-18.96-68.588 0-9.469 9.46-14.171 21.87-14.171 34.24 0 12.41 4.702 24.78 14.172 34.25l443.164 442.97c28.408 28.39 73.451 30.06 103.81 4.99z" fill="#E7E6EB"/><path d="M1670.2 4624.99a82.92 82.92 0 006.54-5.93l35.36-35.39c22.92-22.91 60.09-22.91 83.01 0l32.3 32.29c29.76 29.75 77.71 30.58 108.5 1.89 30.75-28.66 33.28-76.45 5.78-108.24-22.84-26.43-38.76-32.14-44.89-59.62-2.79-12.55 4.92-25.67 14.68-35.42l3.29-3.25c11.76-11.84 30.9-11.84 42.7 0l77.75 77.76c28.97 28.92 75.94 28.92 104.87 0 14.52-14.52 21.75-33.46 21.75-52.44 0-18.97-7.23-37.91-21.75-52.43l-104.76-104.72c-22.42-22.42-22.42-58.79 0-81.17l.61-.6c22.08-22.08 57.9-22.08 79.98 0 29.58 29.56 77.49 29.56 107.07 0 29.57-29.57 29.57-77.51 0-107.07l-186.07-186c-23.18-23.18-23.56-60.64-.83-84.27 23.33-24.27 62.1-24.65 85.92-.87l1.89 1.89c19.03 18.98 49.85 18.87 68.72-.23 18.72-18.94 18.61-49.44-.23-68.27l-436.69-436.54-249.3-249.21c-54.49-54.48-142.76-54.93-197.79-.95-28.06 27.49-42.09 63.89-42.09 100.26 0 35.92 13.69 71.87 41.15 99.32l57.07 57.05c11.79 11.79 11.79 30.88 0 42.68l-23.75 23.74c-11.77 11.76-30.9 11.76-42.7 0l-100.52-100.56c-19.44-19.4-50.94-19.4-70.38 0-9.72 9.71-14.56 22.45-14.56 35.16 0 12.77 4.84 25.48 14.56 35.19l92.84 92.81c11.8 11.76 11.8 30.89 0 42.69l-9.11 9.15c-11.8 11.75-30.9 11.75-42.7 0l-116.48-116.37c-34.27-34.25-89.783-34.25-124.046 0-17.17 17.13-25.679 39.55-25.679 61.96 0 22.46 8.547 44.88 25.679 62l208.986 208.92c11.76 11.83 11.76 30.88 0 42.68l-3.56 3.55c-11.8 11.8-30.89 11.8-42.69 0l-34.34-34.32c-20.5-20.53-53.78-20.53-74.316 0-10.287 10.24-15.43 23.7-15.43 37.12 0 13.42 5.143 26.92 15.43 37.12l224.376 224.34c11.76 11.76 11.76 30.89 0 42.68-5.9 5.9-13.65 8.81-21.33 8.81-7.71 0-15.47-2.91-21.33-8.81l-59.03-59.01c-22.43-22.42-58.7-22.42-81.09 0-11.19 11.19-16.75 25.86-16.75 40.49 0 14.67 5.56 29.3 16.75 40.49l523.9 523.75c33.59 33.57 86.84 35.54 122.73 5.9z" fill="#E7E6EB" fill-opacity=".03"/></svg>