<svg width="147" height="95" viewBox="0 0 147 95" fill="none" xmlns="http://www.w3.org/2000/svg">
<path fill-rule="evenodd" clip-rule="evenodd" d="M40.9841 0H123.442C130.872 0 136.925 6.06678 136.925 13.5144V61.5846H141.013C142.492 61.5846 143.881 62.2071 144.886 63.305C145.868 64.4029 146.343 65.863 146.196 67.3231C145.462 74.5444 139.466 80 132.25 80H32.1872C24.9714 80 18.9751 74.5444 18.2411 67.3231C18.0943 65.8517 18.5685 64.4029 19.551 63.305C20.5334 62.2071 21.9337 61.5846 23.4017 61.5846H27.5009V13.5144C27.5009 6.06678 33.5423 0 40.9841 0Z" fill="#ECEEF3"/>
<path d="M22.9924 90.7102C16.9848 90.7102 12.1064 85.8093 12.1064 79.7878V28.5144C12.1064 22.4929 16.9848 17.6033 22.9924 17.6033H105.45C111.457 17.6033 116.336 22.5042 116.336 28.5144V79.7878C116.336 85.8093 111.446 90.7102 105.45 90.7102H22.9924Z" fill="#6E7EB6"/>
<path d="M63.6677 20.2065H22.9923C18.4188 20.2065 14.7036 23.9304 14.7036 28.5144V79.7878C14.7036 84.3831 18.4188 88.1069 22.9923 88.1069H63.6677V20.2065Z" fill="#6E7EB6"/>
<path d="M107.245 78.9728C107.245 80.6593 105.879 82.0289 104.196 82.0289H24.2457C22.5632 82.0289 21.1968 80.6593 21.1968 78.9728V29.3407C21.1968 27.6542 22.5632 26.2847 24.2457 26.2847H104.196C105.879 26.2847 107.245 27.6542 107.245 29.3407V78.9728Z" fill="#7289DA"/>
<path d="M25.0297 20.3H103.4V15.7H25.0297V20.3ZM14.5148 30.0798C14.5148 24.8179 19.0985 20.3 25.0297 20.3V15.7C16.8152 15.7 9.91484 22.0276 9.91484 30.0798H14.5148ZM14.5148 75.9101V30.0798H9.91484V75.9101H14.5148ZM25.0297 85.7C19.1092 85.7 14.5148 81.1821 14.5148 75.9101H9.91484C9.91484 83.9724 16.8259 90.3 25.0297 90.3V85.7ZM103.4 85.7H25.0297V90.3H103.4V85.7ZM113.915 75.9101C113.915 81.1833 109.33 85.7 103.4 85.7V90.3C111.616 90.3 118.515 83.9712 118.515 75.9101H113.915ZM113.915 30.0798V75.9101H118.515V30.0798H113.915ZM103.4 20.3C109.322 20.3 113.915 24.8191 113.915 30.0798H118.515C118.515 22.0264 111.602 15.7 103.4 15.7V20.3Z" fill="#10101A"/>
<path d="M14.1833 92.3967C8.3112 92.3967 3.42157 87.9598 2.82307 82.0628C2.74402 81.3271 2.99245 80.6027 3.47803 80.0481C3.9749 79.5048 4.67503 79.1879 5.40904 79.1879H123.02C123.754 79.1879 124.454 79.5048 124.951 80.0481C125.448 80.5914 125.685 81.3271 125.606 82.0515C125.007 87.9485 120.129 92.3854 114.246 92.3854H14.1833V92.3967Z" fill="#7289DA"/>
<path d="M63.7121 81.7911H5.40918C5.86088 86.2733 9.59868 89.7821 14.1834 89.7821H63.7121V81.7911Z" fill="#6E7EB6"/>
<path d="M58.6309 85.4584H69.7991" stroke="#ECEEF3" stroke-width="4" stroke-miterlimit="10" stroke-linecap="round" stroke-linejoin="round"/>
<path fill-rule="evenodd" clip-rule="evenodd" d="M69.1924 44C67.3854 44 65.6889 44.7042 64.4115 45.9787L64.0798 46.3075L63.751 45.9787C62.4764 44.7042 60.7771 44 58.973 44C57.166 44 55.4695 44.7013 54.1921 45.9787C51.5558 48.615 51.5558 52.9042 54.1921 55.5376L61.877 63.1992C62.4677 63.787 63.2505 64.11 64.0827 64.11C64.9149 64.11 65.6977 63.787 66.2854 63.1992L70.8015 58.6977L73.9704 55.5376C76.6067 52.9012 76.6067 48.6121 73.9733 45.9758C72.6958 44.7013 70.9965 44 69.1924 44Z" fill="#ECEEF3"/>
<mask id="path-10-inside-1" fill="white">
<path fill-rule="evenodd" clip-rule="evenodd" d="M5.40171 76H123.013C124.492 76 125.881 76.6225 126.886 77.7204C127.868 78.8183 128.343 80.2784 128.196 81.7385C127.462 88.9598 121.466 94.4154 114.25 94.4154H14.1872C6.97136 94.4154 0.975067 88.9598 0.241057 81.7385C0.0942553 80.2671 0.568538 78.8183 1.55098 77.7204C2.53343 76.6225 3.93369 76 5.40171 76Z"/>
</mask>
<path d="M126.886 77.7204L130.314 74.653L130.297 74.6336L130.279 74.6144L126.886 77.7204ZM128.196 81.7385L132.772 82.2037L132.773 82.1987L128.196 81.7385ZM0.241057 81.7385L-4.33623 82.1952L-4.33536 82.2037L0.241057 81.7385ZM1.55098 77.7204L-1.87696 74.653V74.653L1.55098 77.7204ZM123.013 71.4H5.40171V80.6H123.013V71.4ZM130.279 74.6144C128.421 72.5851 125.81 71.4 123.013 71.4V80.6C123.174 80.6 123.341 80.66 123.493 80.8264L130.279 74.6144ZM132.773 82.1987C133.049 79.4537 132.158 76.7134 130.314 74.653L123.458 80.7879C123.579 80.9233 123.637 81.1032 123.619 81.2783L132.773 82.1987ZM114.25 99.0154C123.852 99.0154 131.802 91.7474 132.772 82.2037L123.619 81.2734C123.121 86.1723 119.079 89.8154 114.25 89.8154V99.0154ZM14.1872 99.0154H114.25V89.8154H14.1872V99.0154ZM-4.33536 82.2037C-3.36529 91.7474 4.58502 99.0154 14.1872 99.0154V89.8154C9.3577 89.8154 5.31543 86.1723 4.81748 81.2734L-4.33536 82.2037ZM-1.87696 74.653C-3.71887 76.7114 -4.61125 79.4385 -4.33622 82.1952L4.81833 81.2819C4.79976 81.0958 4.85595 80.9253 4.97893 80.7879L-1.87696 74.653ZM5.40171 71.4C2.63003 71.4 -0.0185786 72.5762 -1.87696 74.653L4.97893 80.7879C5.08543 80.6689 5.23735 80.6 5.40171 80.6V71.4Z" fill="black" mask="url(#path-10-inside-1)"/>
</svg>
