<svg width="110" height="118" viewBox="0 0 110 118" fill="none" xmlns="http://www.w3.org/2000/svg">
<path fill-rule="evenodd" clip-rule="evenodd" d="M71.2511 9.47755C76.83 3.89731 86.8872 0 95.7299 0C98.8546 0 101.752 0.468183 104.332 1.40455C105.458 1.7462 106.458 2.41684 107.204 3.34055C107.647 3.89731 108.001 4.52999 108.216 5.22594C112.277 16.2599 107.394 31.2418 100.196 38.4417L89.9596 48.6801C90.0346 49.1282 90.0579 49.59 90.0245 50.0577L87.9118 79.9834C87.7727 81.8435 86.7607 83.5265 85.1793 84.5134L65.2295 96.9393C64.2933 97.534 63.218 97.825 62.1554 97.825C61.1433 97.825 60.1439 97.572 59.2458 97.0532C57.3861 95.9776 56.2729 93.9783 56.3361 91.8272L56.8319 76.2845C56.2648 76.0082 55.7325 75.6342 55.2608 75.1624L34.5266 54.4232C34.105 54.0063 33.7558 53.5319 33.4854 53.0184L18.0177 53.5121H17.8279C15.7532 53.5121 13.8303 52.4112 12.793 50.6018C11.7177 48.7417 11.7557 46.4387 12.8942 44.6166L25.317 24.6619C26.3038 23.0802 27.9863 22.0552 29.8459 21.9287L59.7644 19.8155C59.9036 19.8029 60.0427 19.8029 60.1819 19.8029C60.4178 19.8029 60.6517 19.8172 60.8824 19.8452L71.2511 9.47755ZM39.8214 70.0182C40.7197 70.9163 40.7199 72.3726 39.8218 73.2709L15.0773 98.0213C14.1792 98.9196 12.723 98.9198 11.8246 98.0217C10.9263 97.1236 10.9261 95.6673 11.8242 94.769L36.5687 70.0186C37.4668 69.1203 38.9231 69.1201 39.8214 70.0182ZM28.7146 62.161C29.6127 61.2627 29.6126 59.8064 28.7142 58.9083C27.8159 58.0102 26.3596 58.0104 25.4615 58.9087L6.97912 77.3956C6.08102 78.2939 6.0812 79.7502 6.97952 80.6483C7.87783 81.5464 9.33411 81.5462 10.2322 80.6479L28.7146 62.161ZM50.7767 80.9762C51.675 81.8743 51.6752 83.3306 50.7771 84.2289L32.2947 102.716C31.3966 103.614 29.9403 103.614 29.042 102.716C28.1437 101.818 28.1435 100.362 29.0416 99.4635L47.524 80.9766C48.4221 80.0783 49.8784 80.0781 50.7767 80.9762Z" fill="#ECEEF3"/>
<path d="M56.4693 106.549L56.4575 106.542L56.4457 106.535C56.2663 106.433 56.1457 106.23 56.1539 105.997L56.1542 105.989L56.7483 87.3621C56.7484 87.3609 56.7484 87.3597 56.7485 87.3584C56.7552 87.2012 56.8206 87.0511 56.9048 86.9568C56.9052 86.9563 56.9056 86.9559 56.9061 86.9554L78.3621 63.2557C78.5004 63.1072 78.671 63.0424 78.8275 63.0424C78.9039 63.0424 78.9938 63.0584 79.0785 63.0921C79.2967 63.188 79.4493 63.4258 79.4303 63.6914L79.4302 63.6933L77.3175 93.619L77.317 93.626C77.3041 93.8178 77.2054 93.9848 77.0347 94.0905L77.0296 94.0937L57.0797 106.52L57.0433 106.542L57.0078 106.566C56.9808 106.584 56.9518 106.598 56.9167 106.608C56.8801 106.619 56.83 106.627 56.765 106.627C56.654 106.627 56.5624 106.603 56.4693 106.549Z" fill="#6E7EB6" stroke="black" stroke-width="4.6"/>
<path d="M31.1719 63.9944C31.0972 61.6956 31.0972 61.6956 31.097 61.6956L31.0964 61.6956L31.0938 61.6957L31.0837 61.696L31.0436 61.6973L30.8872 61.7024L30.2938 61.7217L28.1752 61.7905L21.7438 61.9993C20.3904 62.0432 19.0468 62.0867 17.8189 62.1265C14.7568 62.2258 12.4145 62.3017 12.4365 62.3017C12.2261 62.3017 12.0251 62.1885 11.9151 62.0037C11.7948 61.7857 11.8106 61.5545 11.9201 61.3791L11.9222 61.3759L24.345 41.4211L24.345 41.4211L24.3482 41.416C24.4539 41.2451 24.6209 41.1467 24.812 41.1338L24.812 41.1338L24.8189 41.1333L54.6884 39.0236C54.7272 39.0221 54.76 39.02 54.7849 39.0183C54.7993 39.0173 54.8134 39.0162 54.8263 39.0152C55.0444 39.0329 55.2388 39.1694 55.3286 39.3803C55.4364 39.637 55.3656 39.9165 55.1833 40.0814L55.182 40.0826L31.4875 61.5431L31.4785 61.5513L31.4695 61.5596C31.3781 61.6441 31.2615 61.6924 31.1301 61.6947L31.1136 61.695L31.0972 61.6956L31.1719 63.9944Z" fill="#7289DA" stroke="black" stroke-width="4.6"/>
<path d="M53.9837 87.9603C53.2373 87.9603 52.491 87.682 51.9217 87.1125L31.2001 66.3733C30.6562 65.8292 30.3525 65.0826 30.3525 64.3107C30.3525 63.5389 30.6562 62.7923 31.2001 62.2482L67.9246 25.5401C72.9975 20.4533 82.2197 16.9103 90.3414 16.9103C93.2004 16.9103 95.8064 17.3406 98.1214 18.201C98.5515 18.3275 98.9437 18.5427 99.26 18.8463C99.6648 19.2133 99.9684 19.6941 100.108 20.2382C103.726 30.0701 99.1714 43.9638 92.7576 50.3791L56.0458 87.0999C55.4765 87.6693 54.7301 87.9603 53.9837 87.9603Z" fill="#7289DA"/>
<path d="M99.0511 19C102.604 28.1536 98.0982 41.9176 91.9453 47.9931L52.4409 87L41.3057 76.0049L99.0511 19Z" fill="#6E7EB6"/>
<path d="M77.4613 34.2711C75.6522 36.0806 75.6522 39.0289 77.4613 40.8383C79.2703 42.6478 82.2052 42.6478 84.0269 40.8383C85.8359 39.0289 85.8359 36.0806 84.0269 34.2711C82.2179 32.4616 79.2703 32.4616 77.4613 34.2711Z" stroke="#10131A" stroke-width="4.6" stroke-miterlimit="10" stroke-linejoin="round"/>
<path d="M32.805 85.6447L8.06055 110.395" stroke="#7289DA" stroke-width="4.6" stroke-miterlimit="10" stroke-linecap="round" stroke-linejoin="round"/>
<path d="M21.6973 74.5349L3.21484 93.0218" stroke="#7289DA" stroke-width="4.6" stroke-miterlimit="10" stroke-linecap="round" stroke-linejoin="round"/>
<path d="M43.7598 96.6028L25.2773 115.09" stroke="#7289DA" stroke-width="4.6" stroke-miterlimit="10" stroke-linecap="round" stroke-linejoin="round"/>
<path d="M48.0234 60.1477L61.3065 47.4941" stroke="#ECEEF3" stroke-width="4.6" stroke-miterlimit="10" stroke-linecap="round" stroke-linejoin="round"/>
<mask id="path-11-inside-1" fill="white">
<path fill-rule="evenodd" clip-rule="evenodd" d="M65.738 22.4776C71.3168 16.8973 81.374 13 90.2167 13C93.3414 13 96.2384 13.4682 98.8191 14.4046C99.945 14.7462 100.944 15.4168 101.691 16.3406C102.134 16.8973 102.488 17.53 102.703 18.2259C106.764 29.2599 101.881 44.2418 94.6824 51.4417L57.9705 88.1624C56.832 89.3013 55.3519 89.8707 53.8591 89.8707C52.379 89.8707 50.8862 89.3013 49.7477 88.1624L29.0135 67.4232C27.9129 66.335 27.3057 64.8545 27.3057 63.3107C27.3057 61.767 27.9255 60.2865 29.0135 59.1983L65.738 22.4776Z"/>
</mask>
<path d="M65.738 22.4776L68.9905 25.7304L68.9911 25.7298L65.738 22.4776ZM98.8191 14.4046L97.2502 18.7287L97.3657 18.7707L97.4834 18.8064L98.8191 14.4046ZM101.691 16.3406L105.291 13.4774L105.28 13.4634L105.269 13.4495L101.691 16.3406ZM102.703 18.2259L98.3079 19.5841L98.3438 19.7004L98.3859 19.8147L102.703 18.2259ZM94.6824 51.4417L91.4293 48.1894L94.6824 51.4417ZM57.9705 88.1624L54.7175 84.9101L57.9705 88.1624ZM49.7477 88.1624L46.4946 91.4147H46.4946L49.7477 88.1624ZM29.0135 67.4232L32.2666 64.1709L32.2572 64.1615L32.2477 64.1521L29.0135 67.4232ZM29.0135 59.1983L25.761 55.9455L25.7604 55.946L29.0135 59.1983ZM90.2167 8.4C80.3127 8.4 69.0326 12.6759 62.4849 19.2253L68.9911 25.7298C73.6011 21.1187 82.4354 17.6 90.2167 17.6V8.4ZM100.388 10.0804C97.2333 8.93574 93.7952 8.4 90.2167 8.4V17.6C92.8876 17.6 95.2435 18.0006 97.2502 18.7287L100.388 10.0804ZM105.269 13.4495C103.942 11.8076 102.161 10.6115 100.155 10.0027L97.4834 18.8064C97.7291 18.8809 97.9467 19.0261 98.1128 19.2316L105.269 13.4495ZM107.098 16.8678C106.693 15.5595 106.045 14.4249 105.291 13.4774L98.0904 19.2037C98.2225 19.3697 98.2821 19.5005 98.3079 19.5841L107.098 16.8678ZM97.9355 54.694C102.216 50.4125 105.581 44.1 107.358 37.4612C109.136 30.8209 109.471 23.2988 107.02 16.6372L98.3859 19.8147C99.995 24.187 99.9193 29.6729 98.4712 35.0819C97.0227 40.4925 94.347 45.2709 91.4293 48.1894L97.9355 54.694ZM61.2236 91.4147L97.9355 54.694L91.4293 48.1894L54.7175 84.9101L61.2236 91.4147ZM53.8591 94.4707C56.5323 94.4707 59.1947 93.4442 61.2236 91.4147L54.7175 84.9101C54.4693 85.1583 54.1714 85.2707 53.8591 85.2707V94.4707ZM46.4946 91.4147C48.5272 93.4478 51.2039 94.4707 53.8591 94.4707V85.2707C53.5541 85.2707 53.2453 85.1547 53.0008 84.9101L46.4946 91.4147ZM25.7604 70.6755L46.4946 91.4147L53.0008 84.9101L32.2666 64.1709L25.7604 70.6755ZM22.7057 63.3107C22.7057 66.063 23.7902 68.7276 25.7793 70.6942L32.2477 64.1521C32.0356 63.9423 31.9057 63.646 31.9057 63.3107H22.7057ZM25.7604 55.946C23.8182 57.8887 22.7057 60.5356 22.7057 63.3107H31.9057C31.9057 62.9984 32.0328 62.6844 32.2666 62.4506L25.7604 55.946ZM62.4854 19.2247L25.761 55.9455L32.266 62.4512L68.9905 25.7304L62.4854 19.2247Z" fill="black" mask="url(#path-11-inside-1)"/>
</svg>
