<svg width="106" height="106" viewBox="0 0 106 106" fill="none" xmlns="http://www.w3.org/2000/svg">
<path fill-rule="evenodd" clip-rule="evenodd" d="M41.7083 7.3589C43.8783 2.8214 48.3033 0 53.2248 0C58.1604 0 62.5713 2.8214 64.7554 7.34436L72.5418 23.531C73.3644 25.2471 74.9529 26.4397 76.7966 26.716L94.2131 29.3047C99.0779 30.0319 103.049 33.4641 104.581 38.2634C106.113 43.0772 104.864 48.2546 101.333 51.7886L88.7386 64.3831C87.4054 65.7066 86.7955 67.6263 87.1075 69.5169L90.0859 87.3034C90.7242 91.1428 89.703 95.0404 87.2636 97.9927C84.7957 100.989 81.2075 102.705 77.4207 102.705C75.3216 102.705 73.3077 102.196 71.4355 101.178L55.8628 92.7862C55.0544 92.3499 54.1466 92.1172 53.2248 92.1172C52.3029 92.1172 51.3952 92.3499 50.5868 92.7862L35.014 101.178C33.1561 102.181 31.0854 102.705 29.0289 102.705C25.242 102.705 21.6538 100.974 19.186 97.9781C16.7465 95.0113 15.7254 91.1137 16.3636 87.2743L19.342 69.5024C19.654 67.6117 19.0441 65.692 17.711 64.354L5.10242 51.7596C1.58508 48.2255 0.336986 43.0481 1.86873 38.2488C3.40048 33.4496 7.37167 30.0173 12.2506 29.3047L29.6529 26.716C31.4967 26.4397 33.0993 25.2471 33.9219 23.531L41.7083 7.3589Z" fill="#ECEEF3"/>
<path d="M69.8241 103.004C68.4118 103.004 67.0384 102.665 65.7427 101.974L51.516 94.4576C50.3499 93.8454 49.0413 93.5197 47.7197 93.5197C46.398 93.5197 45.0894 93.8454 43.9233 94.4576L29.6966 101.974C28.4139 102.652 27.0404 103.004 25.6152 103.004C23.0368 103.004 20.5879 101.857 18.9035 99.838C17.245 97.8708 16.5583 95.2654 16.9859 92.6989L19.7068 76.7663C20.1603 74.1087 19.2793 71.386 17.3616 69.51L5.8559 58.2413C3.44592 55.8703 2.60372 52.418 3.64027 49.2002C4.67682 45.9955 7.39777 43.7026 10.7147 43.2076L26.6129 40.8887C29.269 40.4979 31.5624 38.8173 32.7544 36.3942L39.8678 21.9077C41.3578 18.8723 44.3638 16.9963 47.7197 16.9963C51.0755 16.9963 54.0815 18.8723 55.5715 21.9077L62.6849 36.3942C63.8769 38.8173 66.1703 40.4979 68.8264 40.8887L84.7375 43.2076C88.0545 43.6896 90.7625 45.9824 91.799 49.2002C92.8356 52.418 91.9934 55.8703 89.5834 58.2413L78.0777 69.5231C76.16 71.399 75.279 74.1218 75.7325 76.7794L78.4534 92.712C78.894 95.2784 78.1943 97.8839 76.5358 99.851C74.8514 101.844 72.4025 103.004 69.8241 103.004Z" fill="#6E7EB6"/>
<path d="M48.2148 16.0001C45.9211 15.9858 43.6273 17.175 42.4517 19.5676L34.5812 35.4993C32.7891 39.1241 29.3055 41.66 25.3057 42.233L7.70088 44.7976C2.45385 45.5569 0.360769 51.9898 4.14551 55.7005L16.876 68.0935C19.7719 70.9159 21.1052 75.0135 20.417 78.9964L17.4065 96.5184C16.5033 101.733 21.994 105.716 26.6819 103.252L42.423 94.9854C44.2294 94.0398 46.2078 93.567 48.1862 93.5814V16.0001H48.2148Z" fill="#7289DA"/>
<path d="M45.2148 35.5605C45.2148 35.5605 48.6873 43.1424 52.8724 50.5942" stroke="#ECEEF3" stroke-width="4.6" stroke-miterlimit="10" stroke-linecap="round" stroke-linejoin="round"/>
<path d="M37.8654 23.1551L39.9287 24.1715L39.9314 24.166L37.8654 23.1551ZM57.5884 23.1429L59.652 22.1273L59.6505 22.1241L57.5884 23.1429ZM64.2518 36.6818L66.3168 35.669L66.3154 35.6661L64.2518 36.6818ZM67.8929 39.3457L67.5596 41.6215L67.5623 41.6218L67.8929 39.3457ZM82.7974 41.511L83.1299 39.2351L83.1281 39.2349L82.7974 41.511ZM91.6698 49.0042L93.8568 48.2922L93.8561 48.2902L91.6698 49.0042ZM88.8903 60.3169L90.498 61.9617L90.4986 61.9612L88.8903 60.3169ZM78.1125 70.8512L79.7141 72.5019L79.7201 72.496L78.1125 70.8512ZM76.7167 75.1451L74.4488 75.5281L74.4497 75.5335L76.7167 75.1451ZM79.2655 90.022L81.533 89.6364L81.5325 89.6336L79.2655 90.022ZM76.8502 98.9627L75.0938 97.4778L75.0915 97.4805L76.8502 98.9627ZM63.305 101.627L64.3845 99.5957L64.3768 99.5917L63.305 101.627ZM49.9784 94.6079L48.9053 96.6423L48.9066 96.643L49.9784 94.6079ZM45.4633 94.6079L46.5351 96.643L46.5364 96.6423L45.4633 94.6079ZM32.1366 101.627L31.0648 99.5917L31.0629 99.5927L32.1366 101.627ZM18.5915 98.9506L16.8315 100.431L16.8328 100.433L18.5915 98.9506ZM16.1762 89.9977L13.9093 89.609L13.9087 89.6121L16.1762 89.9977ZM18.725 75.133L20.9919 75.5217L20.9929 75.5159L18.725 75.133ZM17.3292 70.8268L18.9398 69.1849L18.9359 69.1811L17.3292 70.8268ZM6.53921 60.2926L4.92768 61.9336L4.93249 61.9383L6.53921 60.2926ZM12.6564 41.511L12.9814 43.7879L12.9873 43.787L12.6564 41.511ZM27.5488 39.3457L27.8797 41.6218L27.8821 41.6215L27.5488 39.3457ZM31.2021 36.6818L29.1388 35.6654L29.137 35.669L31.2021 36.6818ZM47.7208 14.7C42.6305 14.7 38.0423 17.5605 35.7995 22.1443L39.9314 24.166C41.4025 21.1593 44.388 19.3 47.7208 19.3V14.7ZM59.6505 22.1241C57.3959 17.561 52.8248 14.7 47.7208 14.7V19.3C51.0644 19.3 54.0426 21.1587 55.5264 24.1618L59.6505 22.1241ZM66.3154 35.6661L59.652 22.1273L55.5248 24.1586L62.1881 37.6974L66.3154 35.6661ZM68.2263 37.07C67.4049 36.9497 66.6898 36.4296 66.3168 35.669L62.1867 37.6945C63.2216 39.8047 65.2252 41.2795 67.5596 41.6215L68.2263 37.07ZM83.1281 39.2349L68.2236 37.0696L67.5623 41.6218L82.4668 43.7871L83.1281 39.2349ZM93.8561 48.2902C92.2755 43.4498 88.1618 39.9703 83.1299 39.2351L82.4649 43.7868C85.7592 44.2681 88.4424 46.5301 89.4834 49.7181L93.8561 48.2902ZM90.4986 61.9612C94.1452 58.3945 95.4387 53.1511 93.8568 48.2922L89.4827 49.7162C90.5225 52.9099 89.6798 56.3275 87.2821 58.6726L90.4986 61.9612ZM79.7201 72.496L90.498 61.9617L87.2827 58.6721L76.5048 69.2063L79.7201 72.496ZM78.9846 74.7622C78.8422 73.9191 79.1221 73.0762 79.7141 72.5019L76.5109 69.2004C74.821 70.84 74.0571 73.2085 74.4488 75.5281L78.9846 74.7622ZM81.5325 89.6336L78.9837 74.7567L74.4497 75.5335L76.9985 90.4104L81.5325 89.6336ZM78.6066 100.448C81.1392 97.452 82.1909 93.5049 81.533 89.6364L76.9981 90.4077C77.4325 92.9619 76.7364 95.5349 75.0938 97.4778L78.6066 100.448ZM68.427 105.204C72.3534 105.204 76.065 103.463 78.6089 100.445L75.0915 97.4805C73.4116 99.4738 70.9818 100.604 68.427 100.604V105.204ZM62.2256 103.658C64.1613 104.686 66.2556 105.204 68.427 105.204V100.604C67.0057 100.604 65.653 100.27 64.3845 99.5958L62.2256 103.658ZM48.9066 96.643L62.2333 103.662L64.3768 99.5917L51.0501 92.5729L48.9066 96.643ZM47.7208 96.3484C48.1329 96.3484 48.5417 96.4505 48.9053 96.6423L51.0515 92.5736C50.0314 92.0356 48.8866 91.7484 47.7208 91.7484V96.3484ZM46.5364 96.6423C46.9 96.4505 47.3088 96.3484 47.7208 96.3484V91.7484C46.5551 91.7484 45.4103 92.0356 44.3902 92.5736L46.5364 96.6423ZM33.2084 103.662L46.5351 96.643L44.3915 92.5729L31.0648 99.5917L33.2084 103.662ZM27.0147 105.204C29.152 105.204 31.2922 104.673 33.2104 103.661L31.0629 99.5927C29.8011 100.259 28.3973 100.604 27.0147 100.604V105.204ZM16.8328 100.433C19.3729 103.447 23.0824 105.204 27.0147 105.204V100.604C24.4657 100.604 22.0339 99.4661 20.3502 97.4684L16.8328 100.433ZM13.9087 89.6121C13.2506 93.4819 14.3035 97.4263 16.8315 100.431L20.3515 97.4699C18.7043 95.5119 18.0094 92.9362 18.4436 90.3833L13.9087 89.6121ZM16.4581 74.7443L13.9093 89.609L18.4431 90.3864L20.9919 75.5217L16.4581 74.7443ZM15.7186 72.4688C16.3219 73.0605 16.599 73.9098 16.4571 74.75L20.9929 75.5159C21.3851 73.1934 20.6183 70.8313 18.9398 69.1849L15.7186 72.4688ZM4.93249 61.9383L15.7225 72.4726L18.9359 69.1811L8.14594 58.6469L4.93249 61.9383ZM1.58554 48.278C0.00219798 53.1268 1.29741 58.3686 4.92769 61.9336L8.15074 58.6516C5.76095 56.3047 4.92001 52.8856 5.95831 49.7059L1.58554 48.278ZM12.3313 39.2341C7.28214 39.9549 3.16636 43.437 1.58554 48.278L5.95831 49.7059C6.99913 46.5186 9.6802 44.2592 12.9814 43.7879L12.3313 39.2341ZM27.2178 37.0697L12.3255 39.2349L12.9873 43.787L27.8797 41.6218L27.2178 37.0697ZM29.137 35.669C28.7675 36.4224 28.0446 36.9486 27.2154 37.07L27.8821 41.6215C30.2086 41.2807 32.2287 39.8119 33.2671 37.6945L29.137 35.669ZM35.8022 22.1387L29.1388 35.6654L33.2653 37.6981L39.9287 24.1715L35.8022 22.1387Z" fill="#10101A"/>
</svg>
